<?xml version="1.0" encoding="UTF-8"?>
<svg width="24px" height="24px" viewBox="0 0 24 24" version="1.1" xmlns="http://www.w3.org/2000/svg" xmlns:xlink="http://www.w3.org/1999/xlink">
    <!-- Generator: Sketch 49.1 (51147) - http://www.bohemiancoding.com/sketch -->
    <title>popular</title>
    <desc>Created with Sketch.</desc>
    <defs></defs>
    <g id="Final" stroke="none" stroke-width="1" fill="none" fill-rule="evenodd" opacity="0.900000036">
        <g id="popular">
            <polygon id="Shape" points="0 0 24 0 24 24 0 24"></polygon>
            <g id="icon" fill-rule="nonzero">
                <path d="M21.0631765,8.34363636 C21.0631765,8.34363636 21.3941647,10.2407439 19.9952471,11.0018333 C19.9952471,11.0018333 21.5352,5.28697727 9.62152941,0.0246030303 C10.1380235,0.812434848 10.4474118,1.80671818 10.4474118,2.88871667 C10.4474118,5.44529242 8.72576471,7.5178303 6.60388235,7.5178303 C5.25578824,7.5178303 4.07032941,6.68132727 3.38421176,5.41694545 C2.74764706,6.21921818 -0.459952941,10.5183303 0.133411765,14.9891288 C0.850023529,20.3910985 7.65338824,22.1534242 11.7834353,23.5012424 C11.7834353,23.5012424 18.7303765,22.1801667 21.9100235,18.2527742 C24.8933647,14.5676682 23.1380471,9.87597727 21.0631765,8.34363636 Z" id="Shape" fill="#FBB216"></path>
                <path d="M21.0631765,8.34363636 C21.0631765,8.34363636 21.3941647,10.2407439 19.9952471,11.0018333 C19.9952471,11.0018333 21.3408,6.00741818 11.7828,1.05739545 L11.7828,23.5012424 C11.7828,23.5012424 18.7297412,22.1801667 21.9093882,18.2527742 C24.8933647,14.5676682 23.1380471,9.87597727 21.0631765,8.34363636 Z" id="Shape" fill="#F6BF16"></path>
                <path d="M11.9185383,9.57930768 C11.9185383,9.57930768 16.2778018,12.3747007 15.2292359,15.6074099 C15.2292359,15.6074099 17.0391451,14.818526 17.8101644,13.3093567 C17.8101644,13.3093567 18.7115541,18.8722746 11.9185383,20.2571089 C11.9185383,20.2571089 6.9451076,18.8761333 7.08719107,15.4243374 C7.08719107,15.4243374 8.24677552,16.4927606 9.05649852,16.6672583 C9.05649852,16.6672583 8.40159049,15.5323802 9.07381335,14.119249 C9.79543442,12.6015049 10.9412689,11.6977183 11.9185383,9.57887893 L11.9185383,9.57930768 Z" id="Shape" fill="#FFFFFF"></path>
            </g>
        </g>
    </g>
</svg>