<?xml version="1.0" standalone="no"?>
<!DOCTYPE svg PUBLIC "-//W3C//DTD SVG 20010904//EN"
 "http://www.w3.org/TR/2001/REC-SVG-20010904/DTD/svg10.dtd">
<svg version="1.0" xmlns="http://www.w3.org/2000/svg"
 width="1280.000000pt" height="951.000000pt" viewBox="0 0 1280.000000 951.000000"
 preserveAspectRatio="xMidYMid meet">

<g transform="translate(0.000000,951.000000) scale(0.100000,-0.100000)"
fill="#000000" stroke="none">
<path d="M7630 9034 c-365 -44 -689 -162 -1038 -378 -204 -127 -479 -374 -672
-602 -129 -154 -330 -464 -420 -649 -147 -303 -149 -308 -233 -570 -77 -240
-76 -235 -127 -505 -49 -259 -89 -730 -62 -730 4 0 15 15 25 33 21 38 77 77
112 77 42 0 75 -41 75 -95 0 -64 -22 -109 -71 -144 -47 -35 -62 -37 -103 -16
-15 8 -33 15 -38 15 -12 0 0 -334 14 -369 l9 -25 18 31 c43 69 119 95 160 54
28 -28 37 -116 17 -166 -27 -66 -103 -103 -156 -75 -14 7 -19 5 -23 -9 -5 -22
39 -296 54 -330 l10 -24 24 35 c29 43 78 68 113 59 42 -11 62 -49 69 -128 l6
-70 -42 -42 c-39 -39 -45 -42 -81 -36 -22 4 -41 2 -44 -4 -5 -8 33 -157 75
-288 12 -37 34 -43 44 -13 16 51 97 77 141 46 28 -20 58 -117 51 -168 -8 -58
-49 -98 -100 -98 -37 0 -39 -1 -34 -28 7 -40 110 -272 121 -272 5 0 23 17 41
37 27 31 38 37 69 36 48 -1 67 -20 101 -95 40 -89 19 -157 -56 -180 -21 -6
-39 -16 -39 -22 0 -10 88 -167 130 -234 18 -27 37 -28 45 -2 10 31 49 52 91
48 32 -3 44 -10 75 -51 71 -95 70 -174 -3 -210 -21 -10 -38 -22 -38 -27 0 -10
158 -214 169 -218 5 -2 22 11 39 28 24 23 39 30 70 30 36 0 45 -6 87 -52 51
-57 65 -84 65 -127 0 -32 -34 -81 -56 -81 -30 0 -11 -27 86 -124 l101 -101 24
32 c48 60 112 48 185 -35 33 -37 40 -52 40 -87 0 -32 -6 -46 -27 -65 l-27 -23
71 -66 c77 -71 129 -118 156 -140 27 -22 83 -23 102 -1 9 10 14 24 10 29 -12
21 13 11 39 -15 14 -15 26 -35 26 -46 0 -15 -5 -17 -27 -12 -22 6 -25 4 -20
-10 4 -10 1 -16 -8 -16 -8 0 -15 -4 -15 -10 0 -5 5 -10 11 -10 6 0 8 -7 5 -16
-4 -11 9 -31 41 -63 26 -25 47 -49 45 -53 -1 -5 1 -8 5 -8 7 0 28 -16 80 -60
7 -5 16 -10 21 -10 4 0 17 -8 28 -18 10 -9 35 -27 54 -40 33 -21 34 -22 10
-22 l-25 -1 25 -11 c14 -6 33 -10 44 -9 12 2 16 -1 11 -9 -5 -8 -22 -10 -45
-7 -32 4 -39 2 -43 -15 -4 -14 3 -28 21 -43 l27 -23 -26 5 c-34 6 -58 -21 -41
-48 10 -15 9 -19 -2 -19 -7 0 -16 10 -20 23 -4 16 1 28 20 44 14 13 21 23 15
23 -5 0 -13 -5 -16 -10 -5 -8 -12 -7 -22 2 -14 11 -15 10 -9 -9 4 -12 2 -24
-4 -28 -8 -5 -8 -11 0 -20 9 -11 6 -15 -17 -20 -46 -11 -49 -13 -18 -16 24 -2
22 -3 -15 -9 l-45 -7 50 -2 50 -3 -40 -13 -40 -14 35 4 c19 3 64 7 98 10 35 3
81 14 103 25 21 11 39 18 39 16 0 -11 -116 -68 -247 -121 -80 -33 -139 -63
-136 -68 3 -6 1 -7 -4 -4 -14 9 -75 -12 -68 -23 3 -4 -9 -13 -27 -19 -38 -13
-41 -14 -33 -1 3 5 16 10 28 11 12 0 17 3 10 6 -18 7 -163 -49 -156 -61 3 -5
1 -6 -5 -2 -16 10 -94 -13 -86 -25 3 -5 14 -7 24 -4 10 3 27 7 37 9 34 7 168
44 272 75 57 17 106 29 109 27 2 -3 -14 -10 -37 -16 -49 -13 -63 -30 -24 -30
24 -1 26 -2 10 -11 -9 -6 -15 -14 -12 -20 4 -5 -1 -9 -9 -9 -10 0 -13 6 -10
15 4 9 0 15 -7 16 -8 0 -22 2 -32 4 -10 2 -14 -1 -11 -7 5 -7 -3 -9 -22 -4
-24 5 -26 4 -11 -5 10 -6 25 -8 32 -5 8 3 17 0 21 -6 4 -7 3 -8 -4 -4 -7 4
-12 3 -12 -3 0 -7 -8 -7 -25 -1 -20 8 -25 6 -25 -6 0 -8 4 -13 9 -10 13 9 42
-4 35 -16 -3 -5 -12 -7 -20 -4 -19 7 -44 -3 -44 -19 0 -8 8 -11 20 -8 11 3 20
0 20 -6 0 -10 -21 -16 -42 -12 -5 0 -8 -3 -8 -8 0 -5 -9 -11 -21 -14 -11 -3
-23 -15 -26 -26 -3 -12 -9 -21 -14 -21 -5 0 -9 -8 -9 -17 0 -15 -2 -16 -9 -3
-6 8 -7 18 -5 22 3 4 -1 8 -9 8 -10 0 -13 -7 -10 -20 4 -14 0 -20 -11 -20 -10
0 -14 -5 -11 -10 4 -6 1 -18 -7 -27 -10 -13 -10 -17 0 -20 18 -7 15 -20 -7
-26 -15 -3 -18 -1 -14 12 3 9 -7 -2 -22 -23 -27 -37 -27 -40 -10 -53 18 -12
18 -13 -4 -13 -16 0 -21 -4 -18 -14 8 -20 -4 -28 -20 -14 -7 6 -14 9 -16 7 -1
-2 -13 -17 -27 -33 l-25 -28 25 7 c24 7 24 6 6 -8 -19 -14 -19 -14 0 -26 17
-11 16 -12 -9 -6 -26 5 -28 4 -22 -16 6 -18 4 -21 -10 -15 -22 8 -42 -4 -24
-15 10 -6 6 -11 -14 -18 -15 -6 -27 -17 -27 -25 0 -8 -6 -17 -12 -19 -10 -4
-10 -7 0 -15 9 -6 5 -12 -15 -22 -22 -11 -25 -14 -10 -17 36 -9 17 -26 -22
-19 -44 7 -51 -2 -51 -61 0 -30 -2 -34 -15 -23 -9 8 -15 8 -15 2 0 -6 -8 -12
-17 -15 -15 -3 -14 -6 6 -14 l25 -10 -23 -6 c-13 -3 -20 -10 -17 -15 3 -5 -4
-12 -15 -15 -13 -4 -20 -11 -16 -20 3 -8 -3 -21 -14 -30 -10 -9 -19 -26 -19
-37 0 -11 -4 -20 -10 -20 -5 0 -7 7 -4 15 4 8 1 15 -5 15 -6 0 -11 -7 -11 -15
0 -8 -7 -15 -15 -15 -10 0 -15 -11 -15 -35 l0 -35 3255 0 3255 0 0 3440 0
3440 -23 0 c-13 0 -28 -5 -35 -12 -9 -9 -37 -9 -121 1 -71 7 -117 8 -134 2
-14 -5 -34 -7 -45 -4 -14 3 -25 -2 -34 -16 -7 -12 -23 -21 -35 -21 -14 0 -23
-6 -23 -15 0 -8 -6 -15 -12 -15 -20 0 -114 46 -163 80 -25 17 -80 47 -123 66
-117 54 -169 82 -265 146 -49 33 -116 72 -150 87 -67 30 -355 132 -424 150
-49 13 -69 36 -161 181 -153 243 -356 484 -409 486 -58 3 -197 33 -483 104
-19 5 -69 16 -110 25 -41 9 -94 21 -118 27 -23 6 -45 8 -48 5 -3 -3 -49 16
-102 43 -96 48 -116 54 -93 26 9 -10 2 -9 -24 4 -19 10 -89 70 -155 133 -352
340 -752 559 -1170 642 -222 45 -491 55 -710 29z m245 -34 c16 -7 11 -9 -20
-9 -22 0 -47 4 -55 9 -19 13 46 13 75 0z m440 -39 c105 -18 233 -42 285 -54
93 -21 260 -92 275 -118 5 -6 4 -10 -1 -7 -5 4 -142 34 -304 68 -475 100 -603
129 -615 141 -18 19 155 5 360 -30z m-814 -12 c20 -37 -11 -47 -133 -41 -43 2
-48 4 -48 26 0 31 9 34 97 35 64 1 74 -2 84 -20z m-383 -150 c4 -35 -33 -51
-134 -57 -69 -4 -82 -2 -87 13 -19 47 37 75 148 72 67 -2 70 -3 73 -28z m1305
-51 c7 -7 12 -20 12 -28 0 -22 64 -19 303 14 236 32 214 36 367 -64 398 -263
754 -681 981 -1154 25 -53 49 -96 52 -96 4 0 8 -11 8 -26 2 -23 1 -24 -12 -7
-9 12 -13 13 -14 5 0 -8 -5 -10 -12 -6 -7 5 -9 2 -5 -8 3 -9 -1 -25 -9 -37
-12 -16 -26 -21 -64 -21 -31 0 -52 5 -57 14 -12 20 -48 36 -83 36 -43 0 -147
-27 -179 -47 -46 -29 -111 -84 -111 -94 0 -6 4 -8 8 -5 4 2 14 1 22 -4 12 -7
9 -11 -10 -18 -32 -12 -43 -6 -35 19 6 19 2 20 -57 18 -99 -3 -163 -32 -235
-106 -35 -36 -63 -68 -63 -73 0 -5 7 -15 15 -24 22 -21 19 -35 -11 -46 -32
-12 -47 -4 -39 21 9 28 -15 33 -76 15 -88 -26 -168 -85 -199 -146 -17 -34 -17
-36 1 -59 42 -52 10 -112 -67 -127 -28 -5 -37 -2 -53 17 -17 21 -21 22 -57 11
-24 -7 -61 -33 -96 -68 -49 -49 -58 -63 -58 -93 0 -25 6 -40 20 -48 10 -7 22
-29 26 -48 5 -31 2 -41 -20 -64 -15 -16 -45 -37 -67 -46 -39 -18 -40 -18 -70
4 l-30 22 -34 -21 c-44 -27 -115 -125 -115 -159 0 -17 11 -35 30 -51 67 -55
53 -124 -35 -176 -45 -26 -48 -26 -80 -11 -33 16 -35 16 -63 -8 -35 -30 -82
-124 -82 -166 0 -21 6 -32 23 -38 35 -14 58 -46 64 -89 5 -37 2 -43 -45 -92
-52 -53 -63 -57 -114 -35 -27 11 -62 -33 -87 -107 -25 -75 -18 -111 23 -122
36 -9 64 -42 71 -86 8 -47 -10 -85 -61 -129 -31 -28 -41 -32 -73 -26 -32 5
-38 3 -53 -22 -9 -15 -21 -55 -28 -88 -15 -76 -4 -110 39 -120 40 -9 79 -50
87 -93 5 -27 1 -46 -16 -79 -25 -47 -73 -88 -90 -78 -18 11 -48 -5 -58 -33
-21 -55 -24 -137 -6 -180 15 -40 19 -42 56 -42 64 0 95 -47 84 -124 -8 -49
-46 -92 -86 -98 -56 -7 -69 -121 -29 -241 29 -83 39 -94 79 -77 27 11 33 10
50 -5 39 -35 14 -115 -36 -115 -29 0 -42 -27 -50 -109 -7 -68 13 -160 55 -254
33 -73 38 -117 20 -177 -9 -31 -8 -52 6 -112 10 -40 22 -78 27 -85 6 -7 13
-27 18 -45 4 -18 9 -40 11 -48 2 -8 9 -18 14 -22 6 -4 10 -11 11 -15 2 -17 34
-82 44 -88 5 -3 10 -13 10 -21 0 -9 19 -47 43 -86 78 -130 85 -143 115 -198
16 -30 43 -77 61 -104 17 -28 31 -53 31 -56 0 -4 20 -28 44 -55 40 -43 63 -99
46 -110 -4 -3 -15 3 -23 13 -23 25 -91 18 -84 -9 3 -10 -1 -23 -9 -30 -11 -9
-14 -8 -14 2 0 10 -3 10 -11 2 -6 -6 -17 -9 -24 -7 -8 3 -15 -8 -19 -30 -5
-28 -13 -37 -34 -42 -15 -4 -32 -11 -39 -16 -7 -5 -17 -7 -23 -3 -5 3 -10 1
-10 -5 0 -15 -72 -2 -86 16 -6 8 -16 14 -21 14 -17 0 -73 31 -73 41 0 5 -7 9
-15 9 -8 0 -15 5 -15 10 0 6 -5 10 -11 10 -12 0 -85 60 -166 138 -31 28 -59
52 -63 52 -4 0 -15 9 -25 20 -10 11 -26 20 -37 20 -10 0 -17 4 -15 9 3 14
-104 82 -117 74 -6 -3 -8 -3 -4 2 7 7 -14 35 -27 35 -7 0 -78 57 -176 142
l-67 58 -26 -21 c-77 -60 -159 -36 -202 60 -19 41 -11 81 22 111 13 13 24 34
24 47 0 25 -115 202 -137 210 -8 3 -22 -2 -33 -12 -24 -22 -91 -31 -119 -15
-12 6 -36 32 -52 58 -48 75 -37 170 22 191 18 6 29 17 29 29 0 25 -99 212
-112 212 -5 0 -21 -9 -35 -20 -56 -44 -129 -17 -162 59 -39 92 -16 184 50 198
17 3 33 12 36 19 5 14 -61 210 -79 231 -8 10 -17 8 -40 -12 -67 -56 -145 -15
-168 87 -11 46 -10 63 0 88 23 57 49 80 86 80 47 0 51 17 26 115 -12 46 -22
91 -22 102 0 11 -6 28 -14 38 -13 18 -14 18 -41 -3 -33 -26 -91 -29 -122 -7
-25 18 -43 71 -43 130 0 71 62 143 115 133 44 -9 48 10 35 141 -7 66 -16 125
-20 132 -6 9 -16 5 -40 -14 -40 -34 -80 -34 -119 -1 -28 24 -31 31 -31 86 0
106 55 172 137 166 l38 -3 8 134 c5 81 4 138 -2 144 -5 5 -20 1 -38 -11 -47
-35 -94 -33 -130 6 -22 24 -24 32 -19 80 9 73 35 113 98 147 21 11 33 12 58 4
21 -8 35 -8 42 -1 8 8 47 226 48 270 0 18 -21 14 -50 -8 -33 -26 -81 -25 -114
1 -54 42 -23 161 56 212 48 31 62 33 103 11 27 -14 30 -14 42 2 7 9 17 42 24
73 6 31 20 85 31 119 26 86 20 98 -32 68 -50 -29 -94 -23 -123 16 -19 25 -19
31 -8 70 19 61 48 97 95 119 50 23 80 24 100 4 34 -35 45 -22 95 105 16 41 36
92 45 112 9 21 12 39 7 43 -6 3 -30 -5 -55 -17 -44 -21 -47 -21 -81 -5 -44 21
-54 55 -30 107 22 48 49 74 97 95 50 20 84 19 106 -5 10 -11 25 -18 33 -15 21
8 158 248 149 259 -5 5 -23 2 -43 -8 -60 -28 -110 -16 -127 30 -20 53 55 134
143 155 50 12 51 11 77 -18 33 -37 35 -35 117 72 33 44 70 91 82 104 37 43 28
51 -39 33 -59 -16 -60 -16 -85 8 -29 27 -32 51 -9 85 22 34 70 62 128 75 40 9
53 8 72 -5 13 -8 24 -22 24 -30 0 -8 6 -15 13 -15 19 0 229 208 218 215 -5 3
-31 1 -57 -5 -43 -10 -49 -9 -70 11 -33 30 -30 62 6 93 38 32 93 49 145 44 32
-2 42 -8 53 -30 7 -16 17 -28 21 -28 4 0 41 25 82 56 41 30 95 69 121 86 57
36 53 53 -9 43 -38 -5 -47 -3 -63 16 -43 49 6 97 109 106 63 6 91 -7 91 -41 0
-9 6 -16 12 -16 19 0 278 132 278 142 0 4 -20 8 -44 8 -46 0 -56 10 -56 55 0
27 14 34 92 42 59 6 59 6 70 -25 7 -17 18 -34 24 -36 7 -3 56 11 110 29 55 18
118 38 142 45 39 10 58 30 29 30 -20 0 -14 44 6 48 10 2 15 8 12 13 -9 14 15
11 28 -3z m-1679 -144 c12 -30 6 -42 -29 -64 -45 -28 -179 -48 -200 -30 -24
20 -18 47 15 70 42 30 74 38 146 39 48 1 63 -3 68 -15z m-356 -266 c20 -20 14
-53 -15 -80 -42 -38 -64 -47 -142 -54 -69 -7 -70 -7 -77 20 -9 36 -2 47 43 79
56 39 167 59 191 35z m3430 -181 c51 -33 113 -97 93 -97 -39 0 -169 90 -191
131 -9 16 -8 17 19 8 16 -6 51 -25 79 -42z m-3746 -154 c25 -22 23 -50 -8 -90
-30 -40 -62 -57 -133 -72 -47 -10 -56 -9 -72 5 -30 27 -23 60 20 103 37 37 64
48 170 70 3 1 13 -6 23 -16z m4640 -98 c96 -54 161 -145 103 -145 -30 0 -136
73 -161 110 -42 63 -17 77 58 35z m-622 -137 c45 -30 73 -58 93 -92 15 -27 25
-51 23 -54 -3 -3 -36 15 -73 40 -47 31 -78 61 -100 96 -19 31 -27 52 -20 52 7
0 42 -19 77 -42z m-4294 -146 c6 -4 16 -17 23 -30 10 -19 9 -29 -10 -60 -31
-50 -67 -80 -109 -92 -86 -22 -87 -22 -109 1 -27 29 -26 33 4 84 27 47 61 73
120 91 47 15 66 16 81 6z m5195 -138 c32 -26 59 -47 59 -48 0 -1 4 -16 9 -34
l10 -33 -32 7 c-47 10 -65 24 -99 77 -26 41 -32 77 -12 77 3 0 32 -21 65 -46z
m-811 -128 c0 -3 -4 -8 -10 -11 -5 -3 -10 -1 -10 4 0 6 5 11 10 11 6 0 10 -2
10 -4z m-4595 -181 c31 -30 31 -34 0 -94 -27 -54 -60 -82 -118 -101 -48 -15
-85 -6 -99 25 -9 20 -6 33 16 79 24 49 34 59 89 85 75 37 82 37 112 6z m5769
-146 c19 3 53 -13 64 -29 16 -26 25 -80 12 -80 -5 0 -10 -13 -10 -29 0 -16 -6
-34 -14 -40 -11 -10 -17 -3 -32 36 -9 26 -23 63 -31 82 -15 38 -18 95 -4 73 4
-8 11 -13 15 -13z m-142 -29 c31 -27 51 -55 61 -85 9 -25 13 -45 10 -45 -6 0
-70 46 -89 65 -13 13 -45 105 -36 105 4 0 28 -18 54 -40z m-884 -125 c-3 -3
-9 2 -12 12 -6 14 -5 15 5 6 7 -7 10 -15 7 -18z m189 -122 c25 -22 35 -42 47
-98 8 -38 14 -70 13 -72 -2 -1 -29 21 -60 50 -51 46 -60 59 -72 112 -8 33 -14
64 -15 68 0 10 40 -18 87 -60z m-147 -58 c5 3 7 -10 5 -29 -4 -26 0 -38 13
-46 10 -7 13 -13 6 -16 -11 -5 -7 -54 5 -54 3 0 6 -26 7 -57 0 -31 5 -58 11
-60 5 -2 7 -17 5 -33 -3 -20 0 -30 9 -30 9 0 10 -3 3 -10 -7 -7 -8 -28 -3 -58
5 -26 11 -112 15 -192 4 -91 10 -148 18 -152 8 -6 8 -8 -1 -8 -8 0 -11 -23
-10 -75 1 -41 5 -75 9 -75 4 0 4 -10 -1 -22 -4 -13 -8 -67 -9 -122 -1 -54 -4
-101 -8 -105 -3 -3 -5 3 -4 14 4 36 -1 120 -7 107 -3 -7 -16 -25 -29 -39 -13
-14 -24 -29 -24 -32 0 -4 -13 -15 -30 -24 -16 -10 -30 -23 -30 -28 0 -10 -46
-65 -82 -98 -10 -8 -18 -23 -18 -31 0 -9 -11 -27 -25 -40 -13 -12 -22 -26 -20
-31 3 -4 2 -9 -3 -11 -18 -8 -110 -128 -131 -170 -12 -27 -26 -48 -31 -48 -4
0 -18 -19 -30 -42 -12 -24 -25 -45 -29 -48 -14 -10 -50 -90 -57 -127 -4 -21
-18 -55 -31 -75 -12 -21 -23 -41 -23 -45 0 -5 -11 -24 -23 -43 -13 -19 -27
-48 -31 -65 -4 -16 -16 -48 -26 -70 -11 -22 -31 -80 -45 -130 -14 -49 -37
-124 -51 -165 -36 -106 -63 -216 -70 -280 -3 -30 -9 -59 -14 -65 -5 -6 -12
-33 -15 -60 -4 -28 -11 -78 -16 -113 -5 -35 -7 -67 -4 -71 2 -5 0 -22 -5 -37
-11 -31 -31 -187 -32 -244 0 -19 0 -66 0 -105 1 -63 -3 -130 -7 -130 -2 0 -10
-77 -13 -122 0 -18 -6 -33 -12 -33 -6 0 -5 -4 3 -9 11 -7 10 -11 -5 -20 -14
-9 -15 -14 -6 -18 10 -4 10 -8 1 -19 -14 -18 -49 -18 -49 -1 0 7 -14 28 -31
46 -17 19 -31 46 -32 60 -1 15 -11 30 -22 36 -12 6 -21 22 -22 40 -1 16 -12
42 -23 57 -12 16 -22 38 -23 49 -1 11 -9 25 -19 30 -10 5 -18 15 -18 22 0 7
-9 20 -19 29 -25 21 -40 78 -46 164 -3 48 -9 70 -22 80 -17 13 -17 13 2 14 12
0 16 3 9 10 -6 6 -24 4 -49 -5 -27 -9 -33 -14 -18 -15 12 0 25 -5 29 -12 5 -7
2 -9 -8 -5 -20 7 -31 -3 -18 -18 6 -7 4 -21 -5 -39 -8 -16 -15 -38 -15 -50 0
-11 -5 -28 -10 -36 -7 -11 -10 -1 -10 35 0 36 -3 46 -10 35 -8 -12 -10 -10
-10 9 0 14 -6 32 -14 40 -14 17 -53 197 -61 286 -4 48 -18 121 -26 136 -5 9
-5 20 -1 24 8 8 4 330 -4 358 -7 21 13 143 27 169 5 10 9 27 9 38 0 11 6 31
14 43 8 12 16 40 17 62 1 22 5 45 8 50 9 17 13 39 14 93 1 28 4 52 8 52 8 0
26 50 34 90 2 12 8 27 13 34 5 6 15 36 23 66 7 30 16 59 21 64 4 6 8 24 8 40
0 17 7 40 15 50 8 11 15 28 15 38 0 10 4 18 8 18 5 0 17 25 27 55 11 30 23 55
27 55 4 0 8 9 8 20 0 11 7 23 15 26 8 4 15 17 15 30 0 12 8 27 17 33 10 5 15
13 11 16 -4 4 9 30 28 57 19 28 34 54 34 59 0 11 78 137 107 172 13 16 23 33
23 39 0 13 35 58 88 113 23 25 42 46 42 49 0 2 15 20 33 39 17 19 42 49 55 66
13 17 29 31 36 31 6 0 18 9 26 20 8 11 19 20 25 20 5 0 16 14 24 31 7 17 23
35 35 40 12 6 26 20 31 32 7 15 21 23 44 25 22 2 30 6 22 12 -10 6 -10 13 4
34 10 14 24 26 32 26 8 0 17 9 20 20 3 11 9 18 13 15 4 -3 11 6 14 20 4 16 13
25 25 25 10 0 22 7 25 16 3 8 10 13 15 9 5 -3 12 3 16 14 3 11 17 27 31 36 14
9 22 21 18 27 -4 6 -3 8 3 5 9 -6 56 27 103 73 23 23 77 43 95 36 9 -3 15 0
15 10 0 8 -4 13 -9 10 -5 -3 -12 1 -15 10 -3 8 -2 12 4 9 6 -3 11 6 12 22 1
26 2 25 5 -5 2 -18 8 -30 13 -27z m-4955 13 c25 -19 27 -25 21 -67 -8 -62 -42
-107 -100 -136 -61 -31 -73 -31 -103 -3 -28 26 -29 53 -4 110 21 49 39 67 96
96 51 27 56 27 90 0z m6097 -200 c-2 -32 -8 -58 -14 -58 -6 0 -8 7 -4 15 3 8
1 15 -3 15 -5 0 -12 18 -16 41 -6 32 -3 44 12 58 16 16 19 16 24 2 3 -9 3 -42
1 -73z m-164 -19 c37 -40 52 -78 44 -111 -4 -16 -6 -16 -32 2 -16 11 -33 35
-39 53 -15 51 -23 97 -16 97 4 0 23 -18 43 -41z m-719 -328 c5 -9 11 -52 14
-95 l6 -79 -54 53 c-57 56 -55 53 -69 178 l-4 42 49 -41 c27 -23 53 -49 58
-58z m-5311 42 c17 -24 15 -99 -5 -140 -19 -40 -93 -93 -130 -93 -13 0 -35 12
-49 27 -22 23 -25 34 -20 66 10 62 41 112 88 141 48 29 93 28 116 -1z m5223
-685 c-8 -29 -9 -24 -10 39 -1 39 2 80 7 90 11 28 15 -90 3 -129z m91 39 c6
-12 7 -52 3 -103 l-7 -85 -37 42 c-20 23 -40 49 -45 58 -8 14 -7 14 10 0 23
-19 45 -14 37 8 -4 10 -2 14 4 10 6 -4 13 0 16 8 4 9 1 12 -8 9 -18 -7 -11 36
7 48 10 6 10 8 -1 8 -8 0 -11 3 -8 7 4 4 -5 20 -20 37 l-28 31 33 -30 c19 -16
38 -38 44 -48z m-195 -119 c-2 -13 -4 -3 -4 22 0 25 2 35 4 23 2 -13 2 -33 0
-45z m112 -504 c6 -13 4 -46 -5 -90 -24 -113 -21 -111 -65 -55 l-39 49 17 96
18 96 33 -37 c18 -21 37 -47 41 -59z m-262 -316 c-3 -8 -6 -5 -6 6 -1 11 2 17
5 13 3 -3 4 -12 1 -19z m-13 -52 c-3 -15 -8 -25 -11 -23 -2 3 -1 17 3 31 3 15
8 25 11 23 2 -3 1 -17 -3 -31z m106 -264 c0 -12 -14 -59 -31 -103 l-31 -81
-31 47 -30 47 23 71 c42 132 36 126 70 81 16 -21 30 -49 30 -62z m-880 -1315
c0 -2 -10 -12 -22 -23 l-23 -19 19 23 c18 21 26 27 26 19z m-1442 -246 c4 -22
3 -22 -16 -4 -20 19 -19 37 1 30 7 -2 13 -14 15 -26z m162 -711 c0 -5 -4 -10
-10 -10 -5 0 -10 5 -10 10 0 6 5 10 10 10 6 0 10 -4 10 -10z m-117 -97 c-7 -2
-21 -2 -30 0 -10 3 -4 5 12 5 17 0 24 -2 18 -5z m-333 -517 c0 -3 -4 -8 -10
-11 -5 -3 -10 -1 -10 4 0 6 5 11 10 11 6 0 10 -2 10 -4z m-125 -66 c-3 -5 -12
-10 -18 -10 -7 0 -6 4 3 10 19 12 23 12 15 0z m-280 -11 c11 -16 1 -19 -13 -3
-7 8 -8 14 -3 14 5 0 13 -5 16 -11z m224 -18 c-13 -11 -26 -17 -28 -15 -5 5
30 33 43 34 4 0 -2 -9 -15 -19z m116 -1 c-3 -5 -12 -10 -18 -10 -7 0 -6 4 3
10 19 12 23 12 15 0z m-175 -25 c-7 -8 -18 -15 -24 -15 -6 0 -2 7 8 15 25 19
32 19 16 0z m135 5 c-6 -10 -71 -40 -84 -40 -5 1 79 48 87 50 2 0 0 -5 -3 -10z
m-180 -30 c-3 -5 -12 -10 -18 -10 -7 0 -6 4 3 10 19 12 23 12 15 0z m-168
-176 c-3 -3 -12 -4 -19 -1 -8 3 -5 6 6 6 11 1 17 -2 13 -5z m-82 -24 c-11 -5
-31 -8 -45 -8 -23 0 -22 1 5 8 42 11 65 11 40 0z m-138 -126 c-3 -3 -12 -4
-19 -1 -8 3 -5 6 6 6 11 1 17 -2 13 -5z m-127 -81 c-1 -13 -60 -67 -66 -60 -4
3 7 19 22 36 29 30 44 38 44 24z m-70 -93 c-6 -11 -15 -20 -20 -20 -14 0 -12
6 6 24 21 22 27 20 14 -4z m-100 -100 c0 -5 -8 -10 -17 -10 -15 0 -16 2 -3 10
19 12 20 12 20 0z m-80 -90 c0 -5 -4 -10 -10 -10 -5 0 -10 5 -10 10 0 6 5 10
10 10 6 0 10 -4 10 -10z m-200 -271 c0 -5 -6 -9 -14 -9 -8 0 -17 -6 -19 -12
-3 -7 -6 -4 -6 8 -1 11 2 23 5 27 8 8 34 -3 34 -14z"/>
<path d="M8123 1993 c9 -2 23 -2 30 0 6 3 -1 5 -18 5 -16 0 -22 -2 -12 -5z"/>
<path d="M10451 6770 c15 -45 24 -54 15 -15 -4 17 -12 34 -17 40 -5 5 -4 -6 2
-25z"/>
<path d="M10486 6683 c-6 -14 -5 -15 5 -6 7 7 10 15 7 18 -3 3 -9 -2 -12 -12z"/>
<path d="M10350 6566 c0 -2 7 -7 16 -10 8 -3 12 -2 9 4 -6 10 -25 14 -25 6z"/>
<path d="M10000 6340 c0 -5 7 -7 15 -4 8 4 15 8 15 10 0 2 -7 4 -15 4 -8 0
-15 -4 -15 -10z"/>
<path d="M10074 6275 c-3 -8 -4 -20 -2 -27 3 -7 7 -1 10 15 6 29 1 36 -8 12z"/>
<path d="M9920 6259 c0 -5 5 -7 10 -4 6 3 10 8 10 11 0 2 -4 4 -10 4 -5 0 -10
-5 -10 -11z"/>
<path d="M10030 6241 c0 -5 -8 -12 -17 -15 -11 -3 -8 -4 6 -3 24 2 44 27 22
27 -6 0 -11 -4 -11 -9z"/>
<path d="M9825 6221 c-3 -5 -1 -12 4 -15 5 -3 11 1 15 9 6 16 -9 21 -19 6z"/>
<path d="M9970 6200 c-8 -5 -10 -10 -5 -10 6 0 17 5 25 10 8 5 11 10 5 10 -5
0 -17 -5 -25 -10z"/>
<path d="M10176 6162 c-2 -4 -1 -14 5 -22 7 -12 9 -10 9 8 0 23 -5 28 -14 14z"/>
<path d="M9858 6073 c7 -3 16 -2 19 1 4 3 -2 6 -13 5 -11 0 -14 -3 -6 -6z"/>
<path d="M9730 6009 c0 -11 5 -17 10 -14 6 3 10 13 10 21 0 8 -4 14 -10 14 -5
0 -10 -9 -10 -21z"/>
<path d="M9680 5960 c0 -5 5 -10 10 -10 6 0 10 5 10 10 0 6 -4 10 -10 10 -5 0
-10 -4 -10 -10z"/>
<path d="M9840 5960 c0 -5 5 -10 11 -10 5 0 7 5 4 10 -3 6 -8 10 -11 10 -2 0
-4 -4 -4 -10z"/>
<path d="M9740 5940 c0 -5 5 -10 10 -10 6 0 10 5 10 10 0 6 -4 10 -10 10 -5 0
-10 -4 -10 -10z"/>
<path d="M9784 5899 c-10 -17 13 -36 27 -22 12 12 4 33 -11 33 -5 0 -12 -5
-16 -11z"/>
<path d="M9757 5784 c3 -8 16 -14 29 -14 32 0 30 6 -5 18 -25 9 -29 8 -24 -4z"/>
<path d="M9120 3681 c0 -6 -8 -8 -17 -5 -11 4 -14 3 -7 -3 7 -4 14 -17 17 -28
4 -17 5 -16 6 5 1 20 3 22 11 10 8 -13 10 -13 10 2 0 9 -4 20 -10 23 -5 3 -10
2 -10 -4z"/>
<path d="M9432 2998 c5 -15 28 -23 28 -10 0 5 -7 13 -16 16 -10 4 -14 1 -12
-6z"/>
<path d="M11491 6554 c0 -11 3 -14 6 -6 3 7 2 16 -1 19 -3 4 -6 -2 -5 -13z"/>
<path d="M10605 5530 c-3 -5 -1 -10 4 -10 6 0 11 5 11 10 0 6 -2 10 -4 10 -3
0 -8 -4 -11 -10z"/>
<path d="M10580 5438 c0 -4 4 -8 9 -8 6 0 12 4 15 8 3 5 -1 9 -9 9 -8 0 -15
-4 -15 -9z"/>
<path d="M9370 8545 c0 -3 32 -21 71 -40 40 -19 87 -47 106 -61 19 -14 36 -24
39 -21 2 2 -10 15 -28 29 -49 37 -188 106 -188 93z"/>
<path d="M1 6261 l-1 -264 23 21 c13 12 29 22 36 22 13 0 81 -134 81 -160 0
-9 -32 -47 -70 -85 l-70 -69 0 -1164 0 -1164 33 7 32 6 -32 -15 c-18 -8 -33
-19 -33 -23 1 -14 24 -39 44 -46 15 -6 16 -11 8 -19 -9 -9 -16 -7 -31 6 -19
18 -20 17 -20 -53 l0 -70 28 5 c16 4 37 1 48 -5 17 -10 17 -10 -2 -11 -19 -1
-19 -1 2 -13 12 -7 54 -43 93 -81 38 -38 70 -62 70 -54 0 8 -32 45 -70 82 -39
37 -70 74 -70 83 0 8 5 11 10 8 6 -4 8 -10 5 -15 -3 -5 -1 -11 5 -15 5 -3 10
-1 10 4 0 6 5 10 12 8 8 -1 12 10 11 33 l-2 35 8 -30 c5 -16 9 -25 10 -20 2
10 31 -52 31 -64 -1 -3 -9 4 -19 16 -12 15 -22 18 -32 12 -12 -7 -12 -9 1 -9
8 0 21 -9 28 -20 7 -11 23 -20 37 -20 27 0 32 -9 14 -27 -8 -8 -7 -13 2 -18 7
-5 10 -4 6 2 -3 5 2 15 13 23 10 7 16 19 13 27 -3 7 0 13 6 13 13 0 34 -37 27
-48 -6 -11 33 -45 59 -53 15 -4 19 -13 18 -33 -2 -23 0 -26 13 -15 9 7 13 23
11 38 -2 14 -2 20 0 14 3 -7 12 -13 20 -13 14 0 14 -2 0 -18 -24 -26 -21 -41
8 -48 21 -5 23 -8 10 -21 -8 -8 -15 -19 -15 -25 0 -6 -7 -20 -17 -30 -14 -15
-14 -18 -1 -18 8 0 21 11 28 25 17 31 44 29 48 -4 3 -18 0 -22 -12 -18 -8 3
-28 -1 -43 -9 -28 -14 -28 -14 15 -8 28 4 42 3 42 -5 0 -6 -9 -11 -19 -11 -19
0 -37 -26 -21 -32 5 -2 12 -15 15 -31 7 -24 4 -28 -24 -33 -17 -4 -31 -9 -31
-13 0 -12 -105 -6 -128 8 -13 7 -26 10 -30 7 -3 -3 1 -6 8 -6 7 0 11 -3 8 -6
-4 -3 -17 1 -30 10 -24 16 -85 19 -94 4 -3 -4 2 -8 10 -8 9 0 16 -5 16 -10 0
-7 -8 -7 -23 1 -31 16 -77 61 -72 69 3 4 -2 13 -10 20 -21 17 -19 34 2 25 15
-5 16 -4 5 6 -20 21 -39 -5 -21 -28 11 -15 10 -15 -9 1 -12 11 -20 26 -17 33
2 8 0 11 -5 8 -6 -3 -10 -17 -10 -30 0 -40 393 -374 765 -650 996 -740 2114
-1230 3222 -1410 88 -15 176 -25 195 -23 23 2 8 7 -52 16 -646 100 -1247 275
-1815 528 -66 30 -125 54 -132 54 -6 0 -13 4 -15 9 -1 4 -66 40 -143 78 -173
87 -229 119 -218 125 4 3 3 3 -4 2 -13 -3 -94 39 -128 66 -24 19 -29 37 -10
37 7 0 11 -6 8 -13 -6 -17 34 -43 59 -36 14 3 26 -1 34 -13 12 -16 14 -16 14
-3 0 9 6 19 13 21 14 6 -15 10 -59 7 -18 -1 -35 3 -38 8 -3 5 8 8 25 6 27 -3
29 -2 19 11 -6 8 -15 13 -18 12 -8 -2 -99 59 -107 73 -8 14 53 130 69 130 7 0
53 -25 101 -55 48 -31 89 -54 91 -52 7 7 -42 45 -111 86 -38 22 -63 41 -55 40
21 0 161 -90 174 -111 8 -13 5 -28 -11 -62 -16 -32 -19 -46 -10 -50 9 -5 9 -7
0 -12 -7 -3 -13 -10 -13 -16 0 -6 8 -4 18 5 18 17 52 23 52 10 0 -3 -7 -15
-16 -25 -14 -15 -15 -20 -3 -34 12 -15 11 -16 -11 -10 -19 6 -21 5 -10 -3 27
-19 41 -13 34 15 -5 19 -4 25 5 20 6 -4 11 -14 11 -22 0 -8 5 -14 10 -14 6 0
10 9 10 20 0 24 18 27 27 4 5 -13 7 -13 14 -2 7 10 9 10 9 1 0 -7 9 -13 20
-13 11 0 20 6 20 13 0 9 2 9 8 -1 5 -8 16 -10 27 -6 10 4 16 3 13 -2 -4 -5 6
-10 20 -10 15 -1 21 1 15 3 -23 8 -13 20 17 20 16 0 27 -4 25 -7 -3 -4 13 -7
35 -6 22 0 40 4 40 9 0 4 5 5 10 2 8 -5 7 -12 -2 -23 -11 -15 -11 -15 2 -6 17
13 85 12 97 0 5 -5 -3 -5 -17 -2 l-25 7 24 -14 c13 -8 32 -12 41 -10 10 3 21
0 24 -6 4 -6 1 -9 -7 -5 -19 7 -32 -12 -16 -22 7 -4 9 -3 6 3 -9 14 44 14 61
0 7 -6 34 -14 60 -19 26 -4 56 -10 67 -12 11 -2 51 -20 89 -40 38 -20 75 -36
82 -36 7 0 14 -5 16 -11 2 -6 26 -15 53 -19 47 -7 52 -6 75 21 14 15 36 29 50
30 53 3 87 -2 105 -15 18 -13 18 -15 2 -30 -9 -10 -17 -21 -17 -25 0 -4 -19
-7 -42 -7 -38 1 -42 -1 -42 -23 0 -22 32 -41 96 -56 9 -2 25 -8 35 -13 40 -21
143 -6 128 18 -3 5 16 12 42 15 27 3 58 8 71 11 12 2 22 0 22 -6 0 -5 6 -10
13 -10 7 0 18 -5 24 -11 14 -14 -19 -44 -60 -54 -14 -4 -28 -13 -31 -21 -3 -9
-1 -12 4 -9 6 3 10 2 10 -3 0 -8 16 -14 79 -28 7 -1 18 -7 24 -13 13 -13 87
-15 87 -2 0 19 85 41 147 38 33 -1 59 -5 57 -8 -2 -4 3 -9 11 -13 8 -3 15 -10
15 -15 0 -6 -6 -8 -14 -5 -8 3 -19 -3 -26 -15 -6 -12 -21 -21 -33 -21 -13 0
-32 -7 -43 -15 -18 -14 -17 -14 16 -15 19 0 67 -9 105 -19 l70 -19 43 26 c38
22 83 32 144 33 22 0 71 -23 75 -36 1 -5 -17 -18 -42 -28 -45 -19 -63 -44 -25
-34 11 3 20 2 20 -3 0 -4 26 -10 57 -12 46 -4 68 0 111 19 29 13 58 21 63 18
5 -4 9 -1 9 4 0 6 7 11 15 11 8 0 15 -4 15 -8 0 -13 64 -11 72 2 5 8 8 7 8 -1
0 -22 18 -14 23 10 4 19 4 18 6 -5 0 -16 6 -28 11 -28 14 0 12 -27 -2 -34 -15
-6 18 -36 39 -36 17 0 17 15 -2 30 -12 10 -12 15 1 36 9 13 13 31 10 40 -4 10
-1 14 6 12 16 -6 19 -51 4 -60 -7 -5 -4 -12 9 -22 24 -18 44 -21 27 -4 -20 20
-14 28 13 16 13 -6 22 -15 19 -19 -3 -5 2 -9 10 -9 9 0 16 5 16 11 0 6 7 9 14
6 10 -4 13 -1 10 8 -3 8 -20 16 -37 18 l-32 4 33 1 c17 1 32 6 32 12 0 5 -19
8 -45 5 -45 -4 -61 7 -28 19 9 4 20 1 24 -6 4 -7 11 -9 15 -5 4 3 1 13 -6 22
-10 13 -9 15 9 16 38 2 42 4 50 17 4 7 21 14 38 15 17 1 29 5 26 10 -2 4 3 10
11 13 9 3 16 13 16 21 0 7 6 13 13 12 6 -1 21 -1 32 0 15 1 17 3 7 10 -11 7
-10 10 3 15 26 10 42 7 59 -10 11 -10 16 -11 16 -3 0 6 -8 18 -17 25 -17 12
-17 14 4 33 12 12 28 21 35 21 7 0 20 5 28 11 11 8 7 9 -16 4 -38 -7 -88 10
-81 29 5 11 -6 11 -66 0 -89 -17 -177 -4 -177 25 0 21 23 44 33 34 4 -3 7 -1
7 5 0 7 -10 9 -27 6 -18 -3 -35 1 -48 11 l-20 17 20 -7 c18 -6 18 -4 -3 16
-22 20 -27 21 -64 9 -83 -28 -187 -10 -157 26 6 8 37 19 69 26 l59 12 -22 18
c-12 11 -33 28 -45 39 -33 29 -82 34 -123 15 -39 -18 -159 -30 -159 -16 0 6
-7 10 -15 10 -19 0 -20 29 -2 36 19 7 17 30 -2 31 -9 1 -53 18 -99 38 -62 27
-86 33 -100 26 -12 -7 -26 -6 -42 2 -37 19 -34 33 11 47 33 11 44 21 56 52 8
21 20 38 26 38 6 0 50 -20 98 -45 48 -25 91 -45 95 -45 16 0 -19 28 -55 45
-47 21 -45 43 2 37 30 -4 31 -3 12 10 -11 8 -72 43 -135 79 -63 35 -123 69
-132 74 -166 93 -481 302 -678 448 -1185 880 -2199 2188 -2915 3762 -98 215
-123 272 -140 310 -12 26 -13 -5 -14 -234z m158 -401 c-6 -17 -13 -29 -15 -27
-3 2 0 15 5 29 7 18 4 36 -10 67 -27 60 -23 65 6 9 21 -40 23 -51 14 -78z
m-45 -51 c-39 -43 -94 -96 -94 -91 0 7 102 112 109 112 2 0 -4 -10 -15 -21z
m275 -394 c23 -41 41 -84 41 -96 0 -12 -27 -49 -67 -90 -36 -38 -64 -72 -61
-75 8 -7 148 153 148 170 0 8 -16 42 -35 76 -20 35 -34 65 -31 67 7 7 76 -127
76 -147 0 -30 -145 -178 -172 -176 -17 1 -33 20 -65 76 -24 41 -43 81 -43 89
0 10 156 181 166 181 1 0 21 -34 43 -75z m287 -474 c-3 -5 14 -42 39 -82 25
-40 45 -80 45 -87 0 -8 -25 -44 -56 -79 -31 -35 -54 -66 -52 -68 2 -3 30 25
61 61 37 43 57 75 57 91 0 14 -19 56 -41 92 -23 36 -32 57 -21 46 11 -11 34
-46 51 -79 25 -48 29 -62 19 -80 -16 -31 -120 -148 -126 -142 -3 3 -10 2 -16
-4 -7 -5 -17 -6 -23 -2 -21 13 -93 135 -93 157 0 21 81 124 132 168 22 19 32
22 24 8z m419 -601 c53 -72 58 -93 32 -132 -13 -18 -27 -32 -32 -31 -13 2 -35
-17 -35 -29 0 -6 8 -4 18 3 15 13 16 12 3 -4 -8 -9 -16 -15 -19 -12 -7 7 -42
-25 -42 -38 0 -6 10 -2 23 9 22 19 22 19 5 -1 -22 -27 -52 -28 -73 -5 -10 11
-22 17 -28 13 -6 -3 -7 -1 -3 5 4 7 -9 33 -28 58 -20 26 -36 53 -36 60 0 16
117 164 130 164 14 0 110 -140 110 -160 0 -10 -7 -23 -15 -30 -8 -7 -15 -18
-15 -24 1 -6 10 0 20 13 32 38 25 71 -32 147 -28 38 -44 63 -34 55 9 -7 32
-35 51 -61z m389 -507 c43 -52 56 -74 55 -98 l-2 -30 -4 30 c-3 17 -29 60 -59
98 -30 37 -53 67 -50 67 2 0 30 -30 60 -67z m-20 -16 c31 -38 56 -75 56 -83 0
-8 -7 -27 -16 -42 -15 -25 -15 -25 0 -8 9 11 16 15 16 9 0 -7 -15 -24 -32 -38
-18 -15 -26 -24 -18 -19 8 4 0 -7 -19 -24 -18 -18 -37 -32 -41 -32 -10 0 -103
107 -118 136 -10 18 -4 32 41 98 29 42 57 75 64 73 6 -1 36 -33 67 -70z m494
-521 c12 -16 22 -34 22 -40 0 -6 -6 -2 -12 9 -6 11 -36 49 -66 85 -47 55 -48
58 -11 20 25 -25 55 -58 67 -74z m-1801 98 c-3 -3 -12 -4 -19 -1 -8 3 -5 6 6
6 11 1 17 -2 13 -5z m1736 -63 c37 -38 67 -75 67 -83 0 -17 -37 -86 -56 -105
-8 -8 -14 -19 -14 -24 0 -39 -123 50 -156 113 -14 26 -12 31 31 98 25 38 49
70 53 70 5 0 39 -31 75 -69z m-1774 33 c2 -2 -10 -4 -27 -4 -18 0 -32 5 -32
10 0 9 47 4 59 -6z m-12 -40 c-3 -3 -12 -4 -19 -1 -8 3 -5 6 6 6 11 1 17 -2
13 -5z m23 -42 c0 -2 -7 -10 -15 -18 -9 -9 -15 -11 -15 -4 0 6 -7 10 -16 8
-10 -2 -19 2 -21 8 -2 6 12 10 32 10 19 0 35 -2 35 -4z m-80 -42 c0 -5 -2 -10
-4 -10 -3 0 -8 5 -11 10 -3 6 -1 10 4 10 6 0 11 -4 11 -10z m171 -23 c-8 -8
-11 -7 -11 4 0 20 13 34 18 19 3 -7 -1 -17 -7 -23z m-141 2 c0 -5 -4 -9 -10
-9 -5 0 -10 7 -10 16 0 8 5 12 10 9 6 -3 10 -10 10 -16z m218 -28 c22 -19 32
-48 12 -36 -6 4 -27 8 -46 9 -30 3 -34 1 -29 -15 4 -11 2 -19 -4 -19 -6 0 -11
8 -11 18 0 10 -6 24 -12 31 -13 14 -10 14 39 -6 12 -5 15 -2 10 9 -12 31 8 35
41 9z m214 -65 c3 -16 1 -23 -7 -19 -7 2 -11 13 -8 24 7 25 10 24 15 -5z m18
-180 c0 -2 -7 -6 -15 -10 -8 -3 -15 -1 -15 4 0 6 7 10 15 10 8 0 15 -2 15 -4z
m1842 -78 c42 -39 65 -55 62 -43 -5 16 -4 18 7 8 10 -11 9 -21 -11 -55 -65
-119 -71 -124 -118 -87 -58 44 -112 102 -112 118 0 9 16 44 37 78 42 72 38 73
135 -19z m8 27 c19 -19 32 -35 29 -35 -3 0 -20 16 -39 35 -19 19 -32 35 -29
35 3 0 20 -16 39 -35z m-1875 -95 c3 -5 -1 -10 -10 -10 -9 0 -13 5 -10 10 3 6
8 10 10 10 2 0 7 -4 10 -10z m5 -29 c0 -12 -29 -47 -30 -34 0 6 -2 18 -5 25
-4 9 2 14 15 15 11 1 20 -2 20 -6z m25 -10 c3 -5 1 -12 -5 -16 -5 -3 -10 1
-10 9 0 18 6 21 15 7z m-338 -17 c-3 -3 -12 -4 -19 -1 -8 3 -5 6 6 6 11 1 17
-2 13 -5z m43 -34 c0 -5 -2 -10 -4 -10 -3 0 -8 5 -11 10 -3 6 -1 10 4 10 6 0
11 -4 11 -10z m308 -21 c3 -12 2 -12 -7 1 -14 21 -23 7 -13 -20 l9 -23 16 23
c23 33 49 22 135 -56 39 -36 72 -61 72 -55 0 10 -45 55 -115 115 -16 14 -27
26 -23 26 17 0 148 -122 148 -139 0 -18 -61 -125 -85 -150 -19 -20 -49 -5
-131 62 -71 58 -78 80 -44 132 20 30 18 63 -4 78 -8 5 -6 10 4 17 19 12 33 8
38 -11z m2316 -224 c36 -27 69 -60 72 -72 8 -30 -37 -117 -62 -121 -27 -3
-158 98 -162 125 -3 20 27 91 50 120 12 15 15 13 102 -52z m84 -46 c3 -8 -3
-5 -14 6 -10 11 -28 29 -39 40 -11 10 -4 8 14 -6 19 -14 37 -32 39 -40z
m-1748 -175 c25 -19 58 -42 73 -52 42 -26 45 -57 12 -120 -50 -95 -59 -97
-149 -34 -73 50 -96 73 -96 95 0 26 62 127 78 127 14 0 110 -67 155 -108 15
-15 27 -20 27 -13 0 14 -16 29 -104 96 -33 25 -55 45 -50 44 5 0 29 -16 54
-35z m2191 -145 c101 -60 104 -65 78 -127 -16 -38 -27 -52 -42 -52 -33 0 -167
82 -173 106 -3 12 4 45 17 73 25 59 22 59 120 0z m92 -38 c13 -14 1 -8 -28 14
-63 47 -69 53 -27 29 18 -10 43 -30 55 -43z m442 -231 c17 -7 24 -7 20 0 -3 6
1 10 9 10 18 0 20 -8 7 -29 -8 -12 -15 -11 -43 7 -36 24 -34 28 7 12z m-2044
-147 c-12 -20 -14 -14 -5 12 4 9 9 14 11 11 3 -2 0 -13 -6 -23z m26 -5 c-3 -8
-6 -5 -6 6 -1 11 2 17 5 13 3 -3 4 -12 1 -19z m783 -123 c0 -13 -48 -26 -55
-15 -3 4 -2 15 1 23 6 17 54 10 54 -8z m2014 -300 c-6 -16 -24 -21 -24 -7 0
11 11 22 21 22 5 0 6 -7 3 -15z m86 5 c0 -5 -4 -10 -9 -10 -6 0 -13 5 -16 10
-3 6 1 10 9 10 9 0 16 -4 16 -10z m-125 -10 c3 -5 2 -10 -4 -10 -5 0 -12 -8
-14 -17 -3 -11 -5 -7 -6 10 -1 27 12 36 24 17z m70 -30 c-10 -11 -21 -17 -25
-15 -4 3 -11 -2 -14 -11 -3 -8 -10 -12 -16 -9 -17 10 -11 20 21 34 17 7 33 20
37 29 4 11 7 12 10 3 2 -6 -4 -21 -13 -31z m-225 5 c0 -8 -7 -15 -15 -15 -26
0 -18 20 13 29 1 1 2 -6 2 -14z m133 -75 c-14 -15 -63 -23 -63 -11 0 6 12 11
26 11 18 0 28 7 32 23 5 19 7 20 10 3 2 -10 0 -22 -5 -26z m-48 20 c-3 -5 -13
-10 -21 -10 -8 0 -14 5 -14 10 0 6 9 10 21 10 11 0 17 -4 14 -10z m-48 -42
c-3 -8 -6 -5 -6 6 -1 11 2 17 5 13 3 -3 4 -12 1 -19z m-7 -21 c9 -3 5 -6 -10
-6 -15 -1 -32 -7 -39 -13 -10 -11 -12 -9 -9 7 3 21 29 38 38 25 3 -4 12 -10
20 -13z m-193 -39 c-3 -8 -6 -5 -6 6 -1 11 2 17 5 13 3 -3 4 -12 1 -19z m58 2
c3 -5 1 -10 -4 -10 -6 0 -11 5 -11 10 0 6 2 10 4 10 3 0 8 -4 11 -10z m-318
-36 c-3 -3 -12 -4 -19 -1 -8 3 -5 6 6 6 11 1 17 -2 13 -5z"/>
<path d="M32 3159 c1 -20 4 -26 9 -17 12 18 11 48 0 48 -5 0 -9 -14 -9 -31z"/>
<path d="M0 3155 c1 -26 2 -28 11 -12 8 14 8 22 0 30 -8 8 -11 3 -11 -18z"/>
<path d="M296 3001 c-4 -5 -2 -20 3 -33 9 -21 10 -21 10 10 1 32 -3 39 -13 23z"/>
<path d="M372 2918 c-14 -14 -16 -28 -3 -28 9 0 24 30 18 36 -2 2 -9 -2 -15
-8z"/>
<path d="M78 2823 c7 -3 16 -2 19 1 4 3 -2 6 -13 5 -11 0 -14 -3 -6 -6z"/>
<path d="M84 2788 c2 -7 10 -12 19 -10 12 2 15 -2 10 -15 -6 -16 -4 -16 18 2
13 11 26 21 27 22 2 1 -12 0 -32 -1 -19 -2 -37 1 -40 6 -2 5 -3 3 -2 -4z"/>
<path d="M311 2773 c-12 -13 -12 -16 0 -24 18 -11 33 5 23 24 -8 13 -11 13
-23 0z"/>
<path d="M365 2750 c3 -5 8 -10 11 -10 2 0 4 5 4 10 0 6 -5 10 -11 10 -5 0 -7
-4 -4 -10z"/>
<path d="M4053 1679 c-8 -31 -7 -38 6 -41 28 -8 121 -9 121 -3 0 15 -69 73
-92 77 -22 4 -26 0 -35 -33z"/>
<path d="M1815 1620 c3 -5 8 -10 11 -10 2 0 4 5 4 10 0 6 -5 10 -11 10 -5 0
-7 -4 -4 -10z"/>
<path d="M1796 1595 c4 -8 8 -15 10 -15 2 0 4 7 4 15 0 8 -4 15 -10 15 -5 0
-7 -7 -4 -15z"/>
<path d="M1841 1601 c-8 -6 -9 -11 -3 -15 6 -3 14 -1 17 5 9 14 2 20 -14 10z"/>
<path d="M4545 1520 c107 -43 114 -45 100 -31 -14 14 -163 71 -183 71 -9 0 28
-18 83 -40z"/>
<path d="M2277 1543 c-2 -5 43 -31 100 -59 126 -61 132 -47 8 18 -95 50 -102
52 -108 41z"/>
<path d="M4560 1386 c0 -2 7 -7 16 -10 8 -3 12 -2 9 4 -6 10 -25 14 -25 6z"/>
<path d="M7228 1383 c7 -3 16 -2 19 1 4 3 -2 6 -13 5 -11 0 -14 -3 -6 -6z"/>
<path d="M7265 1380 c-3 -5 -1 -10 4 -10 6 0 11 5 11 10 0 6 -2 10 -4 10 -3 0
-8 -4 -11 -10z"/>
<path d="M5115 1334 c28 -7 55 -13 60 -13 17 2 -69 27 -90 27 -11 0 3 -6 30
-14z"/>
<path d="M5205 1310 c11 -5 27 -9 35 -9 9 0 8 4 -5 9 -11 5 -27 9 -35 9 -9 0
-8 -4 5 -9z"/>
<path d="M7168 1291 c-16 -10 -25 -21 -21 -24 11 -12 25 -8 17 5 -5 7 -1 9 12
6 14 -4 20 0 21 13 1 11 1 19 0 18 -1 0 -14 -8 -29 -18z"/>
<path d="M7110 1290 c0 -5 5 -10 11 -10 5 0 7 5 4 10 -3 6 -8 10 -11 10 -2 0
-4 -4 -4 -10z"/>
<path d="M7210 1280 c0 -5 5 -10 11 -10 5 0 7 5 4 10 -3 6 -8 10 -11 10 -2 0
-4 -4 -4 -10z"/>
<path d="M2895 1250 c-3 -5 2 -10 12 -10 10 0 58 -16 107 -35 98 -38 105 -40
89 -24 -13 13 -171 79 -189 79 -7 0 -16 -4 -19 -10z"/>
<path d="M4862 1189 c2 -7 10 -15 17 -17 8 -3 12 1 9 9 -2 7 -10 15 -17 17 -8
3 -12 -1 -9 -9z"/>
<path d="M4740 1171 c-13 -25 -13 -31 0 -31 6 0 10 7 10 15 0 8 5 15 10 15 6
0 10 5 10 10 0 17 -19 11 -30 -9z"/>
<path d="M4770 1150 c0 -5 5 -10 11 -10 5 0 7 5 4 10 -3 6 -8 10 -11 10 -2 0
-4 -4 -4 -10z"/>
<path d="M4693 1125 c-18 -20 -16 -23 11 -18 16 3 23 10 19 19 -6 17 -15 17
-30 -1z"/>
<path d="M7000 1130 c0 -5 28 -9 63 -8 42 0 55 3 42 9 -29 11 -105 11 -105 -1z"/>
<path d="M4742 1090 c0 -14 2 -19 5 -12 2 6 2 18 0 25 -3 6 -5 1 -5 -13z"/>
<path d="M7006 1098 c2 -3 -4 -9 -13 -11 -15 -4 -15 -5 2 -5 11 -1 34 5 50 12
l30 13 -37 -1 c-20 -1 -34 -4 -32 -8z"/>
<path d="M4600 1080 c0 -5 9 -10 21 -10 11 0 17 5 14 10 -3 6 -13 10 -21 10
-8 0 -14 -4 -14 -10z"/>
<path d="M4654 1075 c2 -5 10 -8 17 -6 8 1 24 4 36 5 41 2 24 15 -17 13 -23
-1 -39 -6 -36 -12z"/>
<path d="M6938 1073 c6 -2 18 -2 25 0 6 3 1 5 -13 5 -14 0 -19 -2 -12 -5z"/>
<path d="M4568 1063 c7 -3 16 -2 19 1 4 3 -2 6 -13 5 -11 0 -14 -3 -6 -6z"/>
<path d="M4690 1039 c0 -18 2 -19 15 -5 8 8 15 17 15 20 0 3 -7 6 -15 6 -9 0
-15 -9 -15 -21z"/>
<path d="M4740 1048 c0 -9 -6 -19 -12 -21 -10 -4 -10 -6 0 -6 14 -1 28 26 18
36 -3 4 -6 -1 -6 -9z"/>
<path d="M4582 1032 c-16 -14 -18 -22 -10 -30 7 -7 19 -12 27 -12 11 0 11 3
-4 13 -17 13 -17 14 6 20 14 4 26 1 31 -6 5 -8 8 -4 8 11 0 28 -28 30 -58 4z"/>
<path d="M3546 1032 c-2 -4 37 -18 87 -31 51 -13 100 -28 111 -33 14 -8 17 -7
14 3 -2 7 -47 26 -99 41 -106 31 -106 31 -113 20z"/>
<path d="M5628 1003 c7 -3 16 -2 19 1 4 3 -2 6 -13 5 -11 0 -14 -3 -6 -6z"/>
<path d="M5665 1000 c-3 -5 1 -10 10 -10 9 0 13 5 10 10 -3 6 -8 10 -10 10 -2
0 -7 -4 -10 -10z"/>
<path d="M4653 993 c9 -2 23 -2 30 0 6 3 -1 5 -18 5 -16 0 -22 -2 -12 -5z"/>
<path d="M5728 993 c7 -3 16 -2 19 1 4 3 -2 6 -13 5 -11 0 -14 -3 -6 -6z"/>
<path d="M4320 958 c0 -4 11 -8 25 -8 14 0 25 4 25 10 0 5 -11 9 -25 8 -14 -1
-25 -6 -25 -10z"/>
<path d="M6635 930 c4 -6 11 -8 16 -5 14 9 11 15 -7 15 -8 0 -12 -5 -9 -10z"/>
<path d="M6568 913 c7 -3 16 -2 19 1 4 3 -2 6 -13 5 -11 0 -14 -3 -6 -6z"/>
<path d="M6458 883 c7 -3 16 -2 19 1 4 3 -2 6 -13 5 -11 0 -14 -3 -6 -6z"/>
<path d="M4205 870 c-4 -6 9 -10 32 -10 21 0 72 -6 113 -14 70 -14 91 -14 78
0 -5 5 -177 33 -205 34 -6 0 -15 -4 -18 -10z"/>
<path d="M6245 860 c-8 -13 15 -13 35 0 12 8 11 10 -7 10 -12 0 -25 -4 -28
-10z"/>
<path d="M4886 792 c-4 -7 33 -12 106 -14 110 -3 126 -2 117 6 -11 10 -217 17
-223 8z"/>
<path d="M5615 793 c-22 -3 -44 -9 -50 -15 -7 -8 -5 -9 8 -4 10 3 45 6 78 6
32 0 59 4 59 8 0 9 -36 11 -95 5z"/>
<path d="M5753 793 c9 -2 23 -2 30 0 6 3 -1 5 -18 5 -16 0 -22 -2 -12 -5z"/>
<path d="M5848 763 c6 -2 18 -2 25 0 6 3 1 5 -13 5 -14 0 -19 -2 -12 -5z"/>
<path d="M4238 743 c12 -2 30 -2 40 0 9 3 -1 5 -23 4 -22 0 -30 -2 -17 -4z"/>
<path d="M4360 729 c72 -13 278 -27 407 -27 l118 0 -145 9 c-80 5 -195 13
-256 19 -133 12 -191 12 -124 -1z"/>
<path d="M5478 723 c6 -2 18 -2 25 0 6 3 1 5 -13 5 -14 0 -19 -2 -12 -5z"/>
<path d="M5363 713 c15 -2 39 -2 55 0 15 2 2 4 -28 4 -30 0 -43 -2 -27 -4z"/>
<path d="M5108 703 c17 -2 47 -2 65 0 17 2 3 4 -33 4 -36 0 -50 -2 -32 -4z"/>
<path d="M5233 703 c9 -2 23 -2 30 0 6 3 -1 5 -18 5 -16 0 -22 -2 -12 -5z"/>
<path d="M6710 651 c0 -6 4 -13 10 -16 6 -3 7 1 4 9 -7 18 -14 21 -14 7z"/>
<path d="M6530 402 c0 -12 19 -26 26 -19 2 2 -2 10 -11 17 -9 8 -15 8 -15 2z"/>
</g>
</svg>
