<?xml version="1.0" standalone="no"?>
<!DOCTYPE svg PUBLIC "-//W3C//DTD SVG 20010904//EN"
 "http://www.w3.org/TR/2001/REC-SVG-20010904/DTD/svg10.dtd">
<svg version="1.0" xmlns="http://www.w3.org/2000/svg"
 width="640.000000pt" height="472.000000pt" viewBox="0 0 640.000000 472.000000"
 preserveAspectRatio="xMidYMid meet">
<metadata>
Created by potrace 1.15, written by Peter Selinger 2001-2017
</metadata>
<g transform="translate(0.000000,472.000000) scale(0.100000,-0.100000)"
fill="#000000" stroke="none">
<path d="M4721 4686 c-33 -34 -42 -57 -13 -35 9 7 6 1 -7 -14 -27 -30 -41 -37
-20 -9 7 9 1 6 -14 -7 -27 -25 -37 -48 -14 -35 6 4 1 -5 -12 -19 -30 -33 -42
-36 -15 -4 10 12 4 9 -14 -7 -33 -31 -45 -59 -14 -35 9 7 6 1 -7 -14 -27 -30
-41 -37 -20 -9 7 9 1 6 -14 -7 -30 -27 -38 -52 -9 -30 9 7 6 1 -7 -14 -27 -30
-41 -37 -20 -9 7 9 -1 4 -19 -12 -33 -31 -45 -58 -14 -35 9 7 6 1 -7 -14 -27
-30 -41 -37 -20 -9 7 9 1 6 -14 -7 -30 -27 -38 -52 -9 -30 9 7 6 1 -7 -14 -27
-30 -41 -37 -20 -9 7 9 1 6 -14 -7 -30 -27 -38 -52 -9 -30 9 7 6 1 -7 -14 -27
-30 -41 -37 -20 -9 7 9 1 6 -14 -7 -30 -27 -38 -52 -9 -30 9 7 6 1 -7 -14 -27
-30 -41 -37 -20 -9 7 9 1 6 -14 -7 -30 -27 -38 -52 -9 -30 9 7 6 1 -7 -14 -27
-30 -41 -37 -20 -9 7 9 1 6 -14 -7 -30 -27 -38 -52 -9 -30 9 7 6 1 -7 -14 -27
-30 -41 -37 -20 -9 7 9 1 6 -14 -7 -27 -25 -37 -48 -14 -35 6 4 3 -2 -7 -14
-23 -26 -34 -29 -15 -4 7 9 1 6 -14 -7 -27 -25 -37 -48 -14 -35 6 4 3 -2 -7
-14 -23 -26 -34 -29 -15 -4 7 9 1 6 -14 -7 -30 -27 -38 -52 -9 -30 9 7 6 1 -7
-14 -27 -30 -41 -37 -20 -9 7 9 1 6 -14 -7 -30 -27 -38 -52 -9 -30 9 7 6 1 -7
-14 -27 -30 -41 -37 -20 -9 7 9 1 6 -14 -7 -30 -27 -38 -52 -9 -30 9 7 6 1 -7
-14 -27 -30 -40 -36 -21 -9 7 9 -8 -5 -33 -33 -45 -49 -60 -74 -34 -59 6 4 3
-2 -7 -14 -23 -26 -34 -29 -15 -4 7 9 1 6 -14 -7 -30 -27 -38 -52 -9 -30 9 7
6 1 -7 -14 -27 -30 -41 -37 -20 -9 7 9 1 6 -14 -7 -30 -27 -38 -52 -9 -30 9 7
6 1 -7 -14 -27 -30 -41 -37 -20 -9 11 14 10 13 -9 -2 -23 -20 -31 -42 -9 -30
6 4 3 -2 -7 -14 -23 -26 -34 -29 -15 -4 7 9 1 6 -14 -7 -30 -27 -38 -52 -9
-30 9 7 6 1 -7 -14 -27 -30 -41 -37 -20 -9 7 9 1 6 -14 -7 -30 -27 -38 -52 -9
-30 14 11 13 9 -2 -9 -11 -12 -21 -20 -24 -17 -7 6 -32 -15 -32 -27 0 -5 6 -6
13 -2 6 4 3 -2 -7 -14 -23 -26 -34 -29 -15 -4 7 9 1 6 -14 -7 -30 -27 -38 -52
-9 -30 9 7 6 1 -7 -14 -27 -30 -41 -37 -20 -9 11 14 10 13 -9 -2 -23 -20 -31
-42 -9 -30 6 4 3 -2 -7 -14 -23 -26 -34 -29 -15 -4 7 9 1 6 -14 -7 -30 -27
-38 -52 -9 -30 9 7 6 1 -7 -14 -27 -30 -41 -37 -20 -9 11 14 10 13 -9 -2 -23
-20 -31 -42 -9 -30 6 4 3 -2 -7 -14 -23 -26 -34 -29 -15 -4 11 14 10 13 -9 -2
-23 -20 -31 -42 -9 -30 6 4 3 -2 -7 -14 -23 -26 -34 -29 -15 -4 7 9 1 6 -14
-7 -27 -25 -37 -48 -14 -35 6 4 3 -2 -7 -14 -23 -26 -34 -29 -15 -4 11 14 10
13 -9 -2 -23 -20 -31 -42 -9 -30 6 4 3 -2 -7 -14 -23 -26 -34 -29 -15 -4 11
14 10 13 -9 -2 -23 -20 -31 -42 -9 -30 6 4 3 -2 -7 -14 -23 -26 -34 -29 -15
-4 7 9 1 6 -14 -7 -27 -25 -37 -48 -14 -35 6 4 3 -2 -7 -14 -23 -26 -34 -29
-15 -4 11 14 10 13 -9 -2 -23 -20 -31 -42 -9 -30 6 4 3 -2 -7 -14 -23 -26 -34
-29 -15 -4 11 14 10 13 -9 -2 -23 -20 -31 -42 -9 -30 6 4 3 -2 -7 -14 -23 -26
-34 -29 -15 -4 7 9 1 6 -14 -7 -30 -27 -38 -52 -9 -30 14 11 13 9 -2 -9 -11
-12 -21 -20 -24 -17 -7 6 -32 -15 -32 -27 0 -5 6 -6 13 -2 6 4 3 -2 -7 -14
-23 -26 -34 -29 -15 -4 11 14 10 13 -9 -2 -23 -20 -31 -42 -9 -30 6 4 3 -2 -7
-14 -23 -26 -34 -29 -15 -4 7 9 1 6 -14 -7 -30 -27 -38 -52 -9 -30 14 11 13
10 -2 -9 -21 -24 -31 -29 -20 -9 4 6 -2 3 -14 -7 -26 -23 -30 -44 -4 -25 14
11 13 10 -2 -9 -21 -24 -31 -29 -20 -9 4 6 -2 3 -14 -7 -26 -23 -30 -44 -4
-25 14 11 13 9 -2 -9 -11 -12 -21 -20 -24 -17 -7 6 -32 -15 -32 -27 0 -5 6 -6
13 -2 6 4 3 -2 -7 -14 -23 -26 -34 -29 -15 -4 11 14 10 13 -9 -2 -23 -20 -31
-42 -9 -30 6 4 3 -2 -7 -14 -23 -26 -34 -29 -15 -4 11 14 10 13 -9 -2 -23 -20
-31 -42 -9 -30 6 4 3 -2 -7 -14 -23 -26 -34 -29 -15 -4 11 14 10 13 -9 -2 -23
-20 -31 -42 -9 -30 6 4 3 -2 -7 -14 -23 -26 -34 -29 -15 -4 7 9 1 6 -14 -7
-30 -27 -38 -52 -9 -30 14 11 13 10 -2 -9 -21 -24 -31 -29 -20 -9 4 6 -2 3
-14 -7 -26 -23 -30 -44 -4 -25 14 11 13 9 -2 -9 -11 -12 -21 -20 -24 -17 -7 6
-32 -15 -32 -27 0 -5 6 -6 13 -2 6 4 3 -2 -7 -14 -23 -26 -34 -29 -15 -4 11
14 10 13 -9 -2 -23 -20 -31 -42 -9 -30 6 4 3 -2 -7 -14 -23 -26 -34 -29 -15
-4 7 9 1 6 -14 -7 -30 -27 -38 -52 -9 -30 14 11 13 10 -2 -9 -21 -24 -31 -29
-20 -9 4 6 -2 3 -14 -7 -26 -23 -30 -44 -4 -25 14 11 13 10 -2 -9 -21 -24 -31
-29 -20 -9 4 6 -2 3 -14 -7 -26 -23 -30 -44 -4 -25 14 11 13 9 -2 -9 -11 -12
-21 -20 -24 -17 -7 6 -32 -15 -32 -27 0 -5 6 -6 13 -2 6 4 3 -2 -7 -14 -23
-26 -34 -29 -15 -4 7 9 1 6 -14 -7 -30 -27 -38 -52 -9 -30 14 11 13 10 -2 -9
-21 -24 -31 -29 -20 -9 4 6 -2 3 -14 -7 -26 -23 -30 -44 -4 -25 9 7 6 1 -7
-14 -27 -30 -41 -37 -20 -9 11 14 10 13 -9 -2 -23 -20 -31 -42 -9 -30 6 4 3
-2 -7 -14 -23 -26 -34 -29 -15 -4 7 9 1 6 -14 -7 -27 -25 -37 -48 -14 -35 6 4
3 -2 -7 -14 -23 -26 -34 -29 -15 -5 7 10 1 7 -14 -6 -30 -27 -38 -52 -9 -30 9
7 6 1 -7 -14 -25 -28 -43 -38 -21 -12 7 8 10 15 8 15 -3 0 -50 -53 -106 -117
-114 -135 -214 -233 -235 -233 -9 0 -32 19 -52 43 -20 23 -33 35 -29 27 7 -13
5 -13 -9 -1 -19 15 -23 26 -6 15 7 -4 10 -1 7 7 -3 8 -10 14 -15 14 -6 0 -15
4 -20 9 -5 5 -2 6 6 1 9 -5 12 -3 9 6 -3 8 -10 14 -15 14 -6 0 -15 4 -20 9 -5
5 -2 6 6 1 9 -5 12 -3 9 6 -3 8 -10 14 -15 14 -6 0 -15 4 -20 9 -5 5 -2 6 6 1
9 -5 12 -3 9 6 -3 8 -10 14 -15 14 -6 0 -15 4 -20 9 -5 5 -2 6 6 1 9 -5 12 -3
9 6 -3 8 -10 14 -16 14 -5 0 -14 4 -19 9 -5 5 -3 6 5 2 15 -9 15 -1 1 25 -5
11 -14 17 -19 14 -5 -3 -12 0 -16 6 -5 8 -3 9 6 4 8 -5 11 -3 8 6 -3 8 -10 14
-15 14 -6 0 -15 4 -20 9 -5 5 -3 6 5 2 15 -9 15 -1 1 25 -5 11 -14 17 -19 14
-5 -3 -12 0 -16 6 -4 8 -3 9 4 5 15 -9 15 -1 1 25 -5 11 -14 17 -19 14 -5 -3
-12 0 -16 6 -4 8 -3 9 4 5 18 -11 15 0 -19 59 -17 30 -35 53 -39 50 -5 -3 -12
0 -16 6 -4 8 -3 9 4 5 15 -9 15 -1 1 25 -5 11 -15 16 -21 13 -7 -4 -8 -3 -4 4
9 14 -222 424 -234 417 -5 -3 -12 0 -16 6 -4 8 -3 9 4 5 15 -9 15 -1 1 25 -5
11 -15 16 -21 13 -7 -4 -8 -3 -4 5 10 15 -52 123 -66 115 -7 -4 -8 -2 -4 4 10
16 -12 54 -26 46 -7 -4 -8 -3 -4 4 9 14 -12 55 -24 47 -5 -3 -12 0 -16 6 -4 8
-3 9 4 5 15 -9 15 -1 1 25 -5 11 -14 17 -19 14 -5 -3 -12 0 -16 6 -5 8 -3 9 6
4 8 -5 11 -3 8 6 -3 8 -10 14 -15 14 -6 0 -15 4 -20 9 -5 5 -3 6 5 2 18 -11
15 9 -5 25 -11 10 -14 10 -9 2 11 -19 1 -16 -15 4 -10 11 -10 14 -2 9 22 -13
14 10 -12 34 -23 22 -27 22 -67 11 -24 -8 -63 -24 -88 -38 -51 -28 -41 -25 45
11 71 30 88 32 106 9 13 -16 12 -17 -4 -4 -15 12 -25 12 -60 1 -55 -16 -204
-91 -292 -147 -38 -24 -56 -32 -40 -18 17 13 67 46 113 71 87 49 111 69 39 33
-141 -72 -309 -201 -492 -381 -117 -113 -141 -142 -143 -169 -1 -17 3 -38 10
-47 11 -13 11 -14 -1 -8 -9 6 -12 4 -9 -5 3 -8 10 -14 16 -14 5 0 14 -4 19 -9
5 -5 3 -6 -4 -2 -19 11 -16 -9 4 -25 11 -10 14 -10 9 -2 -11 19 -1 16 15 -4
12 -14 12 -16 0 -9 -9 6 -12 4 -9 -5 3 -8 10 -14 16 -14 5 0 14 -4 19 -9 5 -5
3 -6 -4 -2 -19 11 -16 -9 4 -25 11 -10 14 -10 9 -1 -11 18 -1 15 15 -5 12 -14
12 -16 0 -9 -9 6 -12 5 -9 -5 3 -8 10 -13 16 -12 5 1 16 -5 24 -15 12 -15 11
-16 -4 -3 -11 8 -18 9 -18 3 0 -11 19 -27 32 -27 3 0 10 -4 15 -9 5 -5 3 -6
-5 -2 -18 11 -15 -9 5 -25 11 -10 14 -10 9 -2 -11 19 -1 16 15 -4 10 -11 10
-14 2 -9 -19 11 -16 -9 4 -25 11 -10 14 -10 9 -2 -11 19 -1 16 15 -4 10 -11
10 -14 2 -9 -19 11 -16 -9 4 -25 11 -10 14 -10 9 -1 -11 18 -1 15 15 -5 10
-11 10 -14 1 -9 -18 11 -15 -9 5 -25 11 -10 14 -10 9 -1 -11 18 -1 15 15 -5
10 -11 10 -14 2 -9 -19 11 -16 -9 4 -25 11 -10 14 -10 9 -1 -11 18 -1 15 15
-5 10 -11 10 -14 2 -9 -19 11 -16 -9 4 -25 11 -10 14 -10 9 -1 -11 18 -1 15
15 -5 10 -11 10 -14 2 -9 -19 11 -16 -9 4 -25 15 -12 16 -12 8 1 -5 9 0 8 13
-4 25 -21 31 -36 7 -16 -8 7 -15 8 -15 2 0 -12 25 -34 32 -27 3 3 11 -3 19
-12 13 -16 12 -17 -3 -4 -26 20 -22 -2 4 -25 12 -10 18 -13 14 -6 -10 18 -1
15 15 -5 10 -11 10 -14 2 -9 -19 11 -16 -9 4 -25 11 -10 14 -10 9 -1 -11 18
-1 15 15 -5 10 -11 10 -14 2 -9 -19 11 -16 -9 4 -25 15 -12 16 -12 8 1 -5 9 0
8 13 -4 25 -21 31 -36 7 -16 -24 20 -17 -5 7 -26 12 -10 18 -13 14 -6 -10 18
-1 15 15 -5 10 -11 10 -14 2 -9 -19 11 -16 -9 4 -25 11 -10 14 -10 9 -1 -11
18 -1 15 15 -5 10 -11 10 -14 2 -9 -7 4 -13 3 -13 -2 0 -12 25 -33 32 -27 3 3
11 -2 19 -12 9 -11 10 -14 2 -9 -19 11 -16 -9 4 -25 11 -10 14 -10 9 -2 -11
19 -1 16 15 -4 10 -11 10 -14 2 -9 -7 4 -13 3 -13 -2 0 -12 25 -33 32 -27 3 3
11 -2 19 -12 9 -11 10 -14 2 -9 -19 11 -16 -9 4 -25 15 -12 16 -12 8 1 -5 9 0
8 13 -4 25 -21 31 -36 7 -16 -24 20 -17 -5 7 -26 13 -12 18 -13 13 -4 -8 13
-7 13 8 1 18 -15 23 -26 7 -16 -5 3 -10 2 -10 -3 0 -12 25 -33 32 -27 3 3 11
-2 19 -12 9 -11 10 -14 2 -9 -22 12 -14 -10 9 -30 22 -19 23 -19 8 1 -15 20
-14 20 8 1 23 -20 30 -32 12 -21 -19 12 -10 -12 12 -31 22 -19 23 -19 8 1 -15
20 -14 20 8 1 23 -20 30 -32 12 -21 -19 12 -10 -12 12 -31 22 -19 23 -19 8 1
-15 20 -14 20 8 1 23 -20 30 -32 12 -21 -19 12 -10 -12 12 -31 22 -19 23 -19
8 1 -15 20 -14 20 8 1 23 -20 30 -32 12 -21 -19 12 -10 -12 12 -31 22 -19 23
-19 8 1 -15 20 -14 20 8 1 23 -20 30 -32 12 -21 -5 3 -10 2 -10 -3 0 -12 25
-33 32 -27 3 3 13 -5 24 -17 15 -18 16 -20 2 -9 -29 22 -21 -3 9 -30 20 -18
24 -19 13 -4 -15 20 -14 20 8 1 23 -20 30 -32 12 -21 -6 3 -10 2 -10 -3 0 -12
25 -33 32 -27 3 3 13 -5 24 -17 15 -18 16 -20 1 -9 -30 24 -18 -4 15 -35 27
-24 29 -25 13 -4 l-20 25 28 -24 c27 -24 36 -38 17 -26 -21 13 -9 -13 17 -36
21 -18 24 -19 13 -4 -11 15 -8 14 13 -4 28 -25 38 -43 12 -21 -62 51 79 -114
193 -228 29 -29 83 -68 120 -86 l67 -34 185 0 c181 1 187 1 260 30 49 19 90
44 118 71 41 41 59 72 25 46 -15 -11 -14 -10 1 9 21 24 31 29 20 10 -4 -7 2
-4 14 6 26 23 30 44 4 25 -14 -11 -13 -10 2 9 21 24 31 29 20 10 -4 -7 2 -4
14 6 26 23 30 44 5 25 -15 -11 -14 -10 1 9 21 24 32 29 20 10 -5 -9 -2 -9 9 1
18 14 24 36 7 26 -16 -10 -11 1 7 16 15 12 16 12 8 -1 -5 -9 0 -8 13 4 26 23
30 44 5 25 -15 -11 -14 -10 1 9 21 24 31 29 20 9 -4 -6 2 -3 14 7 26 23 30 44
5 25 -15 -11 -14 -10 1 9 21 24 32 29 20 10 -5 -9 -2 -9 9 1 18 14 24 36 7 26
-16 -10 -11 1 7 16 15 12 16 12 8 -1 -5 -9 0 -8 13 4 26 23 30 44 5 25 -15
-11 -14 -10 1 9 21 24 31 29 20 10 -4 -7 2 -4 14 6 26 23 30 44 5 25 -15 -11
-14 -10 1 9 21 24 31 29 20 10 -4 -7 2 -4 14 6 26 23 30 44 4 25 -14 -11 -13
-10 2 9 21 24 31 29 20 10 -4 -7 2 -4 14 6 26 23 30 44 5 25 -15 -11 -14 -10
1 9 21 24 31 29 20 10 -4 -7 2 -4 14 6 26 23 30 44 5 25 -15 -11 -14 -10 1 9
21 24 31 29 20 10 -4 -7 2 -4 14 6 26 23 30 44 5 25 -10 -7 -7 -1 6 14 27 30
41 37 20 10 -11 -15 -10 -14 9 1 23 20 31 42 10 30 -7 -4 -4 2 6 14 23 26 34
29 15 4 -7 -9 -1 -6 14 7 30 27 38 52 10 30 -10 -7 -7 -1 6 14 27 30 41 37 20
10 -32 -43 23 17 105 114 84 101 103 129 69 102 -10 -7 -7 -1 6 14 27 30 41
37 20 10 -7 -10 -1 -7 14 6 27 25 37 48 15 35 -7 -4 -2 5 11 19 28 31 41 36
20 9 -8 -10 12 9 43 42 55 58 72 85 46 70 -7 -4 0 7 16 24 17 18 32 32 35 32
2 0 -6 -11 -19 -25 -13 -14 -21 -25 -18 -25 3 0 70 73 149 163 839 949 1884
1949 2837 2711 39 32 72 61 72 63 0 3 -8 -1 -17 -8 -15 -11 -14 -10 1 9 20 23
32 30 21 12 -14 -22 10 -7 98 64 54 44 93 83 94 94 1 18 -9 20 -129 26 -427
23 -981 124 -1321 242 -171 59 -187 61 -226 20z"/>
</g>
</svg>
