<svg id="Capa_1" enable-background="new 0 0 512 512" height="512" viewBox="0 0 512 512" width="512" xmlns="http://www.w3.org/2000/svg"><g id="XMLID_2437_"><path id="XMLID_2438_" d="m487.472 117.521-224.696-113.772c-4.26-2.157-9.293-2.157-13.553 0l-224.695 113.772c-4.619 2.561-8.224 7.637-8.224 13.382v40c0 8.284 6.716 15 15 15h3.153v29.914c0 8.284 6.716 15 15 15h6.72v116.235h-6.72c-8.284 0-15 6.716-15 15v29.93h-2.973c-8.284 0-15 6.716-15 15v28.643h-1.484c-8.284 0-15 6.716-15 15v44.244c0 8.284 6.716 15 15 15h482c8.284 0 15-6.716 15-15v-44.244c0-8.284-6.716-15-15-15h-1.485v-28.643c0-8.284-6.716-15-15-15h-2.973v-29.93c0-8.284-6.716-15-15-15h-6.72v-116.235h6.72c8.284 0 15-6.716 15-15v-29.914h3.153c8.284 0 15-6.716 15-15v-40c0-6.089-3.663-10.52-8.223-13.382zm-231.472-83.576 161.865 81.958h-323.73zm-206.542 121.958h-3.153v-10h419.391v10zm391.364 221.149h6.72v14.93h-62.976v-14.93h6.72c8.284 0 15-6.716 15-15v-146.235c0-8.284-6.716-15-15-15h-6.72v-14.914h62.976v14.914h-6.72c-8.284 0-15 6.716-15 15v146.235c0 8.285 6.716 15 15 15zm-138.335-30h-6.72v-116.235h6.72c8.284 0 15-6.716 15-15v-29.914h37.079v29.914c0 8.284 6.716 15 15 15h6.72v116.235h-6.72c-8.284 0-15 6.716-15 15v29.93h-37.079v-29.93c0-8.284-6.716-15-15-15zm-21.719 30h6.72v14.93h-62.975v-14.93h6.72c8.284 0 15-6.716 15-15v-146.235c0-8.284-6.716-15-15-15h-6.72v-14.914h62.975v14.914h-6.72c-8.284 0-15 6.716-15 15v146.235c0 8.285 6.715 15 15 15zm-138.334-30h-6.72v-116.235h6.72c8.284 0 15-6.716 15-15v-29.914h37.079v29.914c0 8.284 6.716 15 15 15h6.72v116.235h-6.72c-8.284 0-15 6.716-15 15v29.93h-37.079v-29.93c0-8.284-6.716-15-15-15zm-21.72 30h6.72v14.93h-62.976v-14.93h6.72c8.284 0 15-6.716 15-15v-146.235c0-8.284-6.716-15-15-15h-6.72v-14.914h62.976v14.914h-6.72c-8.284 0-15 6.716-15 15v146.235c0 8.285 6.716 15 15 15zm-74.229 44.931h419.029v13.643h-419.029zm435.515 57.886h-452v-14.244h452z"/></g></svg>