<svg xmlns="http://www.w3.org/2000/svg" xmlns:xlink="http://www.w3.org/1999/xlink" width="3000" height="626"><style><![CDATA[.K{fill-rule:nonzero}.L{fill:#fff}.M{fill:#0087F6}.N{fill:#00A3FF}.O{fill:#2696F2}.P{fill:#FEC395}.Q{mask:url(#V)}.R{stroke:#0087F6}.S{stroke-linecap:round}.T{fill:#4FB7FF}.U{stroke-linejoin:round}.V{stroke-linecap:square}]]></style><defs><linearGradient x1="45.4673798%" y1="1.64321346%" x2="45.4673798%" y2="97.9427158%" id="A"><stop stop-color="#fff" stop-opacity="0" offset="0%"/><stop stop-color="#EEF4FE" offset="37.5956443%"/><stop stop-color="#EEF4FE" stop-opacity="0" offset="100%"/></linearGradient><path d="M336.636 494.507c-165.344-12.053-272.914 65.03-323.613-33.586s62.62-147.725 67.96-217.24-71.914-75.39-44.587-130.773S101.22 81.38 146.783 56.454 202.2 0 242.788 0c65.514 0 98.12 46.164 153.854 46.164s151.082-42.982 206.435-8.647c36.902 22.9 36.902 79.582 0 170.076C623.692 222.838 634 238.678 634 255.114c0 24.654-13.377 23.215-30.923 89.683s41.648 119.713-34.16 156.856-66.938 4.907-232.282-7.146z" id="B"/><linearGradient x1="38.8671875%" y1="121.994318%" x2="38.8671875%" y2="4.63324653%" id="C"><stop stop-color="#B9E3F8" offset="0%"/><stop stop-color="#CCEDFF" offset="100%"/></linearGradient><path d="M2.315 30.138l99.196 97.563 32.83-31.185c7.848-7.455 8.167-19.86.712-27.71a19.6 19.6 0 0 0-.913-.9L62.165 1.435A4.51 4.51 0 0 0 59.362.246C43.343-.662 30.77.944 21.64 5.063 13.102 8.915 6.384 15.503 1.486 24.827a4.51 4.51 0 0 0 .83 5.311z" id="D"/><ellipse id="E" cx="1446.345" cy="264.568" rx="18.163" ry="18.168"/><filter x="-2.8%" y="-2.8%" width="105.5%" height="105.5%" id="F"><feGaussianBlur in="SourceGraphic"/></filter><filter x="-4.1%" y="-4.1%" width="108.3%" height="108.3%" id="G"><feOffset in="SourceAlpha"/><feGaussianBlur stdDeviation=".5"/><feColorMatrix values="0 0 0 0 0 0 0 0 0 0 0 0 0 0 0 0 0 0 0.151437953 0"/></filter><ellipse id="H" cx="23.187" cy="23.235" rx="23.187" ry="23.193"/><filter x="-2.2%" y="-2.2%" width="104.3%" height="104.3%" id="I"><feGaussianBlur in="SourceGraphic"/></filter><filter x="-3.2%" y="-3.2%" width="106.5%" height="106.5%" id="J"><feOffset in="SourceAlpha"/><feGaussianBlur stdDeviation=".5"/><feColorMatrix values="0 0 0 0 0 0 0 0 0 0 0 0 0 0 0 0 0 0 0.151437953 0"/></filter><ellipse id="K" cx="1438.755" cy="160.503" rx="25.763" ry="26.028"/><filter x="-1.9%" y="-1.9%" width="103.9%" height="103.8%" id="L"><feGaussianBlur in="SourceGraphic"/></filter><filter x="-2.9%" y="-2.9%" width="105.8%" height="105.8%" id="M"><feOffset in="SourceAlpha"/><feGaussianBlur stdDeviation=".5"/><feColorMatrix values="0 0 0 0 0 0 0 0 0 0 0 0 0 0 0 0 0 0 0.151437953 0"/></filter><ellipse id="N" cx="1489.205" cy="77.266" rx="17.261" ry="17.266"/><filter x="-2.9%" y="-2.9%" width="105.8%" height="105.8%" id="O"><feGaussianBlur in="SourceGraphic"/></filter><filter x="-4.3%" y="-4.3%" width="108.7%" height="108.7%" id="P"><feOffset in="SourceAlpha"/><feGaussianBlur stdDeviation=".5"/><feColorMatrix values="0 0 0 0 0 0 0 0 0 0 0 0 0 0 0 0 0 0 0.151437953 0"/></filter><circle id="Q" cx="23" cy="23" r="23"/><filter x="-3.3%" y="-3.3%" width="106.5%" height="106.5%" id="R"><feOffset in="SourceAlpha"/><feGaussianBlur stdDeviation=".5"/><feColorMatrix values="0 0 0 0 0 0 0 0 0 0 0 0 0 0 0 0 0 0 0.151437953 0"/></filter><path id="S" d="M306.72 178.37a4.2 4.2 0 0 1 4.118-4.269 4.19 4.19 0 0 1 4.265 4.122l.046 2.623a4.2 4.2 0 0 1-4.118 4.269 4.19 4.19 0 0 1-4.265-4.122l-.046-2.623z"/><path id="T" d="M351.63 177.584a4.2 4.2 0 0 1 4.118-4.269 4.19 4.19 0 0 1 4.265 4.122l.046 2.624a4.2 4.2 0 0 1-4.118 4.269 4.19 4.19 0 0 1-4.265-4.122l-.046-2.624z"/><path id="U" d="M1946 525s1.067 2.428 7 5.818c1.006.575 3.34 1.302 7 2.182"/></defs><g fill="none"><path d="M3000 638.616V1931H0V0c873.712 152.16 1365.428 312.287 1475.15 480.382S2093.156 701.222 3000 638.616z" transform="matrix(-1 0 0 1 3000 -96)" fill="url(#A)"/><g transform="translate(1444 35)"><mask id="V" class="L"><use xlink:href="#B"/></mask><use xlink:href="#B" class="K N"/><path d="M-18 373.29h668.363v46.305H-18z" fill="#DAE4F5" class="Q"/><g transform="translate(22 132)" class="Q"><path d="M190.884 211.555v-62.118h21.33v-29.44h6.113l-.61-16.682 7.947-6.87 9.17 6.87v12.757h24.452v32.384l9.17 4.907v58.192z" class="M"/><path d="M432.127 209.298v-36.46l6.12-.58v-15.047l3.6-1.736-.36-9.84 4.68-4.05 5.4 4.05v7.524l14.042-4.63.36 23.728 5.4 2.894v32.987" fill="url(#C)"/><g class="M"><path d="M366.632 211.35v-65.628l11.013-1.042v-27.084l6.478-3.125-.648-17.71 8.518-20.834 9.622 20.834v13.542l25.913 1.47v32.906l9.718 5.21v61.666"/><path d="M366.763 211.555V176.77l-5.138-.552v-16.012h-3.022l.302-9.386h-8.463v7.178h-12.1v18.22l-4.534.552v34.785"/><path d="M334.475 211.145v-61.548l-12.896-.977v-25.4l-7.586-2.93-1.115-54.825s-5.554 16.46-13.576 20.17-5.792 18.045-5.792 18.045l-.38 12.7s-7.436-7.625-19.13 0-10.836 22.13-10.836 22.13v10.1l-11.38 4.885v58.05m244.663-117.8v29.103h19.023v-11.873c0-.216.18-.392.396-.392h32.395a.4.4 0 0 1 .396.392v11.873h27.935a.4.4 0 0 1 .395.392v13.672L610 137l-14 30c-5 10-13 37.567-13 37.567l-163.853.23v-68.363l28.33.084v-13.3c0-.216.177-.392.395-.392h21.793v-29.09h-6.3c-.212 0-.385-.178-.385-.4V84.82c0-.22.173-.4.385-.4h38.092c.212 0 .385.178.385.4v8.516c0 .22-.173.4-.385.4h-4.998z"/></g><path d="M532.164 97.11v12.398" stroke-width="1.96" class="R V"/><path d="M461.238 57.6l42.507-.086-6.133 26.65h-30.534z" fill="#59B2FC" opacity=".636"/><path d="M474.998 42.17a.39.39 0 0 1 .397-.386h12.966c.22 0 .397.167.397.386v7.227c0 .213-.174.386-.397.386h-12.966c-.22 0-.397-.167-.397-.386V42.17z" class="M"/><path d="M481.546 8.952v34.536" stroke-width="1.568" fill="#B9E3F8" class="R S"/><g class="M"><path d="M520.327 87.51c0-.222.182-.4.4-.4h23.48a.4.4 0 0 1 .401.401v8.53c0 .222-.18.4-.4.4h-23.48a.4.4 0 0 1-.401-.401v-8.53z"/><ellipse cx="481.685" cy="2.641" rx="2.64" ry="2.641"/><path d="M458.97 48.85c0-.22.167-.4.4-.4h45.34a.4.4 0 0 1 .399.401v8.53c0 .222-.167.4-.4.4h-45.34a.4.4 0 0 1-.399-.401v-8.53z"/></g><path d="M482.02 57.66v26.503" stroke-width="2.156" fill="#BFE6FA" class="R V"/><g class="M"><path d="M158.207 81.97h32.832a.98.98 0 0 1 .98.98v128.287a.98.98 0 0 1-.98.98h-32.832a.98.98 0 0 1-.98-.98V82.95a.98.98 0 0 1 .98-.98z"/><path d="M123.415 112.382h32.832a.98.98 0 0 1 .98.98v97.456a.98.98 0 0 1-.98.98h-32.832a.98.98 0 0 1-.98-.98v-97.456a.98.98 0 0 1 .98-.98zm-59.13 11.268H97.12a.98.98 0 0 1 .98.98v83.018a.98.98 0 0 1-.98.98H64.286a.98.98 0 0 1-.98-.98V124.63a.98.98 0 0 1 .98-.98z"/><path d="M40.467 159l83.016 6.236v46.77L0 216c5.838-9.073 11.305-17.073 16.402-24l24.064-33z"/><path d="M95.816 71.273h11.108v99.416H95.816z"/></g><path d="M268.845 205.402c-25.913-2.422-34.283-8.704-36.44-11.484-7.327-9.446 1.455-17.314 6.244-21.018 13.982-10.815 32.24-13.32 45.008-13.788 8.37-.308 86.513-.626 157.174 1.963s70.977-3.3 80.702-13.665 16.494-21.6 23.67-28.783c13.527-13.542 33.926-8.882 33.926-8.882s-14.647 44.314-24.065 64.146-17.783 23.98-17.783 23.98-12.132 8.053-40.25 9.532c-9.03.475-23.208 1.08-39.89 1.14-.478.002-77.675-.796-77.675-.796s-84.707.075-110.62-2.347z" fill="#38ACFD"/><path d="M264.197 212.864l2.994-.052.064 3.67-2.994.052z" class="O"/><path d="M361.02 196.802c-.043 2.6 1.986 4.75 4.523 4.796l67.064 1.22c2.537.046 4.635-2.023 4.68-4.626s-1.986-4.75-4.523-4.795l-67.064-1.22c-2.537-.046-4.635 2.023-4.68 4.626z" stroke="#979797" stroke-width=".98"/><path d="M578.96 109.665s-20.64-3.22-30.885 5.95c-3.497 3.13-8.82 9.8-18.46 22.155-4.324 5.54-11.012 14.266-18.425 18.89-14.673 6.88-89.332 37.477-89.332 37.477s44.26 13.743 73.893 13.225 44.73-11.877 44.73-11.877 6.725-4.282 18.778-31.163 19.703-54.66 19.703-54.66z" fill="#38ACFD"/><g class="M"><use xlink:href="#S"/><use xlink:href="#S" x="14.372" y="-0.252"/><use xlink:href="#S" x="29.94" y="-0.524"/><use xlink:href="#T"/><use xlink:href="#T" x="14.37" y="-0.251"/><use xlink:href="#T" x="29.94" y="-0.522"/><use xlink:href="#T" x="44.31" y="-0.774"/><use xlink:href="#T" x="58.682" y="-1.024"/><use xlink:href="#T" x="74.25" y="-1.296"/><use xlink:href="#T" x="88.62" y="-1.547"/><use xlink:href="#T" x="104.19" y="-1.819"/></g><path d="M242.84 169.78l10.214-.136s4.597.726 4.287 6.506-5.2 5.866-5.2 5.866l-21.432-.353s1.426-3.3 4.88-6.36 7.252-5.52 7.252-5.52z" fill="#61BDFD"/><path d="M230.255 189.586l310.376 4.708s-.778 3.246-10.828 6.866-19.142 4.813-24.2 5.525c-14.465 2.036-64.3 1.585-64.3 1.585l-126.062-1.045s-25.8.912-55.908-2.968-29.077-14.67-29.077-14.67z" fill="#47B2FE"/><g class="O"><path d="M379.472 198.75l-.27 14.326 27.78.512s5.28.63 5.776-6.576-4.26-7.965-4.26-7.965l-29.027-.297zm-116.615 5.986l.152 8.707 5.93-.104.047-8-1.785-.123-1.934-.22-2.4-.26z"/><path d="M386.908 213.043l2.996.063.06 3.45-2.994.052z"/></g><g transform="matrix(.999848 -.017452 .017452 .999848 -3.758399 6.813662)"><ellipse cx="388.505" cy="218.742" rx="3.893" ry="3.978" class="T"/><ellipse cx="388.505" cy="218.742" rx="2.096" ry="2.142" class="N"/></g><path d="M400.68 213.498l3 .05.066 3.782-3 .052z" class="O"/><g transform="matrix(.999848 -.017452 .017452 .999848 -3.757655 7.0533)"><ellipse cx="402.235" cy="218.819" rx="3.932" ry="3.935" class="T"/><ellipse cx="402.235" cy="218.819" rx="2.117" ry="2.119" class="N"/></g><ellipse transform="matrix(.999848 -.017452 .017452 .999848 -3.774485 4.671126)" cx="265.742" cy="218.592" rx="3.883" ry="3.974" class="T"/><ellipse transform="matrix(.999848 -.017452 .017452 .999848 -3.776025 4.671166)" cx="265.743" cy="218.68" rx="2.118" ry="2.119" class="N"/><path d="M343.812 191.353l135.884 30.278c13.34 2.03 50.318-.88 35.573-4.164s-87.98-25.427-87.98-25.427l-83.476-.687z" fill="#65BFFF"/><path d="M509.68 168.186c.04-2.348 1.948-4.218 4.256-4.177l49.01.882c2.31.042 4.152 1.983 4.112 4.327s-1.948 4.218-4.256 4.177l-49.01-.88c-2.31-.042-4.152-1.984-4.112-4.328" class="O"/></g><g class="Q"><path d="M189 0h23.053v372.905H189z" fill="#63BCFA"/><path d="M195.51 0h10.207v372.905H195.51z" fill="#269DFF"/><path d="M406 44.018c2.908-.603 4.908-.904 6-.904s6.776-.705 17.053-2.114v331.904H406V44.018z" fill="#63BCFA"/><path d="M412.51 43.012l10.172-1.006.035 330.898H412.51z" fill="#269DFF"/><path d="M168.818 378.568l234.2-333.308C405 48.42 414.668 47.333 432 42s51.668-11.283 103.004-17.85L268.1 378.568h-99.3zM214.46 6C197.695 14 186 28 166 43c-14.667 12.667-34.028 21.343-58.083 26.028L31 146c3.74 8.1 7.074 14.1 10 18s7.26 8.568 13 14L245 1c-9.184-2-19.364-.333-30.54 5zm196.713 372.568l194.95-343.854-282.796 343.854zM628 80L415 373h183.124C598 369 605 334.637 610 316c16-35 25-48 22-69-5.384-26.688-30.748-38-30-40 6.054-16.18 14.534-34.697 20-55 2.603-9.667 6.63-31.047 8-48 .455-5.634-.2-13.634-2-24zM314.205 18l-104.56 154.044L356 39c-8-3.492-15.333-6.825-22-10s-13.265-6.84-19.795-11z" fill-opacity=".367" opacity=".624" fill="#E8F6FF"/></g></g><path d="M1444 453.313l623.363.79c-9.575 66.512-41.13 104.355-94.664 113.53-80.3 13.76-137.087-26.023-219.61-27.522-119.896-2.178-163.447 24.082-196.775 24.082-70.786 0-108.223-36.96-112.312-110.877z" fill="#F3F8FF"/><g transform="translate(1580.754 336.846)"><path d="M0 0l46.284 43.694" stroke="#35405A" stroke-width="8.82"/><g transform="translate(38.008 14.221)"><mask id="W" class="L"><use xlink:href="#D"/></mask><use xlink:href="#D" fill="#FFAC44" class="K"/><path d="M14.3 0l114.4 108.715" mask="url(#W)" stroke="#FFBF34" stroke-width="6.076"/></g><g class="K"><ellipse cx="141.973" cy="134.12" rx="14.301" ry="14.305" fill="#35405A"/><ellipse cx="141.843" cy="134.25" rx="7.411" ry="7.412" fill="#8A93A7"/></g></g><path d="M1703.85 233.24l-.366.5.366-.5" fill="#00A4B7"/><path d="M1637.77 464.723c.998 4.103-1.736 3.67-9.17 7.522-7.434 3.842-21.074 8.563-28.452 10.387-7.4 1.824-18.166-2.453-18.166-2.453l.24-3.538c.25-3.54 12.13-5.156 14.8-6.23 2.67-1.064 10.417-16.086 10.417-16.086 4.004 4.7 6.663 6.49 11.622 5.047s10.818-7.13 10.818-7.13.326-1.92 2.952 2.312c2.636 4.222 4.937 10.17 4.937 10.17" fill="#01258C"/><path d="M1624.57 446.157l5.425 6.122s-5.86 5.688-10.818 7.13-7.618-.336-11.622-5.047l9.853-4.754 7.162-3.452" class="P"/><path d="M1548.06 472.655s2.268 8.205 1.508 11.364-3.722 3.018-5.057 3.484-15.94 1.802-32.858 3.094c-16.906 1.302-22.104-5.666-22.104-5.666s-.5-2.008-.195-4.33 10.32-6.035 17.015-8.238c6.684-2.192 19.163-8.455 19.163-8.455s-.173 5.037 4.558 7.674 10.69 2.106 16.733-2.377l1.237 3.452" fill="#01258C"/><path d="M1547.11 465.965l-.14 3.148c-6.044 4.483-12 5.014-16.733 2.377s-4.558-7.674-4.558-7.674l2.56-3.647s1.443 4.45 9.093 5.774c.706.12 1.476.217 2.3.282 2.095.163 4.57.108 7.476-.26" class="P"/><g filter="url(#F)"><use filter="url(#G)" xlink:href="#E" fill="#000"/><use xlink:href="#E" fill="#6F59FF"/></g><path d="M1454.945 259.862l2.37 2.632a.06.06 0 0 1-.005.085l-4.84 4.36-1.725-1.917a.03.03 0 0 0-.042-.002l-.765.688c-.012.01-.013.03-.002.042l1.725 1.917-10.042 9.042c-.025.022-.063.02-.085-.004l-2.37-2.632c.88-.923.858-2.45-.083-3.497s-2.458-1.228-3.47-.448l-1.9-2.12a.06.06 0 0 1 .005-.085l10.072-9.07 1.562 1.735a.03.03 0 0 0 .042.002l.765-.688a.03.03 0 0 0 .002-.042l-1.562-1.735 4.81-4.332a.06.06 0 0 1 .085.004l1.9 2.12-.133.11c-1.006.905-1.024 2.525-.04 3.617s2.596 1.243 3.6.337l.124-.12zm-8.895 1.53a.03.03 0 0 0-.002.042l3.055 3.393c.01.012.03.014.042.002l.765-.688a.03.03 0 0 0 .002-.042l-3.055-3.393c-.01-.012-.03-.013-.042-.002l-.765.688zm-1.523 6.838l1.77-.385c.014-.012.013-.02.006-.026l-1.498-1.214.045-1.856c-.007-.016-.016-.018-.023-.013l-1.495.972-1.742-.76c-.018.002-.023.01-.02.02l.573 1.812-1.123 1.385c-.004.017.002.024.01.024l1.85.15 1.05 1.616c.016.01.024.004.027-.003l.568-1.72z" class="L"/><g transform="translate(1358.263 71.456)"><g filter="url(#I)"><use filter="url(#J)" xlink:href="#H" fill="#000"/><use xlink:href="#H" fill="#FF7200"/></g><path d="M22.568 9.77c-5.355 0-10.71.67-10.71 5.36v12.732c0 2.586 2.102 4.69 4.686 4.69l-2.008 2v.67h2.986l2.678-2.68h5.047l2.678 2.68H30.6v-.67l-2.008-2c2.584 0 4.686-2.104 4.686-4.69V15.13c0-4.69-4.793-5.36-10.71-5.36zm-6.025 20.104c-1.11 0-2.008-.898-2.008-2s.897-2.01 2.008-2.01 2.008.898 2.008 2.01-.897 2-2.008 2zm4.686-9.382h-6.694v-5.36h6.694v5.36zm7.364 9.382c-1.11 0-2.008-.898-2.008-2s.897-2.01 2.008-2.01 2.008.898 2.008 2.01-.897 2-2.008 2zM30.6 20.49h-6.694v-5.36H30.6v5.36z" class="L"/></g><g filter="url(#L)"><use filter="url(#M)" xlink:href="#K" fill="#000"/><use xlink:href="#K" fill="#009AFF"/></g><path d="M1450.63 151.196c.368-1.13.3-2-.208-2.613-.6-.518-1.45-.588-2.557-.212s-2.097 1.012-2.972 1.906l-2.764 2.825-11.5-2.807c-.184-.06-.357-.012-.518.14l-2.212 2.26a.55.55 0 0 0-.155.477.59.59 0 0 0 .294.424l8.778 4.925-4.475 4.572-3.352-.935c-.023-.012-.07-.018-.138-.018a.53.53 0 0 0-.397.159l-1.66 1.712c-.115.14-.167.288-.155.44.023.188.098.324.225.406l4.354 3.336 3.266 4.448c.104.13.242.206.415.23.196 0 .328-.053.432-.16l1.66-1.694c.15-.165.196-.347.138-.547l-.916-3.425 4.475-4.573 4.82 8.968a.48.48 0 0 0 .363.283c.034.012.075.018.12.018.138 0 .248-.035.328-.106l2.212-1.695a.54.54 0 0 0 .207-.582l-2.765-12.286 2.782-2.842c.875-.895 1.497-1.907 1.866-3.037z" class="K L"/><g filter="url(#O)"><use filter="url(#P)" xlink:href="#N" fill="#000"/><use xlink:href="#N" fill="#1CCCA5"/></g><path d="M1496.664 69.825l2.074 6.378v8.504c0 .638-.395 1.063-.988 1.063h-.988c-.593 0-.988-.425-.988-1.063v-1.063h-11.85v1.063c0 .638-.395 1.063-.988 1.063h-.988c-.593 0-.988-.425-.988-1.063v-8.504l2.074-6.378c.198-.638.69-1.063 1.383-1.063h10.863c.593 0 1.185.425 1.383 1.063zm-13.83 5.55h14.034l-1.504-4.725h-11.027l-1.504 4.725zm1.403 4.725a1.45 1.45 0 0 0 1.403-1.417 1.45 1.45 0 0 0-1.403-1.417 1.45 1.45 0 0 0-1.403 1.417 1.45 1.45 0 0 0 1.403 1.417zm11.227 0a1.45 1.45 0 0 0 1.403-1.417 1.45 1.45 0 0 0-1.403-1.417 1.45 1.45 0 0 0-1.403 1.417 1.45 1.45 0 0 0 1.403 1.417z" class="K L"/><g transform="translate(1335 202)"><g filter="url(#I)"><use filter="url(#R)" xlink:href="#Q" fill="#000"/><use xlink:href="#Q" fill="#FB387E"/></g><path d="M18 23c1.655 0 3-1.345 3-3s-1.345-3-3-3-3 1.345-3 3 1.345 3 3 3zm14.273-5.733h-9.455V25.2h-9.454V15H11v17h2.364v-3.4h21.273V32H37V21.8c0-2.505-2.115-4.533-4.727-4.533z" class="L"/></g><g class="K"><path d="M1582.574 299.302c-.312 7.966-.312 15.768 0 23.408.468 11.46 0 5.982 0 30.43 0 10.465 4.472 15.503 9.244 24.448 6.376 11.95 14.003 27.32 19.1 37.712 5.94 12.112 10.657 22.342 14.153 30.7-2.782 1.9-5.053 3.384-6.812 4.42s-5.16 2.338-10.2 3.9c-7.282-12.393-14.476-24.097-21.582-35.11l-32.243-48.896 18.462-63.2 9.88-7.803z" fill="#FFBF34"/><path d="M1536.55 466.036c-2.973-.724-5.746-2.372-8.32-4.942l4.42-97.012c.47-17.8.25-37.436 0-55.398v-14.4c8.77-7.872 18.094-11.658 27.968-11.358s18.32 4.086 25.337 11.358c.233 3.026-.287 6.27-1.56 9.73-1.91 5.2-3.38 5.2-5.272 8.843s-10.6 24.968-15.27 40.053-1.04 35.11-3.235 60.08c-1.463 16.645-5.5 34.33-12.106 53.057-5 .724-8.988.724-11.96 0z" fill="#FFD41F"/><path d="M1559.432 149.233l-3.12 16.905c.79.3 1.44.81 1.95 1.56s1.16 2.137 1.95 4.16c4.68-4.335 7.02-6.85 7.02-7.542s-1.04-5.982-3.12-15.865l-4.68.78z" fill="#D9AA85"/></g><path d="M1569.573 143.634c1.182 3.376 7.113 12.623 7.113 12.623s-4.7 2.648-9.82 6.545a47.24 47.24 0 0 0-2.897 2.377s.326-5.243.13-8.162c-.206-2.91-1.725-6.577-1.725-6.577s.532 2.767.293 6.512-5.21 10.963-5.21 10.963c0 .054-.12.5-4.08 3.104-4.22 2.768-6.836-1.26-6.988-1.454-.14-.206-3.538-1.812-4.026-3.7-.5-1.888-2.17-2.757-2.17-2.757s-3.884 1.118-3.852.174c.02-.955.402-4.71.402-4.71l-5.132-20.27c-3.38 0 4.252-2.4 8.7-1.5 4.46.88 6.86 4.6 8.932 6.824 2.062 2.214 4.134-1.99 4.134-1.99V138.3s-.043-8.06 4.08-10.143c4.112-2.084 6.4 9.004 6.64 10.143" class="P"/><path d="M1574.375 151.424c-1.246-1.837-1.734-3.97-1.464-6.398.476-4.286 1.7-8.317 1.464-11.13-.433-5.207-2.18-9.074-5.24-11.6-2.784-3.678-7.333-5.853-13.648-6.522-9.472-1.005-14.64 5.528-18.916 6.522-2.85.663-5.892.663-9.123 0-1.734 2.154-2.6 5.687-2.6 10.596s2.65 8.478 7.95 10.704c3.43-3.888 7.02-5.13 10.77-3.724 5.626 2.108 8.1 10.553 9.757 11.417s.62-5.175 1.39-8.296 6.013-2.71 6.013.603c0 2.208 3.38 5.388 10.14 9.54l3.502-1.7z" fill="#00248C"/><g class="K"><path d="M1531.09 295.56c9.395-6.818 18.583-10.08 27.562-9.783s18.86 4.123 29.644 11.48c-2.732-20.893-3.685-36.597-2.862-47.112 2.227-28.423 14.042-42.96 11.7-64.76-1.135-10.57-6.682-17.94-16.64-22.107l-2.34-7.803c-5.692 2.996-10.026 5.597-13 7.803s-6.01 5.067-9.1 8.583l2.6 6.242c-5.894 1.04-11.96 10.75-18.202 29.13s-9.36 47.822-9.36 88.33z" class="L"/><path d="M1570.872 178.883c-3.46 2.994-6.495 8.195-9.1 15.605-3.91 11.114-6.24 32.1-9.134 34.85-1.93 1.833-6.425 3.654-13.488 5.462 1.66 5.592 3.394 9.84 5.2 12.744s4.927 6.458 9.36 10.663c8.628-4.36 15.388-11.037 20.282-20.027 3.183-5.848 13.138-18.9 17.682-32.107 2.44-7.096 2.653-17.05 1.82-20.95s-2.875-6.762-9.88-8.323c-4.67-1.04-8.917-.347-12.742 2.08z" fill="#E2E2E2"/></g><path d="M1549.706 252.533s-5.784 1.497-15.496.5l-6.554-.966c-13.608-2.648-18.068-3.18-21.052-3.224-2.995-.043-8.074 1.715-12.38.553s-4.84-2.865-4.34-3.972c0 0-1.118-2.572-.4-4.776 0 0-3.103-.684-3.082-2.226.022-1.53 1.074-3.104 1.074-3.104l-2.876-.88s-1.53.25-1.996.087-.043-3.083.564-3.647c.195-.185.78-.24 1.53-.206 1.54.043 3.82.39 5.09.456l.13.01c1.975.097 6.24.607 6.24.607s2.594-2.648 5.1-1.313c2.496 1.335 5.893 6.447 5.893 6.447l28.517-1.28 5.274-1.15s2.69 8.39 4.6 12.558c.738 1.606 2.41 3.625 4.2 5.503l-.02.022z" class="P"/><path d="M1489.12 231.16l-.01.196-.13-.01-5.09-.456v-.033l-9.267-9.39 2.354-1.997 12.143 11.69" fill="#444B49"/><path d="M1539.065 234.726l3.455 18.556s2.58.055 6.79-.803c0 0-5-6.778-6.02-10.19s-2.768-7.87-2.768-7.87l-1.457.308" fill="#E0A16F"/><g class="K"><path d="M2064.443 240.177c-3.83-2.64.47-13.455 6.98-19.465s16.376-8.256 20.192-5.625 3.508 9.434-4.26 16.607-19.08 11.123-22.9 8.482z" class="N"/><path d="M2021.253 532.3c1.856-2.434 7.236-7.38 16.142-14.835 13.36-11.184 17.562-8.124 25.367-19.074 5.203-7.3 3.31-13.187-5.676-17.66-6.928 2.087-9.767 1.027-8.515-3.18 1.878-6.3 8.87-12.716 14.19-15.895s11.38-4.36 12.772-7.064 3.943-4.182-4.612-8.778-22.35 2.774-22.35-6.057 23.58-25.595 22.35-32.85-17.53-6.202-27.673 1.413-9.127 24.718-16.32 29.67-9.58-13.07-17.03-6.71-3.575 38.22-3.903 40.62-3.765 3.074-6.74 21.007 20.92 39.646 20.92 40c0 .235.358.033 1.075-.606z" fill="#0064D2"/></g><g stroke-width="1.372" stroke="#4B95E7" class="S U"><path d="M2022 533c.474-29.322 2.274-50.524 5.4-63.607s10.326-29.547 21.6-49.393"/><path d="M2015 449l14 16m-3 12c4.242-6.093 7.913-10.173 11.013-12.24s8.43-3.987 15.987-5.76m-29 46c5.85-3.397 10.624-5.67 14.325-6.818s8.593-1.876 14.675-2.182m-29 8c-3-3.758-5.343-6.406-7-7.944s-4-3.224-7-5.056"/></g><path d="M2023 532.948c-17.738 14.205-42.57 20.027-74.5 17.465s-56.762-11.876-74.5-27.944c4.02 3.96 13.6 4.424 28.736 1.397 22.705-4.54 28.678-14.712 61.73-12.575 22.034 1.425 41.546 8.644 58.536 21.657z" fill="#1CCCA5" class="K"/><g stroke-width="1.176"><g stroke="#56E6C6" class="S U"><path d="M2019 531.588c-18.657 1.785-34.545 2.58-47.664 2.382S1938.77 532.45 1913 530"/><path d="M1926 522l12 10"/><use xlink:href="#U"/><use xlink:href="#U" x="23"/><path d="M1951 544c.838-3.47 2.2-6.08 4.114-7.825s4.533-2.804 7.886-3.175m9 9c.44-2.4 1.5-4.35 3.214-5.885s3.966-2.572 6.786-3.115m-55 9c2.906-3.68 5.24-6.15 7-7.407s4.094-2.122 7-2.593"/></g><path d="M2022.586 533.4c-21.964-17.356-36.29-30.8-42.977-40.36s-14.813-23.98-24.376-43.286" stroke="#FFD41F"/></g><path d="M1991.836 508.08c.005-6.23.603-11.03 1.792-14.398 1.783-5.055 5.13-7.3 7.002-6.957s6.34 3.75 2.493 10.577c-2.564 4.55-6.326 8.144-11.287 10.778zm-13.926-17.833c1.3-6.1 2.882-10.66 4.746-13.7 2.795-4.573 6.535-6.062 8.296-5.348s5.42 4.986.24 10.863c-3.454 3.918-7.88 6.65-13.28 8.195zm-9.6-15.547c1.826-5.954 3.8-10.37 5.923-13.243 3.183-4.312 7.04-5.47 8.73-4.605s4.966 5.44-.708 10.842c-3.783 3.602-8.43 5.937-13.945 7.006zm-7.924-15.3c1.827-5.955 3.8-10.37 5.923-13.243 3.183-4.312 7.04-5.47 8.73-4.605s4.966 5.44-.708 10.842c-3.783 3.602-8.43 5.937-13.945 7.006zm-.4.227c-5.503-2.92-10.02-4.646-13.555-5.178-5.3-.798-8.846 1.108-9.43 2.917s.336 7.358 8.17 7.167c5.222-.127 10.16-1.762 14.816-4.905zm-4.304-8.972c1.27-5.267 1.706-10.22 1.308-14.858-.597-6.958-4.187-13.64-6.666-13.785s-11.126 1.448-8.498 11.28c1.752 6.555 6.37 12.342 13.856 17.362zm13.8 26.382c-5.503-2.92-10.02-4.646-13.555-5.178-5.3-.8-8.846 1.108-9.43 2.916s.336 7.358 8.17 7.167c5.222-.127 10.16-1.762 14.816-4.905zm9 14.67c-5.958-1.816-10.723-2.648-14.293-2.496-5.355.228-8.47 2.776-8.7 4.662s1.734 7.16 9.386 5.477c5.1-1.122 9.637-3.67 13.607-7.643zm12.348 15.823c-6.503-.837-11.608-.86-15.314-.07-5.56 1.187-8.424 4.396-8.373 6.403s2.9 7.157 10.645 4.046c5.157-2.073 9.505-5.533 13.042-10.38z" fill="#FFD41F"/><g stroke-width="2" stroke="#009AFF"><circle transform="matrix(-1 0 0 1 2828 0)" cx="1414" cy="40" r="5" stroke-opacity=".463"/><circle cx="1582" cy="51" r="5" stroke-opacity=".382"/></g><path d="M1351 166a5 5 0 1 0 0-10 5 5 0 1 0 0 10z" stroke="#1CCCA5" stroke-dasharray="2"/><circle cx="1404" cy="319" r="5" fill-opacity=".43" fill="#7D8CE9"/><circle cx="1409" cy="216" r="5" fill-opacity=".67" fill="#FEDD00"/><path d="M1807.49 62.376c-2.475-6.537 12.05-16.626 25.198-18.81s27.25 3.24 29.694 9.694-3.716 14.853-19.41 17.46-33.006-1.806-35.482-8.342z" class="K N"/></g></svg>