<?xml version="1.0" standalone="no"?>
<!DOCTYPE svg PUBLIC "-//W3C//DTD SVG 20010904//EN"
 "http://www.w3.org/TR/2001/REC-SVG-20010904/DTD/svg10.dtd">
<svg version="1.0" xmlns="http://www.w3.org/2000/svg"
 width="677.000000pt" height="424.000000pt" viewBox="0 0 677.000000 424.000000"
 preserveAspectRatio="xMidYMid meet">

<g transform="translate(0.000000,424.000000) scale(0.100000,-0.100000)"
fill="#000000" stroke="none">
<path d="M3090 4106 c-130 -86 -196 -182 -226 -326 -25 -127 -6 -258 42 -277
8 -3 30 -29 50 -58 19 -29 78 -102 131 -162 52 -59 99 -117 104 -128 10 -23
52 -286 46 -291 -1 -2 -19 2 -39 8 -68 21 -102 5 -207 -96 -108 -105 -125
-116 -175 -116 -20 0 -36 -4 -36 -10 0 -15 65 -12 103 4 18 7 73 57 124 109
105 110 135 123 200 90 32 -17 39 -26 45 -64 18 -107 18 -109 38 -109 11 0 21
5 21 10 1 6 3 15 4 20 1 6 3 19 4 30 1 20 2 19 39 -5 84 -55 132 -51 175 14
34 52 69 122 63 128 -5 5 -16 -11 -60 -90 -37 -64 -65 -82 -108 -68 -51 17
-108 68 -108 97 l0 25 26 -20 c29 -23 125 -61 152 -61 21 1 -49 67 -94 90 -16
8 -37 20 -46 28 -9 8 -20 12 -25 9 -4 -3 -8 77 -8 176 l0 182 -42 109 c-24 60
-41 111 -40 113 7 6 194 -45 226 -61 49 -26 41 -69 -61 -318 -33 -81 -58 -154
-54 -163 3 -8 14 -15 25 -15 23 0 86 107 197 334 82 165 86 197 36 249 -31 32
-42 36 -136 50 -217 34 -271 76 -329 253 -56 170 -59 192 -38 239 20 45 69 97
85 92 15 -5 34 -91 35 -162 1 -65 31 -225 42 -225 4 0 10 15 13 33 3 17 28 82
55 143 l48 111 -28 -1 c-16 -1 -29 -4 -29 -7 0 -13 -32 -19 -49 -9 -10 5 -28
32 -40 59 -24 57 -45 81 -69 81 -9 -1 -46 -20 -82 -44z"/>
<path d="M3355 3635 c28 -14 57 -24 65 -24 17 0 -51 32 -90 42 -14 4 -2 -4 25
-18z"/>
<path d="M3819 3428 c-10 -24 -10 -33 -1 -36 7 -2 12 -13 12 -24 0 -17 3 -18
15 -8 12 10 18 10 29 1 12 -10 18 -7 30 17 17 33 15 38 -40 65 -32 16 -32 16
-45 -15z"/>
<path d="M3960 2872 c0 -6 17 -29 38 -52 48 -49 64 -50 233 -14 152 33 189 29
271 -24 79 -52 134 -75 159 -67 30 10 22 20 -15 21 -21 1 -68 21 -125 54 -83
48 -97 53 -149 52 -31 0 -99 -10 -149 -21 -51 -12 -114 -21 -139 -21 -42 0
-51 4 -86 42 -21 23 -38 36 -38 30z"/>
<path d="M4710 2750 c-24 -15 -7 -19 25 -5 23 10 25 14 10 14 -11 0 -27 -3
-35 -9z"/>
<path d="M5690 2730 c0 -6 11 -15 24 -20 13 -5 31 -19 40 -31 8 -13 18 -20 22
-17 10 11 -16 47 -46 63 -34 18 -40 18 -40 5z"/>
<path d="M4720 2653 c0 -20 5 -64 11 -98 9 -55 18 -70 90 -155 44 -52 84 -96
89 -98 16 -6 11 24 -6 39 -16 13 -16 71 0 109 4 11 -9 23 -44 43 -54 31 -69
52 -94 140 -20 67 -46 79 -46 20z"/>
<path d="M5770 2612 c0 -23 0 -45 0 -49 0 -5 6 -8 13 -8 8 0 11 13 10 39 -4
57 -23 71 -23 18z"/>
<path d="M5711 2608 c-14 -35 7 -48 30 -19 24 30 24 41 -1 41 -12 0 -24 -9
-29 -22z"/>
<path d="M3262 2593 c3 -24 11 -31 59 -50 31 -12 76 -25 100 -29 44 -7 44 -7
26 13 -18 21 -122 76 -165 88 -21 6 -23 4 -20 -22z"/>
<path d="M678 2580 c-3 -18 1 -35 9 -42 16 -13 19 -11 28 24 5 20 2 29 -13 37
-17 9 -20 7 -24 -19z"/>
<path d="M880 2581 c0 -6 2 -11 4 -11 2 0 97 -13 211 -30 225 -33 244 -34 229
-22 -5 5 -94 21 -199 37 -104 15 -202 29 -217 32 -17 3 -28 1 -28 -6z"/>
<path d="M5534 2515 c-4 -8 -3 -30 0 -49 5 -28 10 -33 26 -29 11 3 20 11 20
18 0 8 3 21 7 31 4 11 3 15 -5 10 -6 -3 -13 3 -17 14 -8 24 -23 26 -31 5z"/>
<path d="M844 2369 c-5 -9 16 -16 84 -24 35 -5 52 -3 52 4 0 6 -8 11 -17 12
-10 0 -40 4 -66 8 -26 4 -50 4 -53 0z"/>
<path d="M5031 2349 c-13 -36 -30 -47 -100 -63 -74 -17 -147 -59 -229 -133
-33 -29 -62 -53 -64 -53 -3 0 -15 23 -28 50 -19 40 -28 50 -44 48 -17 -2 -21
-10 -20 -35 2 -32 1 -33 -37 -33 -38 0 -38 0 -32 -32 7 -41 13 -49 13 -19 0
12 4 19 10 16 6 -3 10 -1 10 4 0 6 10 11 23 11 19 0 29 -14 59 -80 20 -44 44
-83 53 -86 22 -9 73 16 119 56 l36 32 2 -68 c1 -38 1 -130 0 -205 -1 -128 -3
-141 -38 -245 -31 -91 -37 -127 -42 -220 -3 -73 0 -124 8 -150 20 -63 132
-314 141 -314 18 0 21 131 4 198 -9 37 -19 99 -22 137 -5 63 -3 76 22 125 15
30 44 80 65 110 36 52 59 130 39 130 -5 0 -9 13 -9 29 l0 28 160 5 c94 3 165
9 171 15 13 13 -10 108 -97 403 -69 229 -98 302 -138 340 l-25 23 -10 -24z"/>
<path d="M1466 2343 c-6 -14 -5 -15 5 -6 7 7 10 15 7 18 -3 3 -9 -2 -12 -12z"/>
<path d="M450 2323 c-59 -22 -79 -96 -39 -147 23 -29 69 -36 69 -11 0 8 -4 15
-10 15 -5 0 -10 7 -10 15 0 8 4 15 9 15 6 0 11 14 13 32 2 27 9 34 36 42 37
10 40 21 13 36 -21 11 -56 12 -81 3z"/>
<path d="M6029 2204 c-7 -8 -25 -22 -41 -30 -36 -19 -45 -56 -23 -97 23 -43
17 -81 -14 -85 -23 -4 -23 -6 -18 -65 8 -86 -8 -229 -27 -243 -12 -8 -17 -40
-22 -126 l-7 -114 27 -22 c58 -45 191 -38 295 15 98 50 115 100 63 180 -33 50
-30 63 16 63 13 0 37 13 53 29 40 40 38 81 -6 155 -39 65 -55 114 -55 168 0
45 -42 85 -101 94 -32 5 -42 13 -55 39 -8 18 -26 37 -40 44 -31 14 -29 14 -45
-5z m111 -133 c13 -26 12 -52 -4 -73 -12 -16 -15 -16 -49 0 -48 21 -49 51 -4
73 43 22 45 22 57 0z m108 -251 c26 -25 28 -43 6 -64 -23 -23 -34 -20 -34 12
0 15 -3 37 -6 50 -8 27 5 28 34 2z"/>
<path d="M816 2151 c12 -12 274 -50 274 -39 0 9 -16 13 -146 33 -118 18 -142
19 -128 6z"/>
<path d="M1430 2138 c0 -4 4 -8 9 -8 6 0 12 4 15 8 3 5 -1 9 -9 9 -8 0 -15 -4
-15 -9z"/>
<path d="M3987 2139 c12 -12 162 -67 206 -76 22 -4 27 -2 27 15 0 45 -75 76
-121 51 -15 -8 -32 -6 -66 5 -55 19 -60 19 -46 5z"/>
<path d="M541 2110 c-1 -36 13 -54 32 -43 14 7 13 12 -8 38 l-24 30 0 -25z"/>
<path d="M394 2106 c-6 -15 19 -70 35 -80 5 -4 16 -3 24 0 13 5 11 11 -9 41
-13 20 -24 40 -24 44 0 14 -20 10 -26 -5z"/>
<path d="M4072 2048 c3 -41 5 -44 46 -57 40 -12 44 -16 39 -41 -3 -15 -1 -32
6 -39 17 -17 62 -13 88 9 l24 20 -33 30 c-18 16 -39 30 -47 30 -11 0 -14 7 -9
24 4 19 1 24 -18 28 -13 3 -40 13 -61 22 l-38 17 3 -43z"/>
<path d="M1910 2000 c0 -11 6 -20 14 -20 7 0 16 9 19 20 4 15 0 20 -14 20 -12
0 -19 -7 -19 -20z"/>
<path d="M3820 1994 c0 -31 -11 -36 -37 -19 -28 19 -28 19 -3 -33 11 -22 20
-50 20 -61 0 -38 43 -151 67 -177 21 -23 31 -26 66 -22 43 5 149 52 167 74 6
7 8 35 4 68 l-7 56 -46 -35 c-25 -20 -63 -45 -85 -56 l-38 -20 -25 23 c-42 39
-75 115 -69 157 4 20 2 43 -4 51 -8 12 -10 11 -10 -6z"/>
<path d="M780 1942 c0 -13 0 -13 309 -57 214 -31 267 -35 250 -22 -2 2 -119
21 -259 41 -140 21 -265 40 -277 43 -13 3 -23 0 -23 -5z"/>
<path d="M3066 1939 c-14 -40 -32 -200 -24 -205 17 -11 25 10 37 105 8 63 8
98 2 104 -7 7 -12 6 -15 -4z"/>
<path d="M4127 1923 c-11 -10 -7 -91 7 -172 l13 -74 -29 -33 c-67 -77 -361
-264 -414 -264 -20 0 -25 -3 -15 -9 18 -11 5 -31 -20 -31 -10 0 -19 -4 -19
-10 0 -5 14 -10 31 -10 32 0 319 136 417 197 29 18 55 33 57 33 15 0 3 -80
-15 -100 -11 -13 -20 -30 -20 -39 -1 -28 -22 -56 -135 -181 -229 -255 -258
-327 -199 -492 35 -96 56 -138 152 -293 l80 -130 -74 -29 c-41 -16 -74 -34
-74 -39 0 -12 115 -1 167 16 21 7 39 20 41 29 2 9 -24 83 -58 165 -65 158 -89
266 -76 338 6 30 23 55 78 110 64 64 69 67 64 40 -4 -16 -9 -57 -12 -90 -6
-67 3 -103 102 -383 l57 -163 -32 -32 c-17 -18 -31 -36 -31 -40 0 -15 54 -6
86 14 40 25 40 21 10 204 -38 226 -26 306 75 507 33 66 69 143 80 171 19 49
49 179 63 273 l6 42 -37 -19 c-87 -44 -135 -6 -168 133 l-14 62 34 29 c29 23
35 35 35 66 0 60 -19 104 -42 98 -15 -4 -18 -2 -12 16 10 31 34 66 53 77 10 6
12 9 3 10 -24 0 -61 -48 -73 -93 -7 -31 -25 -58 -59 -92 -46 -45 -48 -46 -53
-23 -13 55 -29 189 -23 203 6 16 3 19 -7 8z m142 -380 c1 -30 -2 -33 -28 -33
-44 0 -61 10 -61 36 0 16 11 31 38 48 l37 23 7 -21 c3 -11 6 -36 7 -53z"/>
<path d="M3236 1805 c-17 -108 -16 -160 3 -139 5 5 14 47 20 94 6 47 14 102
17 123 4 28 2 37 -8 37 -10 0 -19 -31 -32 -115z"/>
<path d="M3437 1863 c-3 -16 -1 -32 4 -37 11 -12 15 -8 22 32 5 23 3 32 -7 32
-8 0 -16 -12 -19 -27z"/>
<path d="M3625 1829 c-7 -33 -3 -45 14 -34 13 8 15 65 2 65 -5 0 -12 -14 -16
-31z"/>
<path d="M760 1736 c0 -34 1 -36 35 -36 32 0 35 2 35 30 0 17 -5 30 -12 30 -7
0 -23 3 -35 6 -21 6 -23 3 -23 -30z"/>
<path d="M1897 1543 c-19 -27 -47 -59 -62 -73 -40 -37 -52 -67 -64 -154 -15
-105 -14 -185 4 -286 8 -47 18 -163 24 -258 5 -96 12 -177 15 -180 6 -6 1 119
-14 351 -8 119 -7 142 6 162 9 14 31 77 49 142 18 65 52 162 75 216 23 55 39
105 36 113 -10 26 -34 14 -69 -33z"/>
<path d="M5017 1523 c-4 -3 -7 -11 -7 -17 0 -6 5 -5 12 2 6 6 9 14 7 17 -3 3
-9 2 -12 -2z"/>
<path d="M5070 1523 c0 -5 4 -14 9 -22 5 -7 5 -27 1 -42 -8 -28 -8 -29 29 -29
37 0 39 2 45 38 10 61 9 62 -39 62 -25 0 -45 -3 -45 -7z"/>
<path d="M5186 1503 c-11 -55 -36 -217 -33 -219 7 -7 88 226 82 235 -13 22
-43 12 -49 -16z"/>
<path d="M575 1464 c-22 -7 -53 -16 -69 -19 l-29 -6 6 -150 c7 -170 14 -159
-85 -133 -33 8 -62 13 -64 11 -2 -2 10 -68 27 -148 36 -174 39 -292 13 -547
-19 -191 -18 -199 39 -188 l34 6 56 203 c78 281 87 319 101 427 l12 95 12 -66
c15 -81 32 -362 32 -525 0 -113 1 -122 20 -127 40 -10 59 3 65 47 2 22 17 129
31 236 22 167 25 217 20 345 -3 83 -12 182 -19 220 -11 60 -16 70 -33 68 -17
-2 -27 18 -70 132 -27 74 -51 134 -54 134 -3 -1 -23 -8 -45 -15z"/>
<path d="M711 1462 c-8 -16 -7 -21 6 -26 19 -8 20 -7 25 18 4 26 -18 32 -31 8z"/>
<path d="M260 1432 c0 -22 24 -34 110 -56 48 -12 55 -12 58 1 5 20 3 21 -69
42 -35 10 -72 22 -81 26 -14 5 -18 2 -18 -13z"/>
<path d="M6238 1384 c-58 -39 -122 -54 -233 -54 l-85 0 6 -47 c3 -27 16 -124
29 -218 14 -93 29 -208 35 -255 6 -47 27 -158 46 -247 l35 -162 -32 -53 c-18
-29 -44 -65 -57 -81 l-26 -27 28 0 c21 0 44 16 92 62 l63 63 -14 55 c-16 57
-19 277 -6 395 l6 60 19 -60 c10 -33 47 -141 82 -240 l64 -179 -16 -48 c-8
-26 -27 -57 -41 -68 -29 -23 -29 -26 7 -35 33 -8 73 23 102 78 19 39 20 43 5
87 -28 78 -79 380 -84 490 -2 58 2 197 10 310 8 113 14 205 13 206 0 0 -22
-14 -48 -32z"/>
<path d="M5067 1393 c-3 -5 -8 -38 -12 -75 l-7 -68 35 0 c33 0 35 2 41 43 4
23 9 57 12 75 6 31 5 32 -29 32 -20 0 -38 -3 -40 -7z"/>
<path d="M5047 1213 c-4 -3 -7 -25 -7 -47 0 -34 5 -43 25 -52 23 -11 24 -10
34 38 6 27 11 53 11 58 0 11 -53 14 -63 3z"/>
<path d="M5027 1093 c-14 -13 -6 -23 19 -23 22 0 25 2 14 15 -14 16 -23 19
-33 8z"/>
<path d="M5010 1043 c1 -15 57 -83 64 -76 3 3 6 24 6 45 0 37 -1 38 -35 38
-19 0 -35 -3 -35 -7z"/>
<path d="M5096 975 c-7 -34 -4 -42 23 -69 50 -50 55 -10 8 68 l-24 39 -7 -38z"/>
<path d="M4907 850 c-3 -8 -8 -29 -11 -47 -5 -31 -5 -32 19 -21 25 11 26 27 4
68 -7 13 -8 13 -12 0z"/>
<path d="M4915 743 l-27 -28 42 -3 c23 -2 44 -1 46 1 6 6 -18 57 -26 57 -4 0
-20 -12 -35 -27z"/>
<path d="M4877 683 c-8 -8 -9 -43 -1 -43 3 0 22 11 42 25 l37 25 -36 0 c-20 0
-39 -3 -42 -7z"/>
<path d="M4838 654 c-5 -4 -8 -16 -8 -28 0 -14 3 -17 11 -9 6 6 9 19 7 28 -1
9 -6 13 -10 9z"/>
<path d="M660 256 c0 -8 5 -18 12 -22 16 -10 144 -33 188 -33 46 -1 31 12 -50
44 -72 28 -150 34 -150 11z"/>
<path d="M355 250 c-17 -27 83 -84 127 -72 15 3 16 7 7 19 -36 42 -120 76
-134 53z"/>
</g>
</svg>
