<?xml version="1.0" standalone="no"?>
<!DOCTYPE svg PUBLIC "-//W3C//DTD SVG 20010904//EN"
 "http://www.w3.org/TR/2001/REC-SVG-20010904/DTD/svg10.dtd">
<svg version="1.0" xmlns="http://www.w3.org/2000/svg"
 width="649.000000pt" height="452.000000pt" viewBox="0 0 649.000000 452.000000"
 preserveAspectRatio="xMidYMid meet">

<g transform="translate(0.000000,452.000000) scale(0.100000,-0.100000)"
fill="#000000" stroke="none">
<path d="M0 2260 l0 -2260 1713 1 c947 1 1660 5 1595 10 -281 19 -631 71 -906
135 -181 42 -202 49 -202 66 0 7 41 172 90 367 50 195 90 359 90 363 0 5 -30
8 -67 6 l-68 -3 -50 -362 c-28 -199 -53 -364 -55 -367 -6 -5 -360 112 -445
148 -44 18 -60 29 -58 43 1 10 59 246 130 525 l128 508 1072 0 c1012 0 1072
-1 1077 -17 3 -10 85 -330 181 -712 140 -549 174 -696 163 -702 -7 -5 463 -9
1045 -9 l1057 0 -1 673 c-1 414 -5 642 -10 594 -19 -183 -84 -378 -175 -525
-60 -97 -232 -271 -336 -340 -327 -219 -815 -353 -1413 -388 l-110 -7 -124
704 c-68 387 -126 710 -128 716 -4 10 38 13 174 15 l178 3 0 45 0 45 -220 5
-220 5 -17 65 c-22 89 -22 103 6 193 l24 78 -136 -3 -137 -3 -51 -165 -51
-165 -327 -3 c-179 -1 -326 1 -326 4 0 4 38 106 85 227 47 121 83 226 81 234
-4 10 -77 13 -370 13 l-364 0 -5 33 c-3 17 -9 62 -13 99 -9 92 -27 95 -53 8
-27 -89 -27 -94 14 -127 l35 -29 -73 -190 c-41 -104 -79 -199 -86 -211 -11
-22 -17 -23 -135 -23 -115 0 -124 -1 -129 -20 -5 -20 -14 -20 -385 -20 l-380
0 -4 -43 c-3 -23 -3 -45 -1 -49 2 -5 101 -8 219 -8 157 0 214 -3 214 -12 0
-15 -170 -978 -175 -996 -6 -18 -261 112 -397 204 l-108 72 0 -119 c0 -112 -1
-119 -20 -119 -19 0 -20 7 -20 133 l0 132 -62 57 -63 56 55 54 c76 73 99 102
127 165 31 66 24 76 -49 74 -94 -2 -184 -42 -232 -103 -24 -31 -27 -32 -42
-16 -14 14 -17 45 -18 215 -1 115 -6 208 -13 223 -10 25 -11 24 -51 -39 l-40
-63 -7 49 c-8 61 9 219 35 330 114 483 531 1025 1103 1435 l122 88 420 2 420
3 3 192 2 191 94 56 c52 31 119 67 150 81 l56 25 0 140 0 140 800 0 800 0 0
-193 0 -194 63 -27 c34 -14 72 -26 85 -26 20 0 22 -5 22 -50 l0 -50 510 0 510
0 0 -325 0 -325 -55 0 -55 0 0 -300 0 -300 244 0 245 0 3 41 3 40 57 -103
c111 -200 184 -400 212 -583 12 -79 14 84 15 1368 l1 1457 -512 0 c-398 0
-509 -3 -500 -12 8 -8 12 -50 12 -124 l0 -112 33 -25 c82 -64 77 -46 77 -257
l0 -190 -330 0 -330 0 0 194 0 194 45 36 45 37 0 83 0 82 47 44 48 45 -40 -43
-40 -43 40 3 c39 3 40 4 40 43 l0 40 -2562 3 -2563 2 0 -2260z m3188 1923 c5
-17 -26 -29 -40 -15 -6 6 -7 15 -3 22 9 14 37 9 43 -7z m97 -3 c0 -22 -39 -19
-43 3 -3 15 1 18 20 15 12 -2 23 -10 23 -18z m95 -1 c0 -14 -5 -19 -17 -17
-26 5 -29 38 -4 38 15 0 21 -6 21 -21z m-1690 -223 l0 -34 74 -4 c65 -3 79 -7
112 -34 73 -59 100 -165 61 -240 -39 -76 -141 -133 -214 -119 l-33 6 0 -136 0
-135 -159 0 c-88 0 -166 3 -175 6 -14 5 -16 46 -16 353 0 257 3 350 12 359 8
8 62 12 175 12 l163 0 0 -34z m960 -111 l0 -25 -315 0 -315 0 0 25 0 25 315 0
315 0 0 -25z m0 -115 c0 -19 -7 -20 -133 -20 -74 0 -216 -3 -315 -7 l-182 -6
0 26 0 27 315 0 c308 0 315 0 315 -20z m-142 -97 c129 -6 142 -8 142 -25 0
-17 -16 -18 -315 -18 l-315 0 0 25 0 25 173 0 c94 0 236 -3 315 -7z m-128
-138 l0 -25 -180 0 -180 0 0 25 0 25 180 0 180 0 0 -25z m3616 -646 c11 -18 7
-69 -6 -84 -9 -11 -5 -17 24 -29 32 -13 36 -19 36 -50 l0 -36 -95 0 -95 0 0
36 c0 31 4 37 34 49 34 14 34 15 20 43 -17 34 -3 88 24 95 19 4 48 -8 58 -24z
m164 -279 c0 -19 -7 -20 -210 -20 -168 0 -210 3 -210 13 0 8 3 17 7 20 3 4 98
7 210 7 196 0 203 -1 203 -20z m0 -80 c0 -19 -7 -20 -210 -20 -168 0 -210 3
-210 13 0 8 3 17 7 20 3 4 98 7 210 7 196 0 203 -1 203 -20z m0 -80 c0 -19 -7
-20 -210 -20 -168 0 -210 3 -210 13 0 8 3 17 7 20 3 4 98 7 210 7 196 0 203
-1 203 -20z m-2306 -644 c-10 -31 -19 -54 -22 -52 -2 2 4 29 14 60 10 31 19
54 22 52 2 -2 -4 -29 -14 -60z m-39 -126 c-9 -28 -19 -50 -21 -48 -2 2 4 27
13 56 9 28 19 50 21 47 2 -2 -4 -27 -13 -55z"/>
<path d="M1815 3660 c38 -38 72 -70 74 -70 3 0 -26 32 -64 70 -38 39 -72 70
-74 70 -3 0 26 -31 64 -70z"/>
<path d="M5234 4400 c-76 -31 -95 -160 -30 -205 21 -16 101 -21 110 -7 2 4
-13 6 -35 4 -74 -7 -119 54 -98 134 18 64 115 98 159 54 41 -41 35 -122 -9
-128 -21 -3 -22 -1 -15 47 6 50 6 51 -20 51 -57 0 -98 -49 -76 -91 12 -21 49
-26 67 -8 8 8 13 8 17 0 12 -18 44 -12 60 11 41 58 -6 149 -76 147 -18 0 -43
-4 -54 -9z m70 -87 c-12 -48 -24 -64 -47 -61 -47 7 -20 88 28 88 23 0 25 -3
19 -27z"/>
<path d="M4485 3859 c-64 -51 -92 -66 -149 -79 -39 -9 -55 -7 -104 11 -84 31
-89 32 -115 25 -13 -3 -59 -33 -103 -67 -88 -68 -184 -119 -227 -119 -41 0
-79 23 -121 75 -44 53 -82 75 -131 75 l-35 0 0 -110 0 -110 475 0 475 0 0 50
0 50 45 0 45 0 0 120 c0 66 -1 120 -2 120 -2 0 -25 -18 -53 -41z"/>
<path d="M3120 2805 c0 -198 1 -205 20 -205 19 0 20 7 20 205 0 198 -1 205
-20 205 -19 0 -20 -7 -20 -205z"/>
<path d="M3740 2800 c0 -193 1 -200 20 -200 19 0 20 7 20 200 0 193 -1 200
-20 200 -19 0 -20 -7 -20 -200z"/>
<path d="M3650 2775 l0 -175 25 0 25 0 0 175 0 175 -25 0 -25 0 0 -175z"/>
<path d="M3210 2765 c0 -158 1 -165 20 -165 19 0 20 7 20 165 0 158 -1 165
-20 165 -19 0 -20 -7 -20 -165z"/>
<path d="M3380 2765 l0 -165 25 0 25 0 0 165 0 165 -25 0 -25 0 0 -165z"/>
<path d="M2940 2725 c0 -118 1 -125 20 -125 19 0 20 7 20 125 0 118 -1 125
-20 125 -19 0 -20 -7 -20 -125z"/>
<path d="M3030 2725 c0 -118 1 -125 20 -125 19 0 20 7 20 125 0 118 -1 125
-20 125 -19 0 -20 -7 -20 -125z"/>
<path d="M3560 2725 l0 -125 25 0 25 0 0 125 0 125 -25 0 -25 0 0 -125z"/>
<path d="M2270 2764 c-35 -30 -60 -73 -60 -104 0 -11 -11 -42 -25 -68 -50 -93
-26 -200 53 -233 l40 -18 -4 52 c-6 67 5 85 41 69 58 -27 71 -8 53 79 -15 76
-9 83 64 63 61 -16 121 -8 179 22 30 15 31 34 3 34 -22 0 -106 45 -143 75 -32
28 -106 55 -147 55 -12 0 -36 -12 -54 -26z"/>
<path d="M3470 2675 c0 -73 1 -75 25 -75 24 0 25 2 25 75 0 73 -1 75 -25 75
-24 0 -25 -2 -25 -75z"/>
<path d="M2850 2660 c0 -53 2 -60 20 -60 18 0 20 7 20 60 0 53 -2 60 -20 60
-18 0 -20 -7 -20 -60z"/>
<path d="M3290 2655 c0 -52 1 -55 25 -55 24 0 25 3 25 55 0 52 -1 55 -25 55
-24 0 -25 -3 -25 -55z"/>
<path d="M4175 2545 c-21 -20 -25 -34 -25 -85 l0 -60 300 0 300 0 0 60 c0 51
-4 65 -25 85 l-24 25 -251 0 -251 0 -24 -25z"/>
<path d="M4319 2280 c-20 -17 -22 -21 -9 -29 9 -7 18 -7 24 -1 6 6 20 10 33
10 37 0 28 -31 -22 -80 -25 -24 -45 -52 -45 -62 0 -15 9 -18 65 -18 58 0 65 2
65 20 0 16 -7 20 -36 20 l-36 0 36 40 c41 45 45 71 16 100 -25 25 -61 26 -91
0z"/>
<path d="M4480 2238 l0 -53 37 0 c31 0 38 -4 38 -20 0 -17 -7 -20 -40 -20 -28
0 -40 -4 -40 -14 0 -23 51 -35 86 -21 58 25 48 104 -16 116 -50 9 -47 34 5 34
29 0 40 4 40 15 0 12 -13 15 -55 15 l-55 0 0 -52z"/>
<path d="M5305 2210 c-42 -43 -56 -48 -75 -25 -7 8 -17 12 -22 9 -5 -3 3 -19
18 -35 l28 -29 53 52 c29 29 53 56 53 60 0 17 -17 7 -55 -32z"/>
<path d="M2277 2222 c-11 -2 -16 -10 -13 -17 3 -8 19 -62 37 -122 17 -59 33
-109 34 -111 2 -2 22 20 44 48 l41 52 -48 60 c-73 92 -76 95 -95 90z"/>
<path d="M5300 2005 c-41 -42 -45 -44 -62 -28 -28 25 -35 6 -8 -22 l24 -25 53
52 c29 29 53 56 53 60 0 17 -18 6 -60 -37z"/>
<path d="M5300 1805 c-41 -42 -45 -44 -62 -28 -28 25 -35 6 -8 -22 l24 -25 53
52 c29 29 53 56 53 60 0 17 -18 6 -60 -37z"/>
<path d="M3305 1790 c-3 -5 -14 -10 -24 -10 -26 0 -53 -35 -53 -67 0 -31 33
-63 67 -63 25 0 65 -52 65 -84 0 -12 10 -16 40 -16 28 0 40 4 40 14 0 8 11 36
25 63 13 26 27 76 31 111 l7 62 -96 0 c-53 0 -99 -4 -102 -10z m3 -78 c3 -44
-4 -50 -39 -32 -34 19 -17 85 21 78 10 -2 16 -17 18 -46z"/>
<path d="M3524 1724 c-7 -54 -18 -92 -32 -112 -23 -32 -29 -62 -12 -62 6 0 10
9 10 21 0 11 9 32 20 46 24 31 32 72 28 138 -3 48 -3 46 -14 -31z"/>
<path d="M2659 1358 c-170 -64 -305 -98 -416 -106 l-92 -7 16 -33 c23 -48 70
-92 123 -116 38 -17 71 -20 210 -23 l165 -4 177 -81 176 -80 11 -42 c8 -35 7
-54 -9 -107 -21 -67 -80 -343 -80 -372 0 -16 56 -38 136 -53 32 -6 35 -4 50
31 8 20 17 36 19 34 2 -2 15 -48 28 -102 l25 -98 -46 28 c-110 64 -100 61
-117 36 -22 -31 -89 -33 -105 -2 -6 11 -18 19 -27 17 -18 -4 -52 -81 -52 -120
l-1 -28 251 0 c141 0 248 4 245 9 -3 5 -25 13 -49 19 l-43 11 -26 195 -27 195
24 62 c14 34 27 64 29 66 3 3 105 -86 228 -197 123 -111 229 -204 236 -207 13
-5 132 102 132 119 0 4 -104 123 -231 265 -128 142 -238 265 -246 275 -13 14
-10 28 21 112 20 52 36 109 36 127 0 86 -59 176 -133 203 -33 12 -93 16 -277
18 l-235 3 -126 -47z"/>
<path d="M4088 489 c-21 -16 -77 -47 -125 -67 -112 -47 -116 -50 -109 -75 7
-26 -37 -87 -63 -87 -39 0 -41 -23 -9 -75 29 -47 45 -64 59 -65 5 0 271 352
292 387 13 22 -7 15 -45 -18z"/>
</g>
</svg>
