<?xml version="1.0" encoding="utf-8"?>
<svg version="1.1" id="Layer_1"
xmlns="http://www.w3.org/2000/svg"
xmlns:xlink="http://www.w3.org/1999/xlink"
width="739px" height="207px"
xml:space="preserve">
<g id="PathID_39" transform="matrix(1, 0, 0, 1, 110.85, -357.9)" opacity="1">
</g>
<g id="PathID_40" transform="matrix(1, 0, 0, 1, 110.85, -357.9)" opacity="1">
</g>
<g id="PathID_41" transform="matrix(1, 0, 0, 1, 110.85, -357.9)" opacity="1">
</g>
<g id="PathID_42" transform="matrix(1, 0, 0, 1, 110.85, -357.9)" opacity="1">
</g>
<g id="PathID_43" transform="matrix(1, 0, 0, 1, 110.85, -357.9)" opacity="1">
</g>
<g id="PathID_44" transform="matrix(1, 0, 0, 1, 110.85, -357.9)" opacity="1">
</g>
<g id="PathID_45" transform="matrix(-0.506806, -0.754268, -1.02302, 0.687388, 48.6, 102.8)" opacity="1">
<linearGradient
id="LinearGradID_3" gradientUnits="userSpaceOnUse" gradientTransform="matrix(-0.041432, 0.041432, -0.041432, -0.041432, 0, 0)" spreadMethod ="pad" x1="-819.2" y1="0" x2="819.2" y2="0" >
<stop  offset="0" style="stop-color:#0039D7;stop-opacity:1" />
<stop  offset="1" style="stop-color:#1E90FF;stop-opacity:1" />
</linearGradient>
<path style="fill:url(#LinearGradID_3) " d="M8.75 -13.65Q-5.35 -13.65 -16.25 -4.1Q-26.95 5.4 -29.85 19.8L-48 19.8Q-45.25 1.05 -31.75 -11.3Q-18.15 -23.7 -0.3 -23.7Q19.7 -23.7 34.05 -8.6Q46.6 4.85 48 23.7Q46.55 9.35 36.45 -1.35Q25 -13.65 8.75 -13.65" />
</g>
<g id="PathID_46" transform="matrix(-0.506806, -0.754268, -1.02302, 0.687388, 48.6, 102.8)" opacity="1">
</g>
<g id="PathID_47" transform="matrix(-0.594263, -0.884428, -1.09548, 0.736074, 73.15, 102.35)" opacity="1">
<linearGradient
id="LinearGradID_4" gradientUnits="userSpaceOnUse" gradientTransform="matrix(-0.041432, 0.041432, -0.041432, -0.041432, 0, 0)" spreadMethod ="pad" x1="-819.2" y1="0" x2="819.2" y2="0" >
<stop  offset="0" style="stop-color:#86F88F;stop-opacity:1" />
<stop  offset="1" style="stop-color:#00E24F;stop-opacity:1" />
</linearGradient>
<path style="fill:url(#LinearGradID_4) " d="M8.75 -13.65Q-5.35 -13.65 -16.25 -4.1Q-26.95 5.4 -29.85 19.8L-48 19.8Q-45.25 1.05 -31.75 -11.3Q-18.15 -23.7 -0.3 -23.7Q19.7 -23.7 34.05 -8.6Q46.6 4.85 48 23.7Q46.55 9.35 36.45 -1.35Q25 -13.65 8.75 -13.65" />
</g>
<g id="PathID_48" transform="matrix(-0.594263, -0.884428, -1.09548, 0.736074, 73.15, 102.35)" opacity="1">
</g>
<g id="PathID_49" transform="matrix(3.01069, 0, 0, 3.01069, 119.6, 157.65)" opacity="1">
<path style="fill:#676767;fill-opacity:1" d="M4.4 -30.2Q4.4 -31.3 5.25 -32.05Q6.05 -32.8 7.15 -32.8Q8.15 -32.8 9 -32.05Q9.8 -31.3 9.8 -30.1Q9.8 -28.85 9.1 -28.15Q8.3 -27.4 7.25 -27.4Q6.1 -27.4 5.3 -28.15Q4.4 -28.85 4.4 -30.2M4.85 0L4.85 -24.6L9.35 -24.6L9.35 0L4.85 0" />
</g>
<g id="PathID_50" transform="matrix(3.01069, 0, 0, 3.01069, 119.6, 157.65)" opacity="1">
</g>
<g id="PathID_51" transform="matrix(3.01069, 0, 0, 3.01069, 155.9, 157.65)" opacity="1">
<path style="fill:#676767;fill-opacity:1" d="M2.3 0L2.3 -15Q2.3 -19.25 5.35 -22.2Q8.45 -25.2 12.9 -25.2Q16.45 -25.2 19.45 -22.9Q23.4 -19.9 23.4 -14.6L23.4 0L18.85 0L18.85 -14.5Q18.85 -17.1 17.15 -19Q15.5 -20.9 12.9 -20.9Q10.4 -20.9 8.65 -19.1Q6.95 -17.3 6.95 -14.9L6.95 0L2.3 0" />
</g>
<g id="PathID_52" transform="matrix(3.01069, 0, 0, 3.01069, 155.9, 157.65)" opacity="1">
</g>
<g id="PathID_53" transform="matrix(3.01069, 0, 0, 3.01069, 226.55, 157.65)" opacity="1">
<path style="fill:#676767;fill-opacity:1" d="M2.7 0L2.7 -26.85Q2.7 -31.65 5.65 -34.05Q7.9 -35.9 10.8 -35.9L15.2 -35.9L15.2 -31.6L11.95 -31.6Q9.5 -31.6 8.35 -30.35Q7.4 -29.4 7.25 -27.6L7.25 -24.6L14.6 -24.6L14.6 -20.3L7.25 -20.3L7.25 0L2.7 0" />
</g>
<g id="PathID_54" transform="matrix(3.01069, 0, 0, 3.01069, 226.55, 157.65)" opacity="1">
</g>
<g id="PathID_55" transform="matrix(3.01069, 0, 0, 3.01069, 262.85, 157.65)" opacity="1">
<path style="fill:#676767;fill-opacity:1" d="M1.35 -12.6Q1.35 -17.9 5.35 -21.6Q9.15 -25.1 14.05 -25.1Q19 -25.1 22.75 -21.9Q27 -18.3 27 -12.5Q27 -7.65 24 -3.9Q20.55 0.5 14.95 0.5Q8.95 0.5 5.1 -3.2Q1.25 -6.95 1.25 -12.4L1.35 -12.6M6.1 -12.7Q6.1 -9.1 7.8 -6.75Q10 -3.8 14.35 -3.8Q17.95 -3.8 19.95 -5.85Q22.2 -8.15 22.2 -12.9Q22.2 -16.45 19.95 -18.65Q17.65 -20.8 14.15 -20.8Q10.25 -20.8 8 -18.1Q6.1 -15.8 6.1 -12.7" />
</g>
<g id="PathID_56" transform="matrix(3.01069, 0, 0, 3.01069, 262.85, 157.65)" opacity="1">
</g>
<g id="PathID_57" transform="matrix(3.01069, 0, 0, 3.01069, 342.15, 157.65)" opacity="1">
<path style="fill:#676767;fill-opacity:1" d="M2.3 0L2.3 -15Q2.3 -19.25 5.35 -22.2Q8.45 -25.2 12.9 -25.2Q16.45 -25.2 19.45 -22.9Q23.4 -19.9 23.4 -14.6L23.4 0L18.85 0L18.85 -14.5Q18.85 -17.1 17.15 -19Q15.5 -20.9 12.9 -20.9Q10.4 -20.9 8.65 -19.1Q6.95 -17.3 6.95 -14.9L6.95 0L2.3 0" />
</g>
<g id="PathID_58" transform="matrix(3.01069, 0, 0, 3.01069, 342.15, 157.65)" opacity="1">
</g>
<g id="PathID_59" transform="matrix(3.01069, 0, 0, 3.01069, 412.8, 157.65)" opacity="1">
<path style="fill:#676767;fill-opacity:1" d="M7.65 -11.7L19.9 -18.5Q18.85 -19.55 18.15 -19.9Q16.6 -20.8 14.2 -20.8Q10.5 -20.8 8.3 -18Q6.3 -15.5 6.3 -11.85Q6.3 -8.7 8.4 -6.35Q10.7 -3.8 14.4 -3.8Q18.1 -3.8 20.05 -5.85Q21.8 -7.6 22.55 -11.5L27.1 -10.9Q27.1 -6.9 23.85 -3.5Q20 0.6 14.05 0.6Q9.05 0.6 5.3 -3Q1.55 -6.65 1.55 -11.7Q1.55 -18.1 5.75 -21.85Q9.4 -25.1 14.15 -25.1Q18.35 -25.1 21.3 -23.2Q24.15 -21.25 26.2 -17.3L9.6 -8.1L7.65 -11.7" />
</g>
<g id="PathID_60" transform="matrix(3.01069, 0, 0, 3.01069, 412.8, 157.65)" opacity="1">
</g>
<g id="PathID_61" transform="matrix(3.01069, 0, 0, 3.01069, 492.15, 157.65)" opacity="1">
<path style="fill:#676767;fill-opacity:1" d="M3.05 -7.65L3.05 -30.8L7.5 -30.8L7.5 -24.6L16.3 -24.6L16.3 -20.3L7.5 -20.3L7.5 -6.8Q7.5 -5.8 8.3 -5.05Q9.05 -4.3 10.7 -4.3L16.3 -4.3L16.3 0L10.6 0Q6.65 0 4.7 -2.3Q3.05 -4.3 3.05 -7.65" />
</g>
<g id="PathID_62" transform="matrix(3.01069, 0, 0, 3.01069, 492.15, 157.65)" opacity="1">
</g>
<g id="PathID_63" transform="matrix(3.01069, 0, 0, 3.01069, 536.8, 157.65)" opacity="1">
<path style="fill:#676767;fill-opacity:1" d="M2.55 0L2.55 -16.9Q2.55 -20.2 5.05 -22.7Q7.55 -25.1 11.7 -25.1Q14.15 -25.1 16.05 -23.85Q17.35 -23.05 18.45 -21.6Q19.5 -23.1 21.2 -24Q23.25 -25.1 25.9 -25.1Q29.4 -25.1 31.95 -22.7Q34.55 -20.25 34.55 -16.9L34.55 0L30 0L29.95 -15.5Q29.95 -17.55 29.1 -18.95Q27.9 -20.8 25.55 -20.8Q23 -20.8 21.75 -19.05Q20.8 -17.7 20.8 -15.5L20.8 0L16.15 0L16.1 -15.2Q16.1 -17.7 14.9 -19.25Q13.75 -20.8 11.6 -20.8Q8.9 -20.8 7.85 -18.9Q7.05 -17.45 7.05 -14.9L7.05 0L2.55 0" />
</g>
<g id="PathID_64" transform="matrix(3.01069, 0, 0, 3.01069, 536.8, 157.65)" opacity="1">
</g>
<g id="PathID_65" transform="matrix(3.01069, 0, 0, 3.01069, 641.8, 157.65)" opacity="1">
<path style="fill:#676767;fill-opacity:1" d="M2.3 -24.6L6.85 -24.6L6.85 -9.75Q6.85 -7.15 8.6 -5.45Q10.4 -3.8 12.7 -3.8Q15.3 -3.8 17 -5.6Q18.75 -7.45 18.75 -9.75L18.75 -24.6L23.3 -24.6L23.3 -10Q23.3 -5.5 20.25 -2.5Q17.25 0.5 12.7 0.5Q8.4 0.5 5.55 -2.05Q2.3 -5 2.3 -10.6L2.3 -24.6" />
</g>
<g id="PathID_66" transform="matrix(3.01069, 0, 0, 3.01069, 641.8, 157.65)" opacity="1">
</g>
</svg>
