<?xml version="1.0" standalone="no"?>
<!DOCTYPE svg PUBLIC "-//W3C//DTD SVG 20010904//EN"
 "http://www.w3.org/TR/2001/REC-SVG-20010904/DTD/svg10.dtd">
<svg version="1.0" xmlns="http://www.w3.org/2000/svg"
 width="794.000000pt" height="669.000000pt" viewBox="0 0 794.000000 669.000000"
 preserveAspectRatio="xMidYMid meet">

<g transform="translate(0.000000,669.000000) scale(0.100000,-0.100000)"
fill="#000000" stroke="none">
<path d="M3940 5675 l0 -45 179 0 c109 0 182 -4 186 -10 4 -6 -29 -10 -92 -10
-86 -1 -147 -4 -243 -14 -19 -2 -26 -9 -28 -29 -3 -24 0 -26 44 -29 66 -4 72
-28 6 -28 l-49 0 -2 -95 -2 -95 73 0 73 1 87 -93 87 -93 1 86 c0 99 0 99 86
99 l54 0 0 200 0 200 -230 0 -230 0 0 -45z m365 -155 c-4 -6 -55 -10 -121 -10
-69 0 -114 4 -114 10 0 6 47 10 121 10 77 0 118 -4 114 -10z m0 -90 c4 -6 -28
-10 -88 -10 -52 0 -128 -3 -169 -6 -64 -6 -76 -4 -81 10 -6 14 10 16 163 16
102 0 171 -4 175 -10z"/>
<path d="M4655 5643 c-11 -3 -28 -12 -37 -21 -16 -14 -18 -43 -18 -339 l0
-323 -1117 0 c-1069 0 -1120 -1 -1159 -19 -23 -10 -52 -34 -65 -52 l-24 -34
-3 -857 c-1 -572 1 -858 8 -858 6 0 11 225 12 663 l3 662 648 3 c420 1 647 6
647 12 0 7 -227 10 -650 10 l-650 0 0 163 c0 199 11 231 85 267 l47 23 492 -6
c270 -4 599 -7 731 -8 132 -1 228 -4 213 -6 l-28 -4 0 -220 0 -219 1120 0
1120 0 0 -630 c0 -413 3 -630 10 -630 7 0 10 222 10 645 l0 645 95 0 c149 0
135 -57 135 561 0 332 -4 527 -10 539 -6 11 -27 24 -48 30 -37 10 -1525 13
-1567 3z m1583 -29 c20 -13 22 -24 22 -95 l0 -79 -825 0 -825 0 0 73 c0 73 10
99 40 110 8 3 364 6 790 6 687 1 778 -1 798 -15z m22 -628 c0 -391 -2 -435
-17 -447 -10 -9 -49 -15 -104 -17 l-88 -4 -3 169 c-3 159 -4 170 -27 202 -13
18 -42 42 -65 52 -39 17 -79 19 -693 19 l-653 0 0 230 0 230 825 0 825 0 0
-434z"/>
<path d="M4700 5546 c-27 -33 18 -72 48 -42 13 13 14 20 6 34 -15 23 -38 26
-54 8z m40 -21 c0 -8 -7 -15 -15 -15 -8 0 -15 7 -15 15 0 8 7 15 15 15 8 0 15
-7 15 -15z"/>
<path d="M4802 5551 c-8 -4 -12 -19 -10 -32 4 -29 45 -34 61 -7 19 30 -19 60
-51 39z m38 -26 c0 -8 -7 -15 -15 -15 -8 0 -15 7 -15 15 0 8 7 15 15 15 8 0
15 -7 15 -15z"/>
<path d="M4891 5542 c-13 -25 8 -56 35 -50 29 5 27 62 -3 66 -13 2 -26 -4 -32
-16z m44 -11 c7 -12 -12 -24 -25 -16 -11 7 -4 25 10 25 5 0 11 -4 15 -9z"/>
<path d="M6851 4249 c-33 -14 -56 -18 -87 -13 -34 5 -46 2 -62 -14 -50 -50
-49 -135 0 -212 l23 -35 3 48 c3 42 6 48 20 41 37 -17 134 -16 173 1 56 26 72
15 67 -43 -3 -42 -1 -47 17 -43 11 2 35 4 52 5 31 1 33 4 44 51 14 65 0 122
-44 172 -57 64 -126 79 -206 42z"/>
<path d="M3003 4155 c-202 -55 -342 -234 -343 -438 0 -70 18 -147 34 -144 6 1
11 -11 11 -28 0 -16 4 -32 10 -34 5 -3 31 24 58 60 27 35 53 66 58 67 12 5 11
-65 -1 -106 -8 -29 -7 -32 5 -22 8 7 15 10 15 7 0 -12 -24 -63 -43 -90 -19
-28 -19 -28 3 -52 12 -13 52 -39 89 -58 109 -57 215 -71 326 -42 184 48 311
195 339 393 l6 42 -230 0 -230 0 0 230 0 230 -27 -1 c-16 0 -52 -7 -80 -14z"/>
<path d="M3298 3945 l3 -175 126 0 125 0 -7 48 c-8 60 -53 158 -94 204 -34 39
-119 98 -142 98 -12 0 -14 -30 -11 -175z"/>
<path d="M3788 4044 c-9 -18 -9 -30 -1 -42 9 -16 80 -17 879 -20 808 -2 870
-1 882 15 16 22 15 38 -4 57 -14 14 -107 16 -880 16 l-864 0 -12 -26z m1747
-19 c0 -20 -8 -20 -859 -23 -526 -1 -864 2 -869 7 -5 5 -7 17 -4 25 6 15 92
16 869 14 855 -3 863 -3 863 -23z"/>
<path d="M7052 3903 c-22 -4 -23 -8 -17 -46 4 -23 9 -45 12 -49 7 -12 51 -9
58 3 8 12 -14 100 -24 98 -3 -1 -16 -4 -29 -6z"/>
<path d="M3792 3748 c-7 -7 -12 -21 -12 -33 0 -12 5 -26 12 -33 9 -9 218 -12
880 -12 l867 0 12 21 c8 16 8 28 0 45 l-11 24 -868 0 c-662 0 -871 -3 -880
-12z m1743 -33 c0 -20 -8 -20 -859 -23 -526 -1 -864 2 -869 7 -5 5 -7 17 -4
25 6 15 92 16 869 14 855 -3 863 -3 863 -23z"/>
<path d="M7000 3702 c-70 -60 -86 -66 -104 -40 -9 12 -16 33 -16 46 0 17 -4
22 -17 18 -10 -3 -36 -10 -59 -15 -72 -19 -109 -78 -130 -210 -8 -47 -14 -117
-14 -156 -1 -79 -13 -71 -24 14 -10 75 -28 102 -105 152 -79 53 -389 209 -413
209 -10 0 -18 -6 -18 -12 0 -34 84 -427 96 -451 18 -33 117 -85 291 -151 168
-63 163 -64 163 34 0 44 2 80 5 80 11 0 186 -125 221 -158 l39 -36 -40 -6 -40
-6 50 -5 c71 -6 93 -1 111 27 32 48 95 209 126 318 35 126 58 185 83 209 21
21 68 22 85 2 23 -27 23 -7 1 38 -31 64 -113 116 -206 131 -36 6 -44 3 -85
-32z m102 -251 c14 -12 -15 -92 -38 -108 -22 -14 -26 -14 -49 1 -22 14 -25 24
-25 72 l0 56 53 -7 c28 -4 55 -10 59 -14z m-688 -63 c22 -31 20 -58 -2 -58
-21 0 -44 42 -36 65 8 21 20 19 38 -7z"/>
<path d="M3792 3478 c-7 -7 -12 -21 -12 -33 0 -12 5 -26 12 -33 9 -9 218 -12
880 -12 l867 0 12 21 c8 16 8 28 0 45 l-11 24 -868 0 c-662 0 -871 -3 -880
-12z m1743 -33 c0 -20 -8 -20 -859 -23 -526 -1 -864 2 -869 7 -5 5 -7 17 -4
25 6 15 92 16 869 14 855 -3 863 -3 863 -23z"/>
<path d="M1790 3439 c-68 -27 -141 -111 -213 -245 -35 -65 -50 -83 -87 -103
-66 -37 -189 -40 -356 -11 -139 25 -242 24 -304 -3 l-35 -15 30 -1 c41 -2 122
-41 173 -86 24 -21 74 -75 113 -121 39 -46 90 -95 115 -110 94 -55 198 -28
262 67 35 53 102 129 113 129 5 0 9 -108 9 -240 0 -206 2 -239 14 -228 11 10
11 16 2 27 -8 11 -8 13 1 8 7 -5 29 10 56 38 34 35 51 45 76 45 68 0 144 57
157 118 13 63 37 112 72 147 35 36 142 95 171 95 9 0 11 6 5 18 -14 31 -16 99
-4 122 6 12 10 23 8 25 -2 1 -55 -6 -118 -16 -63 -10 -132 -18 -153 -18 -37
-1 -38 -1 -23 21 20 28 20 48 1 48 -8 0 -19 9 -25 20 -8 15 -6 24 10 40 11 11
26 20 34 20 20 0 74 68 82 102 8 40 -13 86 -47 103 -32 17 -102 19 -139 4z"/>
<path d="M7282 3246 c-64 -195 -153 -335 -239 -377 -71 -34 -137 -31 -245 13
l-87 36 -36 -39 c-19 -21 -35 -48 -35 -58 0 -22 30 -35 59 -26 23 7 69 -10 98
-37 17 -16 41 -22 115 -27 51 -4 101 -12 110 -17 10 -5 31 -31 48 -57 33 -52
70 -73 100 -57 34 18 73 150 104 345 16 107 48 396 44 400 -2 2 -18 -43 -36
-99z"/>
<path d="M2820 3081 c0 -4 33 -12 73 -15 356 -35 627 -335 627 -696 0 -274
-148 -510 -395 -630 -194 -94 -408 -93 -605 3 -47 23 -88 42 -92 42 -4 0 -31
-32 -60 -71 -29 -39 -56 -73 -59 -75 -3 -2 -27 15 -53 38 l-48 42 56 72 c53
67 68 95 46 87 -5 -1 -34 -36 -64 -77 l-55 -74 -85 -1 c-130 -2 -122 6 -453
-466 -178 -254 -288 -420 -294 -445 -13 -46 -7 -131 9 -147 18 -18 22 -6 11
42 -19 85 -5 113 209 414 24 34 55 79 70 100 l27 40 5 -348 5 -348 26 21 c22
17 458 628 565 790 26 40 29 53 31 138 l1 94 57 75 c31 41 59 74 63 72 4 -2
30 -15 57 -30 106 -55 188 -73 335 -73 121 1 143 4 215 29 116 40 209 99 297
188 l76 78 701 0 c461 0 701 3 701 10 0 7 -239 10 -696 10 -383 0 -694 3 -692
8 83 164 108 254 108 392 0 285 -155 528 -415 651 -107 50 -305 90 -305 60z"/>
<path d="M2238 2974 c-5 -4 -8 -52 -8 -108 0 -69 3 -97 10 -90 7 7 10 50 8
108 -2 54 -6 94 -10 90z"/>
<path d="M2675 2911 c-189 -54 -349 -217 -395 -404 -8 -31 -17 -46 -27 -45 -8
2 -30 -26 -54 -69 -38 -68 -39 -73 -19 -73 18 0 19 -3 10 -20 -6 -11 -21 -22
-33 -25 -17 -5 -34 -28 -60 -80 l-36 -74 95 -75 96 -76 35 72 34 71 35 -52
c104 -154 252 -239 434 -248 119 -7 188 7 288 57 210 105 338 346 303 570 -29
188 -136 342 -297 427 -116 62 -285 80 -409 44z m327 -34 c172 -62 298 -199
343 -374 24 -91 20 -211 -10 -300 -107 -318 -458 -463 -757 -312 -99 50 -251
212 -235 252 2 6 30 47 60 89 l56 77 -85 63 c-84 62 -85 64 -79 98 39 205 217
388 420 429 79 16 210 6 287 -22z m-706 -483 c32 -25 44 -44 27 -44 -5 0 -26
16 -48 35 -47 40 -30 47 21 9z m18 -78 c21 -16 34 -32 27 -34 -14 -5 -121 74
-121 89 0 12 33 -7 94 -55z"/>
<path d="M971 2323 c-26 -27 -58 -71 -70 -99 -66 -143 -84 -174 -132 -227 -68
-77 -159 -145 -269 -202 -78 -40 -90 -49 -90 -72 0 -43 21 -100 52 -137 l28
-35 53 18 c227 78 469 252 577 414 l40 59 0 -183 0 -184 -163 -66 -162 -66 1
-42 c1 -48 49 -124 82 -129 31 -5 257 74 329 114 90 50 128 106 177 263 29 92
81 340 92 437 l6 60 -68 36 c-108 56 -194 79 -322 85 l-113 6 -48 -50z"/>
<path d="M6470 1742 c0 -41 -30 -92 -54 -92 -9 0 -15 -24 -20 -77 -4 -47 -14
-92 -27 -116 -11 -22 -18 -41 -15 -44 8 -8 66 27 80 50 22 32 75 165 86 211
10 46 -1 80 -30 96 -19 10 -20 8 -20 -28z"/>
<path d="M6040 1110 c-14 -4 -41 -6 -61 -3 -28 4 -45 -2 -81 -26 -53 -36 -126
-70 -149 -71 -9 0 -24 -9 -34 -20 -15 -17 -16 -22 -4 -36 18 -21 61 -16 212
26 126 35 139 44 152 108 7 34 5 35 -35 22z"/>
<path d="M5034 393 c19 -43 47 -107 62 -143 l29 -64 12 77 13 77 -66 63 c-37
34 -70 63 -75 65 -5 2 6 -32 25 -75z"/>
</g>
</svg>
