<?xml version="1.0" standalone="no"?>
<!DOCTYPE svg PUBLIC "-//W3C//DTD SVG 20010904//EN"
 "http://www.w3.org/TR/2001/REC-SVG-20010904/DTD/svg10.dtd">
<svg version="1.0" xmlns="http://www.w3.org/2000/svg"
 width="670.000000pt" height="511.000000pt" viewBox="0 0 670.000000 511.000000"
 preserveAspectRatio="xMidYMid meet">

<g transform="translate(0.000000,511.000000) scale(0.100000,-0.100000)"
fill="#000000" stroke="none">
<path d="M2880 4577 c-58 -61 -98 -107 -90 -101 192 139 210 155 210 184 0 17
-3 30 -7 29 -5 -1 -55 -51 -113 -112z"/>
<path d="M2623 3485 c-17 -7 -39 -25 -48 -39 -16 -24 -16 -28 -1 -51 18 -27
29 -33 20 -12 -4 12 1 13 114 8 19 -1 22 -6 22 -45 l0 -43 42 -6 c30 -4 50
-14 67 -33 21 -26 23 -34 17 -95 -3 -37 -9 -74 -12 -83 -7 -19 14 -21 69 -5
28 7 47 23 72 58 19 27 53 60 75 75 78 52 92 143 31 198 -40 36 -76 44 -125
29 -84 -26 -112 -25 -150 4 -67 51 -135 65 -193 40z"/>
<path d="M2598 2923 c6 -2 18 -2 25 0 6 3 1 5 -13 5 -14 0 -19 -2 -12 -5z"/>
<path d="M2123 2890 c-4 -14 -12 -19 -32 -16 -14 1 -39 -3 -56 -10 -28 -12
-26 -13 43 -14 l72 0 0 30 c0 34 -19 41 -27 10z"/>
<path d="M2614 2879 c-24 -15 -49 -19 -139 -20 l-110 -1 -117 -139 c-65 -76
-118 -143 -118 -149 0 -26 40 -1 162 101 73 62 134 107 135 102 2 -5 -19 -69
-47 -142 -27 -73 -50 -139 -50 -147 0 -40 36 0 115 126 67 109 92 140 108 140
12 1 74 7 137 15 103 12 117 16 137 40 14 15 23 39 23 58 l0 32 -104 1 c-87 2
-109 -1 -132 -17z"/>
<path d="M4618 1652 l-278 -107 0 -107 0 -108 285 0 285 0 0 215 c0 118 -3
215 -7 214 -5 0 -133 -49 -285 -107z"/>
<path d="M5542 1118 c-8 -8 -13 -67 -14 -187 -2 -159 -3 -164 -5 -48 l-4 127
-512 0 -512 0 -120 -122 c-66 -68 -138 -142 -160 -165 l-39 -43 287 0 287 0 0
160 0 160 248 -2 247 -3 3 -158 3 -159 130 4 131 3 29 33 29 32 0 190 c0 105
-4 190 -8 190 -4 0 -13 -5 -20 -12z"/>
<path d="M1880 877 c-35 -15 -34 -15 -20 -32 18 -21 23 -19 43 15 19 32 16 35
-23 17z"/>
<path d="M5172 418 l-62 -52 0 -93 0 -93 65 0 65 0 0 145 c0 80 -1 145 -3 145
-1 0 -30 -23 -65 -52z"/>
<path d="M4480 275 l0 -25 -164 0 c-90 0 -171 -3 -180 -6 -11 -4 -16 -19 -16
-45 l0 -39 193 0 c218 0 227 3 227 72 0 52 -9 68 -36 68 -19 0 -24 -5 -24 -25z"/>
<path d="M5085 190 c-3 -5 -1 -10 4 -10 6 0 11 5 11 10 0 6 -2 10 -4 10 -3 0
-8 -4 -11 -10z"/>
</g>
</svg>
