<?xml version="1.0" standalone="no"?>
<!DOCTYPE svg PUBLIC "-//W3C//DTD SVG 20010904//EN"
 "http://www.w3.org/TR/2001/REC-SVG-20010904/DTD/svg10.dtd">
<svg version="1.0" xmlns="http://www.w3.org/2000/svg"
 width="1200.000000pt" height="956.000000pt" viewBox="0 0 1200.000000 956.000000"
 preserveAspectRatio="xMidYMid meet">

<g transform="translate(0.000000,956.000000) scale(0.100000,-0.100000)"
fill="#000000" stroke="none">
<path d="M10501 8852 c-42 -24 -60 -56 -60 -107 0 -32 2 -36 10 -23 9 16 87
68 101 68 3 0 9 -12 13 -27 12 -51 34 -75 61 -69 37 10 44 -21 11 -50 -15 -13
-27 -33 -27 -45 0 -19 4 -21 38 -14 43 8 145 55 182 85 l25 20 -31 0 c-41 0
-69 23 -102 84 -15 27 -39 58 -54 69 -38 29 -123 33 -167 9z"/>
<path d="M10912 8515 c-54 -69 -104 -136 -112 -149 -17 -32 -7 -68 32 -111 44
-51 100 -77 167 -78 105 -1 180 60 189 154 6 66 -12 104 -64 135 -37 22 -46
35 -69 94 -15 39 -30 72 -35 75 -5 3 -53 -51 -108 -120z"/>
<path d="M4176 6782 c-3 -5 1 -9 9 -9 8 0 12 4 9 9 -3 4 -7 8 -9 8 -2 0 -6 -4
-9 -8z"/>
<path d="M4206 6767 c-2 -11 -2 -16 1 -13 8 8 34 -14 28 -24 -3 -4 3 -14 13
-21 15 -12 16 -12 5 1 -7 9 -8 21 -4 29 6 9 10 7 14 -9 4 -15 10 -19 19 -14 9
5 8 2 -2 -11 -8 -10 -10 -16 -3 -12 13 8 55 -31 47 -44 -2 -4 1 -11 7 -15 7
-4 9 -3 5 4 -3 6 -2 13 3 16 14 9 21 -20 8 -35 -7 -7 -2 -5 10 4 16 14 23 15
29 6 5 -8 3 -10 -6 -4 -8 5 -11 3 -9 -4 11 -33 25 -8 36 64 6 44 12 86 12 93
1 10 -22 13 -103 10 -92 -2 -105 -5 -110 -21z m44 -3 c0 -8 -19 -13 -24 -6 -3
5 1 9 9 9 8 0 15 -2 15 -3z"/>
<path d="M4436 6768 c-14 -62 -27 -179 -21 -188 3 -5 11 -10 17 -10 6 0 5 7
-3 18 -11 14 -9 13 9 -2 21 -19 21 -20 5 -40 -15 -17 -15 -19 -1 -8 11 9 18
10 23 2 3 -6 12 -7 18 -3 7 4 5 -2 -3 -12 -8 -10 -10 -16 -3 -12 6 4 14 3 18
-3 3 -5 46 -10 95 -10 l89 0 6 33 c9 53 35 236 35 247 0 6 -53 10 -140 10
-137 0 -140 0 -144 -22z"/>
<path d="M4735 6758 c-9 -54 -35 -237 -35 -248 0 -6 52 -10 139 -10 113 0 140
3 144 15 4 8 9 47 13 87 5 66 4 76 -18 108 -41 61 -81 80 -164 80 l-73 0 -6
-32z"/>
<path d="M10235 6678 c-8 -17 -18 -23 -41 -22 -25 1 -34 -5 -52 -37 -13 -22
-36 -54 -52 -73 -17 -18 -30 -36 -30 -40 0 -14 41 -4 109 29 136 65 153 87
106 138 -14 15 -27 27 -28 27 -1 0 -7 -10 -12 -22z"/>
<path d="M9465 6630 c-17 -6 -112 -19 -153 -20 -44 -1 96 -75 187 -100 40 -10
46 -10 58 6 7 10 13 32 13 49 0 29 -2 31 -29 27 -23 -3 -32 1 -43 21 -10 19
-18 23 -33 17z"/>
<path d="M4514 6478 c9 -5 14 -13 11 -18 -3 -5 -1 -11 4 -15 6 -3 8 3 6 14 -4
19 9 22 33 8 7 -5 10 -12 7 -17 -3 -5 -1 -11 5 -15 5 -3 10 -1 10 6 0 7 3 9 6
6 4 -4 1 -13 -5 -21 -11 -13 -9 -15 9 -11 16 3 20 0 16 -10 -3 -9 1 -12 15
-10 16 3 18 1 10 -9 -8 -9 -7 -13 4 -13 15 0 18 8 30 80 l6 38 -92 -2 c-63 -1
-87 -4 -75 -11z"/>
<path d="M4697 6483 c-12 -20 -18 -141 -8 -147 6 -4 9 -11 6 -15 -2 -5 5 -17
18 -27 l22 -19 -19 23 c-13 15 -15 22 -6 22 9 0 7 7 -6 23 l-19 22 22 -19 c13
-10 20 -22 18 -26 -8 -13 29 -36 59 -38 16 -1 39 -8 51 -16 15 -10 33 -12 64
-6 23 4 44 10 47 13 4 4 32 180 34 210 0 4 -63 7 -139 7 -77 0 -142 -3 -144
-7z"/>
<path d="M8825 6479 c-202 -30 -404 -145 -542 -309 -69 -82 -130 -187 -117
-200 5 -4 81 -31 169 -60 88 -29 165 -55 170 -57 6 -2 19 12 29 31 51 94 186
187 293 202 60 8 53 -12 83 209 11 83 22 160 24 173 4 25 -5 26 -109 11z"/>
<path d="M4550 6460 c0 -5 5 -10 11 -10 5 0 7 5 4 10 -3 6 -8 10 -11 10 -2 0
-4 -4 -4 -10z"/>
<path d="M6681 5897 c-6 -8 -7 -18 -3 -22 4 -5 0 -6 -9 -2 -13 4 -16 1 -12
-16 4 -18 3 -20 -7 -7 -10 13 -11 12 -7 -6 2 -12 -1 -21 -8 -21 -7 0 -11 7
-10 16 1 9 0 10 -2 3 -3 -7 -9 -9 -15 -6 -5 4 -5 -3 2 -16 7 -12 8 -20 2 -16
-5 3 -13 -1 -16 -10 -3 -8 -10 -13 -15 -9 -6 3 -14 -3 -20 -12 -6 -10 -11 -13
-11 -7 0 14 25 36 32 28 3 -2 8 2 11 10 4 9 1 18 -5 22 -6 4 -8 3 -5 -3 6 -10
-19 -28 -33 -25 -3 0 -7 -9 -7 -20 -3 -30 -38 -64 -48 -47 -6 8 -4 10 5 4 9
-6 11 -4 5 5 -5 9 -4 11 3 6 8 -5 10 -1 6 9 -6 14 -8 13 -21 -5 -8 -11 -19
-18 -24 -14 -5 3 -8 0 -7 -7 2 -7 -3 -13 -9 -14 -15 0 -18 -13 -7 -23 4 -4 4
0 -1 8 -5 8 -4 12 0 7 5 -4 18 1 29 10 12 10 6 1 -13 -19 -19 -21 -39 -34 -45
-30 -20 12 -35 10 -29 -5 5 -12 7 -12 14 -1 6 9 9 9 9 1 0 -15 -15 -25 -24
-16 -12 12 -35 12 -33 0 1 -7 -4 -11 -11 -9 -10 2 -10 -2 -1 -19 6 -12 7 -19
1 -15 -5 3 -13 -1 -16 -9 -3 -8 -11 -14 -18 -13 -7 2 -12 -3 -10 -10 1 -8 -2
-11 -7 -8 -5 4 -12 0 -14 -6 -4 -8 -6 -9 -6 -2 -1 6 6 17 14 24 8 7 15 18 15
24 0 6 -5 3 -11 -7 -6 -9 -15 -14 -21 -11 -6 4 -8 2 -4 -4 3 -6 2 -13 -3 -16
-29 -18 78 -315 110 -304 5 2 81 59 169 126 l159 124 -22 41 c-18 35 -22 59
-23 147 -1 62 3 108 9 112 6 3 11 17 13 30 1 12 3 24 4 26 2 1 3 8 4 15 1 6 8
11 15 9 7 -1 10 2 6 8 -8 13 -10 13 -24 -3z m-306 -264 c-2 -10 -4 -19 -4 -21
-1 -2 -6 0 -11 3 -8 5 -7 11 1 21 15 18 18 18 14 -3z"/>
<path d="M6521 5764 c0 -11 3 -14 6 -6 3 7 2 16 -1 19 -3 4 -6 -2 -5 -13z"/>
<path d="M6417 5685 c3 -8 9 -12 14 -9 12 7 11 11 -5 17 -10 4 -13 1 -9 -8z"/>
<path d="M6313 5609 c-2 -23 3 -25 10 -4 4 8 3 16 -1 19 -4 3 -9 -4 -9 -15z"/>
<path d="M9955 5253 c-4 -27 -9 -56 -12 -65 -4 -17 13 -18 266 -18 251 0 271
1 272 18 0 9 4 38 8 65 l8 47 -268 0 -268 0 -6 -47z"/>
<path d="M11195 4707 c-22 -5 -56 -10 -75 -10 -69 -4 -80 -84 -17 -131 21 -15
44 -21 84 -22 48 -1 57 -4 64 -22 5 -12 13 -22 19 -22 5 0 10 -7 10 -15 0 -19
-92 -83 -98 -67 -4 14 -62 16 -62 2 0 -5 11 -10 25 -10 28 0 32 -12 11 -30
-23 -19 -8 -40 30 -40 47 0 82 34 98 95 8 32 18 51 29 53 21 4 23 -25 2 -48
-13 -14 -13 -19 -1 -36 14 -19 15 -18 41 6 39 36 57 76 57 126 0 53 -27 103
-67 124 -16 8 -37 22 -48 31 -25 23 -54 27 -102 16z"/>
<path d="M3145 4473 c-19 -20 -35 -40 -35 -44 0 -15 -38 -20 -64 -8 -38 18
-71 -1 -86 -48 -20 -63 -56 -93 -110 -93 -53 0 -90 -22 -90 -53 0 -12 7 -44
15 -72 17 -56 14 -84 -16 -124 -28 -38 -16 -59 48 -87 47 -21 53 -27 53 -53 0
-16 7 -36 15 -44 33 -34 118 -32 149 2 9 10 20 42 25 70 12 78 27 83 29 9 0
-45 13 -101 43 -193 53 -164 54 -218 10 -400 -17 -71 -36 -141 -41 -155 -15
-39 -20 -75 -29 -220 -10 -139 -22 -186 -66 -244 -32 -43 -38 -78 -24 -145 9
-49 9 -63 -5 -89 -33 -63 -39 -49 -20 46 4 21 2 22 -69 22 l-73 0 -53 -377
c-29 -208 -55 -386 -57 -395 -5 -16 3 -18 66 -18 47 0 72 4 75 12 5 12 65 432
65 451 0 8 664 6 690 -3 13 -4 15 16 18 140 6 276 -23 615 -78 910 -27 146
-26 253 5 388 14 61 25 135 25 165 l0 54 108 22 c59 12 158 36 220 53 l113 32
38 80 c37 78 121 320 121 349 0 13 -85 45 -94 36 -2 -2 -20 -45 -39 -96 -20
-51 -55 -133 -78 -183 l-42 -90 -48 0 c-27 0 -49 2 -49 4 0 13 112 236 124
245 8 7 12 21 9 31 -3 11 -1 20 5 20 5 0 12 9 15 19 4 16 -4 23 -38 35 l-43
14 -116 -171 c-64 -95 -123 -181 -132 -192 -13 -18 -27 -20 -117 -20 -56 0
-114 4 -129 9 -23 7 -28 5 -28 -8 0 -13 -11 -16 -53 -16 -29 0 -58 5 -64 11
-17 17 -3 101 23 132 20 23 23 35 17 73 -5 42 -5 45 25 55 17 6 33 17 36 25 8
20 28 18 54 -6 l21 -20 11 20 c14 26 5 57 -20 65 -10 3 -23 20 -29 37 -10 29
-13 30 -49 24 -33 -5 -42 -2 -62 19 -36 38 -80 34 -125 -12z m-213 -2125 c-9
-9 -12 -7 -12 12 0 19 3 21 12 12 9 -9 9 -15 0 -24z"/>
<path d="M1000 4493 c-8 -3 -20 -12 -27 -20 -7 -9 -33 -17 -60 -20 -70 -5
-123 -65 -123 -140 0 -36 34 -105 61 -121 18 -11 23 -11 34 4 11 15 9 22 -7
45 -21 28 -18 49 7 49 8 0 19 -8 24 -17 8 -14 10 -4 11 40 l0 57 33 0 c17 0
46 -9 64 -19 29 -18 32 -18 46 -3 24 28 29 59 13 95 -12 29 -44 60 -58 56 -2
0 -10 -3 -18 -6z"/>
<path d="M1040 4235 c-6 -16 -18 -37 -25 -45 -9 -10 -11 -21 -5 -30 8 -12 14
-12 44 3 41 19 42 20 16 67 l-18 35 -12 -30z"/>
<path d="M985 4058 c-13 -43 -35 -46 -78 -9 -19 17 -41 31 -48 31 -28 0 -169
-52 -193 -71 -14 -11 -64 -68 -111 -127 l-85 -106 57 -58 c32 -32 63 -58 70
-58 6 0 28 19 47 43 19 23 44 53 56 67 l21 25 -5 -338 -6 -337 27 -11 c37 -15
331 -5 398 13 l50 13 -3 185 c-1 102 -5 237 -8 300 l-5 115 31 -34 c29 -30 34
-32 56 -21 13 7 33 23 44 35 l21 23 -70 118 c-38 66 -80 137 -94 160 -22 37
-31 42 -90 57 -36 10 -68 17 -69 17 -2 0 -8 -15 -13 -32z"/>
<path d="M10910 3237 c0 -2 -20 -104 -45 -228 -90 -447 -97 -538 -88 -1099 l6
-395 81 3 c45 2 96 5 114 9 l32 5 0 86 c0 63 4 88 15 96 11 9 12 19 5 51 -14
61 -12 83 11 106 l22 22 -19 116 c-28 173 -25 335 10 486 28 122 128 431 144
447 5 5 11 -36 15 -99 3 -59 24 -292 46 -518 23 -225 48 -497 56 -604 8 -107
17 -196 19 -199 10 -10 94 -13 146 -5 43 6 56 12 59 28 2 11 13 33 24 50 23
32 26 69 12 173 -7 58 -6 65 15 87 21 22 22 28 12 63 -27 90 -31 184 -22 567
4 215 6 467 3 560 l-6 170 -36 0 c-147 2 -617 18 -623 22 -5 2 -8 3 -8 0z"/>
<path d="M6128 2870 c-9 -14 -24 -20 -51 -20 -76 0 -131 -49 -151 -133 -10
-43 12 -107 51 -146 l35 -35 13 24 c12 22 11 28 -6 46 -10 11 -19 28 -19 37 0
26 30 34 46 12 13 -17 14 -13 14 32 0 68 15 81 78 64 26 -6 52 -19 58 -27 10
-13 15 -11 34 13 17 22 21 37 17 71 -2 24 -13 52 -22 62 -24 27 -81 27 -97 0z"/>
<path d="M4179 2698 c0 -2 -31 -213 -68 -470 l-67 -468 73 0 c40 0 73 4 73 8
0 4 29 215 65 467 36 253 65 461 65 463 0 1 -31 2 -70 2 -38 0 -70 -1 -71 -2z"/>
<path d="M1976 2423 c-3 -16 -24 -158 -46 -318 -22 -159 -43 -302 -46 -317
l-6 -28 74 0 74 0 43 313 c24 171 46 327 49 345 l5 32 -71 0 c-69 0 -71 -1
-76 -27z"/>
<path d="M6144 2409 c-16 -54 -35 -57 -93 -15 l-52 38 -87 -27 c-48 -15 -95
-34 -106 -43 -59 -53 -59 -140 -2 -266 l36 -78 0 -234 0 -234 83 0 c123 0 362
43 399 72 21 17 13 92 -8 84 -8 -3 -54 -11 -102 -17 -113 -14 -158 -3 -204 50
-46 54 -122 191 -112 200 8 7 139 61 148 61 2 0 18 -34 36 -75 l33 -75 108 0
109 0 0 105 0 105 34 -37 34 -37 48 41 c27 23 59 52 71 64 l22 24 -43 58 c-24
31 -77 97 -119 146 -78 91 -85 96 -193 116 -28 5 -32 3 -40 -26z"/>
<path d="M160 1579 c-19 -12 -37 -23 -39 -25 -2 -2 10 -20 26 -41 17 -21 32
-43 34 -49 7 -19 139 -137 139 -124 0 7 -11 44 -25 82 -14 38 -25 83 -25 100
0 27 -3 30 -25 26 -14 -3 -25 0 -26 6 -1 6 -2 17 -3 25 -2 23 -18 23 -56 0z"/>
<path d="M2713 1578 c-18 -20 -93 -159 -93 -173 0 -18 23 2 51 47 l33 51 13
-29 c6 -16 12 -53 13 -82 0 -44 4 -57 26 -77 39 -37 124 -58 124 -32 0 20 -43
57 -66 57 -37 0 -44 20 -44 121 0 78 -4 101 -18 119 l-17 21 -22 -23z"/>
<path d="M3455 1480 c-10 -44 5 -200 19 -200 7 0 12 23 14 57 2 32 5 60 8 62
7 7 44 -31 75 -76 19 -27 39 -44 58 -48 35 -7 104 9 121 29 9 12 5 17 -26 25
-26 7 -42 7 -50 0 -28 -23 -58 -5 -89 50 -31 57 -95 131 -113 131 -6 0 -13
-14 -17 -30z"/>
<path d="M10753 1432 c-17 -14 -67 -40 -109 -57 -106 -42 -106 -54 -2 -57 122
-4 262 2 272 12 11 11 -2 83 -19 107 -13 17 -14 17 -35 -4 -24 -26 -40 -30
-40 -8 0 30 -33 34 -67 7z"/>
<path d="M11427 1397 c-15 -22 -15 -22 -47 -3 l-32 18 -44 -43 c-24 -24 -44
-47 -44 -52 0 -4 48 -7 106 -6 118 2 123 5 104 63 -15 46 -24 51 -43 23z"/>
<path d="M1162 1385 c-7 -14 -12 -37 -12 -50 0 -31 36 -39 163 -37 102 2 151
14 112 27 -31 11 -138 63 -158 77 -15 11 -20 10 -31 -4 -16 -22 -32 -23 -40
-3 -8 22 -21 18 -34 -10z"/>
<path d="M6437 382 c-10 -10 -17 -24 -17 -30 0 -14 57 -45 69 -38 5 3 20 -3
34 -14 33 -26 127 -70 150 -70 27 0 20 18 -15 36 -18 8 -47 32 -65 52 -27 30
-39 37 -70 37 -30 0 -40 5 -48 23 -12 27 -17 27 -38 4z"/>
<path d="M7345 327 c-8 -17 -18 -22 -48 -21 -31 1 -38 -2 -43 -22 -9 -37 2
-44 42 -28 20 8 39 13 42 10 3 -4 13 1 23 10 10 9 25 14 33 11 15 -6 94 18
131 40 32 18 10 27 -39 14 -24 -6 -51 -9 -58 -7 -51 16 -74 14 -83 -7z"/>
</g>
</svg>
